<svg xmlns="http://www.w3.org/2000/svg" width="63" height="63"><defs><linearGradient id="a" x1=".151%" x2="99.769%" y1="46.67%" y2="54.364%"><stop offset="0%" stop-color="#FEE962"/><stop offset="10%" stop-color="#FEE45E"/><stop offset="22%" stop-color="#FED552"/><stop offset="34%" stop-color="#FEBF41"/><stop offset="42%" stop-color="#FEB836"/><stop offset="55%" stop-color="#FFA61A"/><stop offset="64%" stop-color="#FF9500"/><stop offset="100%" stop-color="#FEE04C"/></linearGradient><linearGradient id="b" x1=".15%" x2="99.776%" y1="46.67%" y2="54.371%"><stop offset="0%" stop-color="#F2F2F2"/><stop offset="100%"/></linearGradient><linearGradient id="c" x1=".159%" x2="99.758%" y1="46.663%" y2="54.363%"><stop offset="0%" stop-color="#060606"/><stop offset="100%" stop-color="#FFF"/></linearGradient><linearGradient id="e" x1="3.906%" x2="97.126%" y1="47.233%" y2="54.806%"><stop offset="0%" stop-color="#FFF"/><stop offset="100%"/></linearGradient><radialGradient id="d" cx="49.986%" cy="49.999%" r="50.266%" fx="49.986%" fy="49.999%" gradientTransform="matrix(.75526 -.65473 .6542 .75586 -.205 .45)"><stop offset="94%" stop-color="#FFF"/><stop offset="100%" stop-color="#8C6239"/></radialGradient></defs><g fill="none" fill-rule="nonzero" opacity=".3" style="mix-blend-mode:lighten"><path fill="url(#a)" d="M51.195 54.323c13.01-11.27 14.524-30.85 3.38-43.734C43.432-2.295 23.851-3.604 10.841 7.665-2.17 18.935-3.683 38.515 7.46 51.4c11.143 12.884 30.723 14.193 43.734 2.923Z" transform="translate(.717 .74)"/><path fill="url(#b)" d="M10.84 7.665a31.419 31.419 0 0 0-9.687 15.269 30.948 30.948 0 0 0 .38 17.985 30.555 30.555 0 0 0 10.316 14.64 30.718 30.718 0 0 0 16.778 6.36 31.24 31.24 0 0 0 17.584-4.063 31.476 31.476 0 0 0 12.463-13.117 31.132 31.132 0 0 0 3.14-17.75 30.637 30.637 0 0 0-7.239-16.4C49.224 4.402 41.61.618 33.408.069c-8.202-.548-16.32 2.185-22.567 7.596Zm39.951 46.192a30.752 30.752 0 0 1-16.158 7.257 30.265 30.265 0 0 1-17.377-2.895A29.93 29.93 0 0 1 4.517 46.147 30.16 30.16 0 0 1 .711 28.97a30.67 30.67 0 0 1 6.41-16.496A30.833 30.833 0 0 1 21.583 2.22a30.444 30.444 0 0 1 17.644-.554 29.986 29.986 0 0 1 14.876 9.331 29.97 29.97 0 0 1 5.81 10.271 30.24 30.24 0 0 1 1.41 11.752 30.596 30.596 0 0 1-3.203 11.444 30.832 30.832 0 0 1-7.33 9.393Z" style="mix-blend-mode:overlay" transform="translate(.717 .74)"/><path fill="url(#c)" d="M14.372 11.75a25.891 25.891 0 0 1 13.605-6.11 25.482 25.482 0 0 1 14.63 2.438 25.2 25.2 0 0 1 10.725 10.165 25.392 25.392 0 0 1 3.204 14.464 25.823 25.823 0 0 1-5.398 13.889 25.96 25.96 0 0 1-12.18 8.63 25.632 25.632 0 0 1-14.855.464A25.225 25.225 0 0 1 6.689 39.183a25.454 25.454 0 0 1-1.187-9.893A25.757 25.757 0 0 1 8.2 19.657a25.953 25.953 0 0 1 6.172-7.907Zm-1.957 35.357a24.162 24.162 0 0 0 11.986 7.52 24.53 24.53 0 0 0 14.217-.447 24.844 24.844 0 0 0 11.654-8.262 24.713 24.713 0 0 0 5.164-13.291 24.3 24.3 0 0 0-3.067-13.842 24.116 24.116 0 0 0-10.264-9.726 24.387 24.387 0 0 0-14.001-2.333c-4.81.625-9.341 2.66-13.02 5.847a24.76 24.76 0 0 0-8.487 16.79 24.247 24.247 0 0 0 5.818 17.744Z" style="mix-blend-mode:overlay" transform="translate(.717 .74)"/><path fill="url(#c)" d="M14.372 11.75a25.891 25.891 0 0 1 13.605-6.11 25.482 25.482 0 0 1 14.63 2.438 25.2 25.2 0 0 1 10.725 10.165 25.392 25.392 0 0 1 3.204 14.464 25.823 25.823 0 0 1-5.398 13.889 25.96 25.96 0 0 1-12.18 8.63 25.632 25.632 0 0 1-14.855.464A25.225 25.225 0 0 1 6.689 39.183a25.454 25.454 0 0 1-1.187-9.893A25.757 25.757 0 0 1 8.2 19.657a25.953 25.953 0 0 1 6.172-7.907Zm-1.957 35.357a24.162 24.162 0 0 0 11.986 7.52 24.53 24.53 0 0 0 14.217-.447 24.844 24.844 0 0 0 11.654-8.262 24.713 24.713 0 0 0 5.164-13.291 24.3 24.3 0 0 0-3.067-13.842 24.116 24.116 0 0 0-10.264-9.726 24.387 24.387 0 0 0-14.001-2.333c-4.81.625-9.341 2.66-13.02 5.847a24.76 24.76 0 0 0-8.487 16.79 24.247 24.247 0 0 0 5.818 17.744Z" opacity=".75" style="mix-blend-mode:overlay" transform="translate(.717 .74)"/><path fill="url(#d)" d="M15.083 12.573a24.784 24.784 0 0 1 13.023-5.852 24.392 24.392 0 0 1 14.006 2.332 24.121 24.121 0 0 1 10.268 9.729 24.305 24.305 0 0 1 3.069 13.846 24.718 24.718 0 0 1-5.166 13.296 24.848 24.848 0 0 1-11.66 8.263 24.536 24.536 0 0 1-14.22.444 24.168 24.168 0 0 1-11.99-7.523 24.247 24.247 0 0 1-5.817-17.746 24.76 24.76 0 0 1 8.487-16.789Zm-1.44 33.47a22.566 22.566 0 0 0 11.195 7.022 22.91 22.91 0 0 0 13.276-.417A23.203 23.203 0 0 0 49 44.932 23.08 23.08 0 0 0 53.82 32.52c.349-4.51-.648-9.01-2.864-12.927a22.522 22.522 0 0 0-9.585-9.084A22.774 22.774 0 0 0 28.295 8.33a23.142 23.142 0 0 0-12.16 5.46A23.124 23.124 0 0 0 8.21 29.47a22.645 22.645 0 0 0 5.433 16.573Z" style="mix-blend-mode:multiply" transform="translate(.717 .74)"/><path fill="#FFEE80" d="M41.355 26.232a6.963 6.963 0 0 0-3.017-.217.057.057 0 0 1-.052-.019.056.056 0 0 1-.011-.053 5.512 5.512 0 0 0 .118-2.872 7.02 7.02 0 0 0-1.66-3.018 8.345 8.345 0 0 0-2.624-2.042 8.199 8.199 0 0 0-3.124-.86 8.519 8.519 0 0 0-3.266.413c-.692.23-1.35.551-1.96.953a.056.056 0 0 1-.075-.01l-2.315-2.673a.057.057 0 0 0-.039-.02.058.058 0 0 0-.04.014L21.01 17.8a.052.052 0 0 0-.022.038.05.05 0 0 0 .016.041l2.238 2.585a.062.062 0 0 1-.01.083l-1.605 1.389a.057.057 0 0 1-.041.014.056.056 0 0 1-.039-.02l-2.238-2.584a.056.056 0 0 0-.038-.02.057.057 0 0 0-.041.014l-2.279 1.972a.057.057 0 0 0-.022.063.056.056 0 0 0 .012.02l2.227 2.572a.056.056 0 0 1 .012.065.058.058 0 0 1-.015.019l-4.938 4.273a.058.058 0 0 0-.024.04.055.055 0 0 0 .013.044l3.256 3.76c.011.012.026.02.043.02a.062.062 0 0 0 .045-.015l2.098-1.815a.057.057 0 0 1 .041-.014.056.056 0 0 1 .039.02l11.6 13.398a.056.056 0 0 1-.005.08l-2.098 1.815a.062.062 0 0 0-.007.088l3.234 3.735a.06.06 0 0 0 .041.017c.016 0 .03-.005.043-.016l4.938-4.273a.052.052 0 0 1 .041-.016.051.051 0 0 1 .039.022l2.289 2.644c.005.006.011.01.019.014a.056.056 0 0 0 .065-.012l2.278-1.972a.056.056 0 0 0 .006-.08l-2.29-2.644a.05.05 0 0 1-.01-.063.05.05 0 0 1 .017-.016l1.596-1.381a.056.056 0 0 1 .065-.013.054.054 0 0 1 .019.014l2.29 2.645a.05.05 0 0 0 .06.018.052.052 0 0 0 .019-.013l2.278-1.971a.058.058 0 0 0 .02-.04.057.057 0 0 0-.014-.04l-2.322-2.682a.05.05 0 0 1-.016-.038.051.051 0 0 1 .018-.038 8.621 8.621 0 0 0 1.43-1.98 8.004 8.004 0 0 0 .882-3.124 8.477 8.477 0 0 0-.424-3.256 8.965 8.965 0 0 0-1.78-3.07 5.875 5.875 0 0 0-2.705-1.884Zm-10.47-2.818c.335.186.636.428.89.715.25.29.446.623.58.982a3.6 3.6 0 0 1 .21 1.11 2.79 2.79 0 0 1-.161 1.053 1.996 1.996 0 0 1-.578.841l-3.3 2.855a.056.056 0 0 1-.08-.005l-4.041-4.669a.05.05 0 0 1-.016-.041c0-.008.003-.015.006-.022a.053.053 0 0 1 .016-.017l3.312-2.865c.265-.229.59-.377.934-.43.367-.06.741-.048 1.102.034.39.086.764.234 1.107.437l.019.022Zm9.205 10.172c.146.372.233.765.258 1.165.024.368-.026.738-.145 1.09-.113.337-.316.639-.588.872l-3.496 3.026a.052.052 0 0 1-.042.016.05.05 0 0 1-.038-.022l-4.204-4.855a.056.056 0 0 1-.012-.065.06.06 0 0 1 .015-.019l3.51-3.037c.263-.228.58-.386.92-.462a2.65 2.65 0 0 1 1.066-.025c.385.07.755.204 1.095.397.371.217.703.494.98.821.28.32.503.683.662 1.076l.019.022Z"/><path fill="url(#e)" d="M27.151 10.418a6.963 6.963 0 0 0-3.017-.218c-.01.002-.02 0-.029-.002a.055.055 0 0 1-.035-.042.057.057 0 0 1 .001-.028 5.512 5.512 0 0 0 .118-2.871 7.02 7.02 0 0 0-1.66-3.018 8.344 8.344 0 0 0-2.624-2.043 8.2 8.2 0 0 0-3.124-.86 8.52 8.52 0 0 0-3.266.413c-.692.231-1.35.552-1.96.953a.057.057 0 0 1-.075-.009L9.165.02a.056.056 0 0 0-.08-.005L6.807 1.985a.052.052 0 0 0-.022.039.05.05 0 0 0 .016.04L9.04 4.65a.061.061 0 0 1-.01.083L7.423 6.12a.057.057 0 0 1-.041.014.056.056 0 0 1-.039-.02L5.106 3.532a.057.057 0 0 0-.08-.005L2.749 5.497a.057.057 0 0 0-.021.063.054.054 0 0 0 .011.02l2.227 2.572a.056.056 0 0 1 .012.066.057.057 0 0 1-.015.018L.024 12.51a.058.058 0 0 0-.024.04.056.056 0 0 0 .013.044l3.257 3.76c.01.012.026.02.042.02a.062.062 0 0 0 .045-.014l2.098-1.816a.057.057 0 0 1 .08.006l11.601 13.399a.056.056 0 0 1-.006.08l-2.098 1.815a.063.063 0 0 0-.022.042.061.061 0 0 0 .015.045l3.234 3.735a.06.06 0 0 0 .041.017c.016 0 .031-.005.043-.015l4.938-4.273a.052.052 0 0 1 .041-.017.05.05 0 0 1 .039.022l2.29 2.644a.056.056 0 0 0 .083.002l2.278-1.971a.057.057 0 0 0 .02-.039.056.056 0 0 0-.014-.04L25.73 27.35a.05.05 0 0 1-.016-.041.05.05 0 0 1 .007-.022.05.05 0 0 1 .015-.017l1.596-1.38a.057.057 0 0 1 .066-.013.055.055 0 0 1 .018.014l2.29 2.644a.051.051 0 0 0 .038.022.05.05 0 0 0 .041-.016l2.278-1.972a.058.058 0 0 0 .02-.038.057.057 0 0 0-.013-.041l-2.323-2.683a.05.05 0 0 1-.016-.038.051.051 0 0 1 .018-.038 8.626 8.626 0 0 0 1.43-1.98 8.002 8.002 0 0 0 .882-3.124 8.476 8.476 0 0 0-.424-3.255 8.963 8.963 0 0 0-1.78-3.07 5.875 5.875 0 0 0-2.705-1.884Zm-10.47-2.819c.335.187.636.428.89.715.25.29.446.623.58.983a3.6 3.6 0 0 1 .21 1.11c.015.357-.04.715-.161 1.053a1.996 1.996 0 0 1-.578.84l-3.3 2.856a.057.057 0 0 1-.079-.006l-4.042-4.668a.05.05 0 0 1-.016-.041.05.05 0 0 1 .022-.039l3.312-2.866c.266-.228.59-.377.934-.43.367-.059.741-.047 1.102.034.391.087.765.234 1.108.438l.018.021Zm9.205 10.172c.146.372.233.765.258 1.165.024.369-.025.739-.145 1.09-.113.338-.316.64-.587.873l-3.497 3.025a.051.051 0 0 1-.08-.005l-4.204-4.856a.057.057 0 0 1-.017-.042.059.059 0 0 1 .02-.041l3.51-3.037a2.11 2.11 0 0 1 .92-.462c.35-.081.714-.09 1.067-.025.385.07.755.204 1.094.397.371.216.703.494.981.821.278.32.502.683.661 1.076l.019.021Z" opacity=".5" style="mix-blend-mode:overlay" transform="translate(14.202 15.814)"/></g></svg>