<svg xmlns="http://www.w3.org/2000/svg" width="375" height="507" fill="none"><g filter="url(#a)"><ellipse cx="202.276" cy="279.597" fill="#0F0422" rx="279.276" ry="244.403"/></g><ellipse cx="202.276" cy="279.597" fill="url(#b)" rx="268.14" ry="235.611"/><circle cx="304.032" cy="149.709" r="25.858" fill="#3E166E" transform="rotate(85.28 304.032 149.709)"/><circle cx="303.894" cy="157.176" r="25.858" fill="#1E0C3F"/><path fill="#0E0712" d="M307.557 182.015c5.61-.455 11.177-3.115 15.359-7.331 2.129-2.084 3.847-4.601 5.176-7.298a28.03 28.03 0 0 0 2.539-8.694c.691-6.019-.625-12.349-3.933-17.498-1.655-2.559-3.647-4.883-6.047-6.785-2.401-1.869-5.113-3.378-8.015-4.333-5.769-2.007-12.221-1.848-18.006.191-2.901 1.043-5.582 2.613-7.957 4.503-2.408 1.89-4.419 4.229-6.027 6.795-1.609 2.566-2.846 5.359-3.504 8.27-.626 2.911-.845 5.891-.525 8.782.576 5.813 3.31 11.177 7.291 14.97.505.466 1.294.444 1.751-.058.407-.423.459-1.089.158-1.537l-.031-.032c-2.691-4.173-4.199-8.935-3.989-13.66.073-2.347.476-4.674 1.237-6.854.793-2.179 1.865-4.229 3.23-6.036.643-.928 1.472-1.727 2.238-2.559l1.28-1.11c.421-.376.888-.671 1.34-1.015 1.836-1.278 3.822-2.301 5.908-2.957 4.2-1.25 8.756-1.273 12.808.204 2.01.739 3.933 1.746 5.642 3.052 1.693 1.321 3.172 2.942 4.377 4.733 2.475 3.552 3.582 7.992 3.491 12.449-.085 2.235-.579 4.466-1.355 6.598-.775 2.132-1.849 4.213-3.339 6.019-2.812 3.757-6.935 6.594-11.633 8.138l-.016.016a1.584 1.584 0 0 0-1.023 1.971c.216.684.88 1.121 1.575 1.066Z"/><ellipse cx="131.672" cy="199.439" fill="#1E0C3F" rx="45.05" ry="32.352"/><path fill="#0E0712" d="M138.054 230.516c9.774-.569 19.474-3.898 26.759-9.173a36.125 36.125 0 0 0 9.018-9.13c2.262-3.414 3.794-7.092 4.424-10.877 1.204-7.532-1.09-15.451-6.853-21.893a42.149 42.149 0 0 0-10.535-8.488 54.338 54.338 0 0 0-13.963-5.423c-10.052-2.51-21.292-2.311-31.371.24a56.498 56.498 0 0 0-13.864 5.634c-4.194 2.365-7.698 5.291-10.5 8.502-2.803 3.21-4.959 6.704-6.104 10.346-1.091 3.643-1.472 7.371-.915 10.988 1.004 7.273 5.767 13.984 12.702 18.729.88.583 2.255.556 3.051-.073.71-.529.8-1.362.275-1.922l-.053-.041c-4.69-5.221-7.316-11.179-6.95-17.09.127-2.937.83-5.848 2.155-8.575a27.634 27.634 0 0 1 5.627-7.552c1.121-1.162 2.564-2.161 3.9-3.201l2.229-1.39c.735-.47 1.547-.84 2.335-1.269a45.533 45.533 0 0 1 10.293-3.701c7.317-1.563 15.254-1.592 22.314.256 3.503.924 6.853 2.184 9.831 3.818 2.949 1.654 5.525 3.681 7.625 5.922 4.312 4.445 6.241 9.999 6.083 15.575-.149 2.797-1.011 5.588-2.362 8.256-1.351 2.667-3.221 5.271-5.817 7.53-4.899 4.701-12.082 8.25-20.267 10.183l-.028.019c-1.415.325-2.231 1.429-1.782 2.465.375.857 1.532 1.403 2.743 1.335Z"/><ellipse fill="#3E166E" rx="18.067" ry="11.918" transform="matrix(-.65863 .75247 -.79744 -.6034 25.078 126.987)"/><ellipse cx="21.383" cy="130.685" fill="#1E0C3F" rx="11.865" ry="18.102" transform="rotate(44.293 21.383 130.685)"/><path fill="#0E0712" d="M10.442 144.305c2.065 1.57 5.194 2.021 8.629 1.248 1.718-.362 3.512-1.073 5.267-1.998a27.887 27.887 0 0 0 5.084-3.543c3.17-2.795 5.832-6.389 7.263-10.029.707-1.812 1.19-3.615 1.33-5.337.126-1.706-.027-3.331-.513-4.74-.914-2.854-3.11-4.841-6.007-5.673-1.463-.407-3.11-.48-4.815-.294-1.715.176-3.519.704-5.302 1.474a24.96 24.96 0 0 0-5.193 3.021c-1.63 1.259-3.158 2.682-4.466 4.233-2.653 3.098-4.377 6.661-4.924 9.837-.062.396.208.638.604.532.34-.081.683-.398.803-.719l.006-.026c1.156-2.954 2.989-5.823 5.367-8.123a23.785 23.785 0 0 1 3.757-3.038c1.326-.838 2.68-1.522 4.012-1.99.665-.259 1.328-.394 1.986-.565l.963-.146c.322-.054.62-.052.936-.08 1.228-.052 2.38.072 3.387.411 1.99.72 3.498 2.168 4.106 4.207.3 1.014.439 2.135.361 3.337-.09 1.205-.396 2.49-.876 3.774-.924 2.573-2.73 5.153-4.94 7.357a22.448 22.448 0 0 1-3.67 2.872c-1.297.82-2.667 1.519-4.04 1.946-2.76.982-5.5 1.082-7.798.351l-.014.003c-.393-.13-.979.162-1.299.659-.264.412-.259.844-.004 1.039Z"/><ellipse fill="#3E166E" rx="11.028" ry="7.301" transform="matrix(.92543 .37891 -.22728 .97383 368.979 214.956)"/><ellipse fill="#1E0C3F" rx="7.188" ry="11.102" transform="matrix(.34688 -.9379 .90387 .4278 371.864 216.364)"/><path fill="#0E0712" d="M381.856 219.971c.364-1.546-.131-3.486-1.364-5.351-.603-.938-1.415-1.848-2.333-2.69a18.273 18.273 0 0 0-3.129-2.259c-2.269-1.285-4.853-2.105-7.17-2.188-1.152-.039-2.247.054-3.216.33-.957.283-1.804.713-2.455 1.294-1.334 1.136-1.895 2.847-1.661 4.73.125.948.475 1.935.98 2.902.501.974 1.215 1.928 2.056 2.819a16.53 16.53 0 0 0 2.871 2.433 18.35 18.35 0 0 0 3.357 1.749c2.312.918 4.657 1.19 6.513.849.23-.046.297-.256.146-.467a.788.788 0 0 0-.581-.323l-.015.002a13.734 13.734 0 0 1-5.686-1.469 15.294 15.294 0 0 1-2.541-1.582 13.544 13.544 0 0 1-2.031-1.95c-.298-.339-.528-.702-.777-1.054l-.307-.538c-.105-.179-.175-.354-.265-.535-.319-.714-.524-1.42-.578-2.084-.08-1.325.35-2.517 1.314-3.302a5.133 5.133 0 0 1 1.729-.911c.676-.198 1.447-.286 2.259-.271 1.617.007 3.447.534 5.167 1.376.86.433 1.678.972 2.43 1.565.753.594 1.457 1.256 2.014 1.977 1.187 1.423 1.89 3.019 2.037 4.527l.004.008c.023.259.32.543.666.628.287.07.52-.023.566-.215Z"/><path fill="#fff" fill-opacity=".1" d="M205.17 44.199C127.698 40.797 57.453 78.978 32.014 98.493c151.707-67.77 290.617-28.237 341.109 0-59.202-45.529-136.636-55.166-167.953-54.294Z"/><defs><linearGradient id="b" x1="202.276" x2="202.276" y1="43.986" y2="515.209" gradientUnits="userSpaceOnUse"><stop stop-color="#361953"/><stop offset="1" stop-color="#361953" stop-opacity="0"/></linearGradient><filter id="a" width="608.551" height="538.806" x="-102" y=".194" color-interpolation-filters="sRGB" filterUnits="userSpaceOnUse"><feFlood flood-opacity="0" result="BackgroundImageFix"/><feColorMatrix in="SourceAlpha" result="hardAlpha" values="0 0 0 0 0 0 0 0 0 0 0 0 0 0 0 0 0 0 127 0"/><feOffset dy="-10"/><feGaussianBlur stdDeviation="12.5"/><feComposite in2="hardAlpha" operator="out"/><feColorMatrix values="0 0 0 0 1 0 0 0 0 1 0 0 0 0 1 0 0 0 0.05 0"/><feBlend in2="BackgroundImageFix" result="effect1_dropShadow_450_37200"/><feBlend in="SourceGraphic" in2="effect1_dropShadow_450_37200" result="shape"/></filter></defs></svg>