<svg xmlns="http://www.w3.org/2000/svg" width="227" height="233"><g fill="none" fill-rule="nonzero" style="mix-blend-mode:hard-light"><path fill="#7B339C" d="M18.186 176.233c30.83 53.187 98.573 69.562 151.326 36.577a115.593 115.593 0 0 0 24.198-20.19c3.032-3.33 5.85-6.818 8.452-10.431 25.932-36.061 30.2-85.43 7.034-125.378-10.882-18.762-26.34-32.944-44.13-41.993C132.437-1.784 92.02-1.12 57.876 20.221a115.536 115.536 0 0 0-27.765 24.292C-.086 80.96-6.364 133.887 18.186 176.233Z"/><path fill="#371A45" d="M17.871 176.579c30.67 53.05 98.068 69.363 150.556 36.441a115.173 115.173 0 0 0 24.078-20.15 114.398 114.398 0 0 0 5.101-6.011c-30.997 12.647-64.676 11.594-93.519-1.331l.7-.224c2.472-2.644 4.243-5.928 4.96-9.625 2.123-10.793-1.378-21.121-17.855-24.091-9.394-1.692-18.482 2.351-23.052 9.499-7.058-7.119-13.34-15.297-18.632-24.459-.284-.48-.548-.966-.813-1.452 4.64-4.918 7.017-12.66 5.734-20.704-1.824-11.46-10.434-19.514-19.753-18.957-3.503-20.431-1.88-41.4 4.375-61.006a117.21 117.21 0 0 0-9.988 10.636C-.299 81.541-6.543 134.329 17.871 176.579Z" opacity=".35"/><path fill="#FFF" d="M28.775 43.068A118.172 118.172 0 0 1 46.65 29.301c38.37-24.056 84.555-22.307 119.135.568l-.007.013c-4.614 4.9-2.487 14.679 4.724 21.837 7.23 7.153 16.832 8.982 21.433 4.075.21-.227.425-.467.604-.728a108.204 108.204 0 0 1 7.522 11.37c24.928 43.113 18.516 96.981-12.197 134.045 39.257-36.761 49.85-97.342 22.39-144.844-31.248-54.05-99.926-70.691-153.424-37.143a116.844 116.844 0 0 0-28.055 24.574Z" opacity=".4"/><path fill="#371A45" d="M55.415 217.362c8.98 5.205 18.76 9.145 29.145 11.657 29.263 7.07 59.746 1.979 85.863-14.34 53.91-33.694 72.14-105.328 40.635-159.688C179.565.638 110.082-16.163 56.166 17.544 30.05 33.862 11.445 59.474 3.767 89.624c-7.684 30.162-3.5 61.269 11.752 87.602 9.85 16.982 23.56 30.666 39.896 40.136ZM168.49 19.574c15.266 8.85 28.495 21.722 38.06 38.223 30.052 51.856 12.663 120.188-38.762 152.329-24.909 15.572-54 20.439-81.91 13.688-27.91-6.752-51.288-24.294-65.854-49.414-14.555-25.114-18.546-54.795-11.22-83.569 7.326-28.774 25.078-53.2 49.987-68.772C93.843.162 135.806.628 168.491 19.574Z"/><path fill="#371A45" d="M72.137 155.142a21.22 21.22 0 0 0-2.914 2.397 20.31 20.31 0 0 0-2.442 2.971 19.255 19.255 0 0 0-1.832 3.441 32.241 32.241 0 0 0-1.244 3.616c-.67 2.469-1.015 5.094-.838 7.756.197 2.656.968 5.314 2.273 7.649 1.305 2.336 3.116 4.317 5.13 5.884 2.001 1.593 4.207 2.822 6.446 3.855 1.147.483 2.252.925 3.45 1.319 1.2.415 2.442.703 3.7.934 1.258.231 2.53.354 3.82.387 1.29.034 2.58-.015 3.854-.206 2.567-.356 5.102-1.079 7.48-2.226 2.37-1.134 4.607-2.679 6.466-4.625 3.782-3.838 6.084-9.2 6.136-14.537.14-5.353-1.867-10.439-5.028-14.283-3.174-3.852-7.495-6.557-12.128-7.732-.417-.109-.84.159-.959.59a.781.781 0 0 0 .43.93c4.107 1.818 7.643 4.666 10.052 8.29 2.43 3.587 3.665 7.926 3.336 12.122-.34 4.189-2.219 8.218-5.239 11.053-2.99 2.869-6.963 4.685-11.08 5.156-2.057.219-4.137.226-6.185-.131a21.552 21.552 0 0 1-3.015-.736c-1.002-.315-2.048-.722-3.032-1.127-1.984-.835-3.87-1.813-5.534-3.043a16.637 16.637 0 0 1-4.167-4.378c-2.17-3.369-2.659-7.757-1.818-12.122.207-1.093.471-2.203.788-3.265.31-1.05.724-2.056 1.223-3.046.992-1.967 2.373-3.775 4-5.341l.006-.013c.39-.373.426-1 .06-1.395-.28-.378-.814-.422-1.195-.144Z"/><path fill="#FFF" d="M94.637 97.732c3.248 4.993 8.642 7.63 14.171 7.531a14.839 14.839 0 0 1-7.564-4.009c-6.065-5.99-6.115-15.994-.087-22.366 6.01-6.366 15.813-6.673 21.878-.683.358.357.685.713.997 1.093a17.027 17.027 0 0 0-.818-1.406c-5.152-7.926-15.73-9.916-23.623-4.44-7.888 5.496-10.106 16.353-4.954 24.28Z" opacity=".4"/><path fill="#371A45" d="M150.778 168.273c-11.053-6.408-14.706-20.92-8.158-32.413 6.547-11.494 20.816-15.617 31.87-9.21 11.053 6.408 14.705 20.919 8.158 32.413-6.548 11.494-20.817 15.617-31.87 9.21Z" opacity=".35"/><path fill="#FFF" d="M139.617 123.117c-11.989 10.711-13.482 29.135-3.32 41.144 10.16 12.008 28.105 13.047 40.101 2.323l.701-.641c-9.75 7.286-23.288 6.008-31.137-3.264-8.305-9.819-7.096-24.882 2.713-33.648 9.81-8.765 24.491-7.921 32.796 1.897a23.222 23.222 0 0 1 4.692 8.973c-.733-5.198-2.86-10.222-6.444-14.461-10.155-11.989-28.113-13.035-40.102-2.323Z" opacity=".4"/><path fill="#371A45" d="M186.617 140.759c-1.028-5.551-4.115-10.716-8.53-14.307-4.382-3.653-10.118-5.63-15.917-5.615-2.91.026-5.824.565-8.614 1.559l-1.04.395-.515.201-.505.239c-.667.329-1.339.638-1.989.993l-1.902 1.176c-.628.401-1.205.881-1.8 1.335-2.303 1.908-4.383 4.127-6.018 6.689-1.617 2.555-2.874 5.352-3.604 8.288-.772 2.928-1.002 5.971-.785 8.958.218 2.986.896 5.923 2.064 8.646 1.168 2.722 2.81 5.203 4.756 7.346.51.511.97 1.077 1.512 1.558l1.647 1.404c1.175.83 2.354 1.68 3.642 2.31 2.542 1.323 5.29 2.284 8.135 2.652 2.833.362 5.71.283 8.513-.287 5.611-1.089 10.731-4.291 14.351-8.595a.805.805 0 0 0-.066-1.119.766.766 0 0 0-1.02.023l-.008.013c-3.922 3.514-8.704 5.898-13.68 6.406-2.465.284-4.96.201-7.347-.3a22.509 22.509 0 0 1-6.727-2.652c-1.06-.581-1.995-1.355-2.93-2.098l-1.31-1.241c-.44-.405-.8-.896-1.208-1.332-1.542-1.841-2.824-3.915-3.707-6.156-1.688-4.504-2.117-9.591-.8-14.316.651-2.35 1.597-4.628 2.897-6.685 1.308-2.07 2.985-3.891 4.832-5.448 3.694-3.198 8.455-4.928 13.25-5.259 2.411-.133 4.83.171 7.148.817 2.32.646 4.576 1.654 6.56 3.087 4.087 2.735 7.196 6.964 8.877 11.847a.945.945 0 0 0 1.235.583c.424-.154.69-.649.603-1.115ZM42.344 96.027a18.087 18.087 0 0 0-3.33-1.115 17.908 17.908 0 0 0-3.561-.369c-2.42.01-4.868.602-7.123 1.672-2.251 1.089-4.274 2.676-5.967 4.554-1.688 1.897-3.003 4.094-3.958 6.416-.975 2.328-1.577 4.788-1.844 7.277a31.558 31.558 0 0 0 .166 7.428c.437 2.431 1.097 4.809 2.066 7.066 1.006 2.246 2.252 4.381 3.807 6.28a24.546 24.546 0 0 0 5.492 4.897c2.07 1.333 4.386 2.376 6.88 2.824 2.48.474 5.069.446 7.553-.126a17.669 17.669 0 0 0 6.877-3.261c4.075-3.141 6.653-7.78 7.74-12.521.508-2.381.732-4.795.616-7.173-.148-2.38-.625-4.685-1.322-6.884a.767.767 0 0 0-.985-.488.826.826 0 0 0-.525.893l-.002.032c.323 2.182.44 4.362.335 6.511-.187 2.153-.558 4.265-1.23 6.286-1.317 4.024-3.813 7.565-7.03 9.789-3.259 2.184-7.24 2.886-10.905 2.024-3.677-.869-7.003-3.196-9.473-6.241-1.204-1.562-2.268-3.259-3.097-5.087-.803-1.845-1.367-3.802-1.747-5.801-.33-2.003-.463-4.042-.333-6.094.154-2.039.593-4.045 1.246-5.978.19-.472.33-.972.555-1.423l.652-1.368.771-1.299c.25-.437.587-.806.873-1.223 1.217-1.605 2.7-2.973 4.422-4.003 3.4-2.152 7.685-2.659 11.732-1.626l.012.007c.516.133 1.051-.189 1.194-.721.103-.489-.132-.975-.557-1.155Z"/><path fill="#371A45" d="M104.118 103.474c-7.329-4.249-9.75-13.871-5.41-21.492 4.342-7.621 13.803-10.355 21.132-6.106 7.33 4.248 9.751 13.87 5.41 21.491-4.342 7.621-13.803 10.355-21.132 6.107Z" opacity=".35"/><path fill="#371A45" d="M118.393 104.801c3.316-1.303 6.224-3.94 8.024-7.268.928-1.657 1.531-3.502 1.868-5.384.313-1.897.336-3.846.031-5.751-.625-3.787-2.518-7.395-5.412-9.921-1.444-1.253-3.053-2.302-4.834-3.019-1.777-.697-3.679-1.118-5.6-1.169-3.84-.164-7.716 1.113-10.864 3.412-1.574 1.165-2.925 2.609-4.035 4.193-1.129 1.59-1.94 3.38-2.47 5.235-.529 1.855-.794 3.779-.687 5.669.125 1.885.51 3.737 1.203 5.436 1.356 3.43 3.94 6.191 7.005 7.769a.784.784 0 0 0 1.05-.356c.173-.332.09-.746-.17-.963l-.025-.014c-2.352-2.045-4.089-4.665-4.78-7.576a14.652 14.652 0 0 1-.439-4.394c.102-1.47.396-2.913.91-4.261.227-.682.59-1.32.91-1.966l.582-.909c.19-.305.421-.571.635-.862.89-1.113 1.915-2.099 3.063-2.879 2.325-1.528 5.078-2.376 7.786-2.219 1.344.081 2.683.341 3.943.823a12.72 12.72 0 0 1 3.47 2.077c2.111 1.707 3.551 4.204 4.268 6.931.335 1.375.422 2.822.322 4.26-.099 1.438-.388 2.9-.977 4.271-1.05 2.799-3.055 5.278-5.63 7.077l-.007.012a1.018 1.018 0 0 0-.278 1.385.952.952 0 0 0 1.138.361Z"/><g opacity=".3"><path fill="#FFF" d="M58.944 46.962c.52 3.283 2.994 5.196 6.321 5.42-1.494-.48-2.696-1.442-3.38-2.887-1.918-4.041.93-10.293 6.37-13.964 5.421-3.666 11.39-3.366 13.307.675.11.23.205.485.288.733a9.206 9.206 0 0 0-.087-.916c-.819-5.206-6.583-6.987-12.876-3.96-6.306 3.02-10.76 9.694-9.943 14.899Z"/><path fill="#371A45" d="M61.736 51.675c.977.566 2.158.916 3.49 1.003l2.4.155-2.29-.742c-1.48-.472-2.583-1.41-3.206-2.736-1.85-3.902.953-9.992 6.244-13.579 3.162-2.135 6.661-2.977 9.355-2.268 1.634.428 2.852 1.416 3.526 2.822.098.223.195.446.28.694l.635 2.034-.076-2.143a7.338 7.338 0 0 0-.097-.956c-.339-2.161-1.474-3.8-3.32-4.785-2.628-1.386-6.253-1.168-9.949.61-6.39 3.066-10.935 9.899-10.1 15.212.343 2.098 1.442 3.716 3.108 4.679Zm1.58.047c-2.243-.713-3.737-2.427-4.11-4.808-.796-5.074 3.583-11.62 9.765-14.573 3.533-1.688 6.97-1.916 9.441-.62 1.405.746 2.347 1.907 2.808 3.406-.786-1.07-1.92-1.81-3.325-2.19-2.854-.767-6.525.124-9.83 2.343-5.542 3.742-8.445 10.175-6.468 14.333a5.875 5.875 0 0 0 1.718 2.109Z"/></g><path fill="#371A45" d="M68.185 35.518c-5.433 3.67-8.278 9.918-6.35 13.964 1.914 4.039 7.867 4.351 13.29.675 5.432-3.669 8.277-9.917 6.35-13.963-1.928-4.046-7.876-4.34-13.29-.676Z" opacity=".35"/><path fill="#FFF" d="M58.473 46.858c.84 1.768 2.381 2.893 4.308 3.373-.056-.099-.117-.217-.173-.316-1.917-4.041.932-10.293 6.364-13.951 4.557-3.082 9.471-3.358 12.071-.989-.023-1.03-.243-2.023-.659-2.897-2.137-4.5-8.774-4.838-14.833-.758-6.039 4.074-9.207 11.025-7.078 15.538Z" opacity=".4"/><path fill="#371A45" d="M71.477 52.958c2.287-.441 4.458-1.548 6.36-3.027 1.91-1.492 3.573-3.425 4.684-5.794.565-1.188.988-2.491 1.137-3.903.148-1.412.024-2.966-.582-4.432a7.669 7.669 0 0 0-3.006-3.554c-1.316-.812-2.774-1.207-4.154-1.29-2.778-.16-5.303.642-7.512 1.844-2.22 1.195-4.104 2.868-5.65 4.819-1.522 1.965-2.667 4.282-3.093 6.799-.188 1.256-.205 2.578.146 3.846.326 1.254 1.022 2.423 1.99 3.199.345.267.832.199 1.114-.154a.818.818 0 0 0 .07-.908l-.03-.034c-.934-1.622-.81-3.498-.132-5.22.33-.858.776-1.698 1.301-2.476a16.135 16.135 0 0 1 1.83-2.17 16.642 16.642 0 0 1 4.567-3.199c1.64-.765 3.39-1.166 4.873-1.04 1.515.127 2.494.744 2.975 1.755.512 1.012.495 2.7-.104 4.368-.562 1.688-1.586 3.343-2.868 4.831-1.253 1.522-2.815 2.798-4.558 3.887l-.026.018a1.021 1.021 0 0 0-.353 1.377.986.986 0 0 0 1.021.458Z"/><path fill="#FFF" d="M134.698 50.438c2.493 3.841 6.651 5.863 10.898 5.788a11.302 11.302 0 0 1-5.816-3.081c-4.674-4.602-4.697-12.293-.07-17.193 4.62-4.889 12.154-5.127 16.828-.524.276.276.532.558.77.845-.195-.362-.4-.732-.634-1.083-3.968-6.092-12.094-7.629-18.16-3.411-6.067 4.217-7.785 12.567-3.816 18.659Z" opacity=".4"/><path fill="#371A45" d="M142.003 54.853c-5.636-3.267-7.499-10.667-4.16-16.528 3.34-5.86 10.614-7.963 16.251-4.696 5.636 3.267 7.498 10.667 4.16 16.528-3.339 5.86-10.615 7.963-16.25 4.696Z" opacity=".35"/><path fill="#371A45" d="M153.092 56.07c2.64-.93 4.971-3.003 6.451-5.602 1.495-2.624 2.086-5.823 1.617-8.871-.477-3.036-1.988-5.94-4.296-7.977-1.156-1.002-2.44-1.863-3.876-2.43-1.423-.56-2.956-.9-4.497-.944-3.09-.13-6.199.894-8.716 2.759-1.253.936-2.334 2.105-3.223 3.385-.9 1.273-1.545 2.712-1.96 4.2-.397 1.482-.592 3.031-.484 4.524.11 1.493.438 2.964 1.014 4.311 1.12 2.694 3.2 4.848 5.633 5.993a.77.77 0 0 0 1.04-.394.811.811 0 0 0-.177-.951l-.012-.007c-3.549-3.172-4.602-8.254-2.93-12.172.756-1.972 2.177-3.626 3.831-4.761 1.687-1.083 3.673-1.678 5.64-1.568a9.866 9.866 0 0 1 2.84.6 9.46 9.46 0 0 1 2.51 1.487c1.54 1.226 2.603 3.006 3.141 4.98.25.993.351 2.05.297 3.099a9.615 9.615 0 0 1-.644 3.151c-.714 2.096-2.15 3.973-4.045 5.418l-.019.005a1.04 1.04 0 0 0-.223 1.401c.25.377.691.5 1.088.364Z"/><path fill="#7B339C" d="M199.594 76.269c2.023-2.502 1.342-9.161-2.695-14.241s-9.475-6.237-11.92-4.163"/><path fill="#371A45" d="M200.291 76.841c.61-.541 1.03-1.225 1.337-1.908.315-.695.483-1.41.608-2.134.235-1.421.184-2.844-.007-4.214a17.459 17.459 0 0 0-3.135-7.524c-1.6-2.191-3.74-4.048-6.353-5.101-1.3-.508-2.72-.835-4.199-.749-.743.049-1.505.186-2.227.479-.359.156-.72.345-1.052.566a4.893 4.893 0 0 0-.896.822c-.36.438-.31 1.079.113 1.425.282.23.632.285.958.159l.16-.056c.848-.32 1.753-.291 2.688-.062a9.712 9.712 0 0 1 2.692 1.165c1.723 1.052 3.237 2.528 4.52 4.218a20.356 20.356 0 0 1 2.982 5.662c.34 1.026.602 2.074.715 3.135.121 1.048.098 2.095-.224 2.97l-.053.151c-.176.478.06 1.013.521 1.181a.869.869 0 0 0 .852-.185Z"/><path fill="#371A45" d="M197.208 63.479c3.953 5.859 4.896 12.302 2.105 14.391-2.79 2.09-8.257-.965-12.21-6.823-3.953-5.858-4.896-12.302-2.106-14.391 2.79-2.09 8.257.965 12.211 6.823Z" opacity=".35"/></g></svg>