<svg xmlns="http://www.w3.org/2000/svg" width="115" height="81" fill="none"><g opacity=".7" style="mix-blend-mode:color-dodge"><path fill="#2695B8" d="M94.403 43.713a39.407 39.407 0 0 1-.732 4.752 38.924 38.924 0 0 1-1.99 6.432c-3.662 9.024-10.67 16.716-20.257 21.042-9.61 4.338-20.05 4.507-29.271 1.266a39.271 39.271 0 0 1-5.876-2.619 39.15 39.15 0 0 1-4.275-2.706c9.653-2.422 20.81-6.328 32.354-11.544C75.9 55.132 86.204 49.35 94.403 43.713Z"/><path fill="#065E7A" d="M64.354 60.342c11.544-5.21 21.853-10.993 30.052-16.63a39.406 39.406 0 0 1-.732 4.753c-6.308 4.572-16.388 10.224-28.129 15.521-11.243 5.074-21.722 8.8-29.27 10.606A39.165 39.165 0 0 1 32 71.886c9.653-2.422 20.81-6.334 32.354-11.544Z"/><path fill="#2695B8" d="M92.805 28.545c-6.4 5.166-19.05 12.4-34.152 19.22-15.108 6.82-28.9 11.523-37.017 12.908a41.321 41.321 0 0 1-2.295-4.331l-.099-.213a39.883 39.883 0 0 1-2.317-6.782c-.017-.065-.033-.13-.044-.196a38.944 38.944 0 0 1-1.006-7.18 39.187 39.187 0 0 1 1.7-13.35 39.7 39.7 0 0 1 4.122-9.1 37.965 37.965 0 0 1 2.667-3.797A39.173 39.173 0 0 1 38.974 4.36a45.673 45.673 0 0 1 2.226-.927C51.208-.375 61.922.17 71.12 4.229c.055.027.115.05.175.077a34.42 34.42 0 0 1 2.547 1.254 39.102 39.102 0 0 1 13.195 11.49c.12.158.23.322.345.48a38.156 38.156 0 0 1 2.607 4.266c.295.557.574 1.119.842 1.692.07.158.147.316.218.474a38.115 38.115 0 0 1 1.755 4.583Z"/><path fill="#065E7A" d="M90.846 23.492a39.617 39.617 0 0 1 1.962 5.052c-6.4 5.167-19.049 12.4-34.152 19.22-15.103 6.82-28.899 11.523-37.016 12.903a39.334 39.334 0 0 1-2.389-4.545c7.697-.85 21.739-5.395 37.137-12.346 16.005-7.223 29.096-15.068 34.458-20.284ZM16.407 42.885c-.202 0-.394-.006-.574-.017l.093-1.8c5.428.278 19.536-4.185 34.316-10.857 15.573-7.027 28.702-15.063 31.228-19.105l1.536.954C80.273 16.441 67.11 24.58 50.99 31.86c-14.775 6.667-28.484 11.026-34.584 11.026ZM17.717 29.513l-.267-1.784c6.067-.9 16.573-4.495 27.412-9.39C56.221 13.213 66.059 7.55 70.536 3.562l1.203 1.342c-4.603 4.102-14.617 9.88-26.134 15.08-10.981 4.958-21.667 8.608-27.888 9.53ZM16.947 50.052h-.066l.011-1.8h.06c6.243 0 20.771-4.665 36.191-11.626 16.234-7.327 29.878-15.592 33.174-20.099l1.46 1.064c-3.515 4.807-17.137 13.116-33.89 20.677-15.633 7.054-30.457 11.784-36.94 11.784ZM42.18 77.657l-.033-.448-.17-.42.066-.027.07-.005c5.347-.388 15.525-3.667 25.927-8.364 10.462-4.72 19.399-10.017 23.323-13.825l.629.65c-3.996 3.873-13.031 9.236-23.58 13.999-10.649 4.812-20.7 8.041-26.233 8.44Z"/><path fill="#371A45" d="M55.23 80.29a40.388 40.388 0 0 1-23.745-7.703l-1.509-1.096 1.81-.453c9.948-2.499 21.087-6.47 32.211-11.49 11.124-5.019 21.465-10.742 29.916-16.552l1.536-1.059-.17 1.855c-1.322 14.376-10.325 27-23.493 32.942A40.244 40.244 0 0 1 55.23 80.29Zm-21.16-8.04c10.976 7.184 24.975 8.319 36.995 2.89 12.02-5.428 20.41-16.672 22.252-29.64-8.226 5.494-18.07 10.879-28.598 15.63-10.534 4.758-21.083 8.582-30.649 11.12Z"/><path fill="#2695B8" d="M113.708 19.85c2.378 5.242-5.455 14.342-19.3 23.862-8.2 5.636-18.508 11.414-30.053 16.63-11.55 5.21-22.706 9.121-32.36 11.543-16.305 4.092-28.324 3.95-30.697-1.293-2.159-4.762 4.1-12.7 15.633-21.25.388 1.605.88 3.198 1.487 4.774-3.187 2.603-4.76 4.665-4.214 5.87.557 1.228 3.236 1.397 7.434.683 8.117-1.386 21.908-6.089 37.016-12.903 15.108-6.82 27.751-14.054 34.152-19.22 3.313-2.674 4.952-4.796 4.395-6.023-.547-1.2-3.138-1.392-7.199-.72a39.325 39.325 0 0 0-2.607-4.267c14.048-3 24.154-2.444 26.313 2.313Z"/><path fill="#065E7A" d="M16.05 64.795c-2.99 0-5.264-.617-6.008-2.264-1.071-2.363 1.405-5.947 7.352-10.655l.842 1.058c-5.095 4.032-7.696 7.409-6.958 9.035.88 1.947 7.351 2.575 22.695-2.052 7.87-2.378 16.775-5.772 25.745-9.825 8.97-4.048 17.399-8.478 24.39-12.805 13.616-8.44 17.415-13.704 16.535-15.652-.738-1.626-4.996-1.91-11.392-.753l-.24-1.331c7.467-1.348 11.796-.835 12.867 1.527 2.088 4.61-9.79 12.854-17.054 17.36-7.04 4.36-15.53 8.817-24.548 12.892-9.025 4.07-17.984 7.49-25.91 9.886-5.264 1.587-12.943 3.579-18.317 3.579Z"/><path fill="#065E7A" d="M13.991 70.09c-4.864 0-7.97-1.118-8.98-3.35-2.094-4.626 5.307-11.533 11.888-16.514l.82 1.075C9.225 57.728 4.934 63.293 6.246 66.184c1.65 3.639 11.785 3.404 26.45-.622 8.965-2.46 19.05-6.17 29.162-10.737C71.97 50.26 81.42 45.153 89.194 40.057c12.714-8.336 19.585-15.772 17.934-19.411-1.312-2.892-8.325-3.35-18.776-1.228l-.268-1.325c8.096-1.643 18.18-2.63 20.279 1.996 2.001 4.42-4.711 12.112-18.426 21.103-7.833 5.133-17.35 10.278-27.521 14.866-10.178 4.594-20.329 8.331-29.364 10.808-7.833 2.15-14.294 3.224-19.06 3.224Z"/><path fill="#371A45" d="M12.741 75.638c-6.576 0-10.828-1.571-12.239-4.686-2.3-5.08 3.351-13.001 15.912-22.308l1.06-.786.312 1.282c.383 1.577.87 3.148 1.454 4.67l.224.59-.486.398c-4.45 3.628-3.99 4.79-3.969 4.833.022.05.607 1.184 6.489.18 8.286-1.413 22.389-6.334 36.803-12.842 14.409-6.503 27.423-13.825 33.96-19.106 4.636-3.742 4.171-4.932 4.15-4.981-.022-.05-.59-1.151-6.26-.218l-.622.103-.295-.556a38.744 38.744 0 0 0-2.553-4.174l-.76-1.08 1.29-.278c15.3-3.268 24.991-2.27 27.292 2.81 2.52 5.559-4.63 14.648-19.601 24.943-8.533 5.865-18.973 11.642-30.19 16.705-11.216 5.063-22.454 9.073-32.5 11.593-7.746 1.942-14.322 2.908-19.471 2.908Zm3.673-24.812C5.62 59.02.278 66.233 2.094 70.237c2.07 4.572 13.446 4.883 29.685.802 9.949-2.499 21.089-6.47 32.212-11.49 11.124-5.019 21.465-10.742 29.916-16.552 13.791-9.482 21.072-18.21 19-22.783-1.815-4.004-10.768-4.763-24.062-2.084.58.884 1.126 1.795 1.63 2.717 4.416-.66 6.81-.24 7.515 1.32.749 1.653-.727 3.896-4.64 7.06-6.746 5.445-19.586 12.673-34.344 19.335-14.758 6.661-28.675 11.511-37.23 12.968-4.968.846-7.63.469-8.379-1.184-.705-1.555.557-3.633 3.974-6.509a47.048 47.048 0 0 1-.957-3.011Z"/><path fill="#371A45" d="M94.403 43.713a39.407 39.407 0 0 1-.732 4.752 38.924 38.924 0 0 1-1.99 6.432c-3.662 9.024-10.67 16.716-20.257 21.042-9.61 4.338-20.05 4.507-29.271 1.266a39.271 39.271 0 0 1-5.876-2.619 39.15 39.15 0 0 1-4.275-2.706c9.653-2.422 20.81-6.328 32.354-11.544C75.9 55.132 86.204 49.35 94.403 43.713Z" opacity=".35" style="mix-blend-mode:multiply"/><path fill="#fff" d="M92.81 28.545a58.14 58.14 0 0 1-2.482 1.882 39.797 39.797 0 0 0-1.24-3.077c-.072-.158-.148-.316-.22-.469a39.345 39.345 0 0 0-3.793-6.438 38.81 38.81 0 0 0-4.816-5.472 39.321 39.321 0 0 0-11.101-7.354c-9.888-4.364-21.52-4.67-32.146.131A39.13 39.13 0 0 0 20.28 22.053 39.172 39.172 0 0 1 38.996 4.36C49.622-.435 61.254-.135 71.142 4.23a39.4 39.4 0 0 1 11.102 7.353 38.806 38.806 0 0 1 7.767 10.219 37.37 37.37 0 0 1 1.06 2.166 40.5 40.5 0 0 1 1.739 4.577Z" opacity=".41"/><path fill="#371A45" d="m21.204 61.629-.312-.502a40.686 40.686 0 0 1-3.29-6.694 40.305 40.305 0 0 1-1.52-4.877C11.55 30.854 21.034 11.513 38.624 3.57 56.22-4.374 77.03 1.295 88.11 17.04a40.434 40.434 0 0 1 3.75 6.569 41.167 41.167 0 0 1 1.781 4.68l.175.568-.459.37c-6.745 5.445-19.585 12.674-34.343 19.336-14.759 6.661-28.675 11.511-37.23 12.968l-.58.098ZM55.192 1.742a38.431 38.431 0 0 0-15.84 3.415c-16.831 7.595-25.9 26.095-21.565 43.984.383 1.577.87 3.148 1.454 4.665a38.835 38.835 0 0 0 2.848 5.898c8.358-1.54 22.138-6.384 36.213-12.734 14.075-6.356 26.822-13.487 33.496-18.73a38.352 38.352 0 0 0-2.563-6.023 38.744 38.744 0 0 0-2.553-4.173C79.302 7.552 67.414 1.742 55.192 1.742Z"/><path fill="#371A45" d="M113.389 25.098c-2.171 5.133-9.02 11.767-18.984 18.614-8.2 5.636-18.508 11.413-30.053 16.63-11.544 5.21-22.706 9.121-32.359 11.543-16.305 4.092-28.325 3.95-30.698-1.293-1.443-3.18.875-7.785 6.019-13.039-.848 2.003-.984 3.776-.317 5.249 2.377 5.242 14.397 5.384 30.697 1.293 9.653-2.423 20.81-6.329 32.36-11.544 11.544-5.216 21.853-10.994 30.052-16.63 5.444-3.742 9.954-7.419 13.283-10.823Z" opacity=".35"/></g></svg>