<svg xmlns="http://www.w3.org/2000/svg" width="1003" height="1027" fill="none"><g filter="url(#a)"><ellipse cx="501.5" cy="523.5" fill="#0F0422" rx="476.5" ry="488.5"/></g><ellipse cx="501.5" cy="523.5" fill="url(#b)" rx="457.5" ry="470.928"/><ellipse fill="#3E166E" rx="51.636" ry="44.174" transform="matrix(.0703 .99753 -.99536 .09626 675.116 263.885)"/><ellipse cx="674.88" cy="278.811" fill="#1E0C3F" rx="44.119" ry="51.683"/><path fill="#0E0712" d="M681.13 328.457c9.571-.909 19.071-6.227 26.206-14.653 3.633-4.165 6.563-9.197 8.831-14.586a63.462 63.462 0 0 0 4.333-17.377c1.179-12.032-1.068-24.684-6.712-34.975-2.822-5.114-6.222-9.76-10.317-13.561-4.096-3.737-8.723-6.752-13.674-8.662-9.844-4.01-20.852-3.692-30.722.383-4.95 2.085-9.524 5.222-13.578 9-4.107 3.778-7.538 8.453-10.283 13.582-2.744 5.129-4.855 10.711-5.978 16.529-1.068 5.819-1.441 11.775-.895 17.554.983 11.619 5.647 22.34 12.439 29.92.863.932 2.208.888 2.988-.116.695-.846.784-2.176.27-3.071l-.052-.064c-4.593-8.342-7.165-17.86-6.807-27.304.124-4.69.812-9.342 2.111-13.699 1.352-4.356 3.182-8.452 5.51-12.065 1.098-1.855 2.511-3.451 3.819-5.113l2.184-2.22c.719-.751 1.514-1.342 2.286-2.028 3.133-2.555 6.522-4.599 10.08-5.912 7.166-2.497 14.939-2.544 21.853.409 3.43 1.476 6.711 3.489 9.627 6.1 2.889 2.641 5.412 5.88 7.468 9.461 4.223 7.099 6.112 15.973 5.957 24.881-.145 4.468-.99 8.927-2.313 13.189-1.323 4.261-3.154 8.42-5.697 12.03-4.798 7.509-11.832 13.179-19.848 16.267l-.027.031c-1.386.519-2.185 2.283-1.745 3.938.367 1.369 1.5 2.242 2.686 2.132Z"/><ellipse fill="#1E0C3F" rx="106.459" ry="101.113" transform="matrix(.51904 -.85475 .76822 .64019 202.204 606.067)"/><path fill="#0E0712" d="M284.647 655.356c10.622-20.879 14.528-47.132 10.799-72.403-1.709-12.71-5.601-25.055-10.861-36.481-5.422-11.4-12.375-21.854-20.69-30.701-16.607-17.502-38.436-28.715-60.971-29.963-11.221-.583-22.463.61-33.303 4.295-10.747 3.769-21.073 9.534-30.146 17.355-18.356 15.282-31.665 38.383-37.902 63.845-3.066 12.82-4.08 26.183-3.478 39.276.533 13.202 3.262 26.136 7.533 38.22 4.271 12.084 10.016 23.43 17.355 33.031 7.407 9.492 15.891 17.721 25.26 23.832 18.694 12.525 40.649 16.332 60.548 11.819 2.481-.612 4.101-3.443 3.569-6.308-.401-2.493-2.29-4.343-4.279-4.403l-.162.027c-18.289-.975-35.814-7.591-49.56-20.157-6.894-6.132-13.023-13.376-17.945-21.512-4.853-8.246-8.717-17.149-11.232-26.475-1.413-4.588-2.042-9.504-2.901-14.283l-.602-7.284c-.227-2.423-.119-4.804-.185-7.255.084-9.663 1.257-19.212 3.74-28.194 5.222-17.907 14.888-33.999 27.986-44.561 6.514-5.226 13.649-9.472 21.225-12.217 7.587-2.649 15.615-3.796 23.572-3.553 15.959.183 31.662 7.4 44.855 18.877 6.535 5.897 12.178 13.222 16.926 21.288 4.748 8.067 8.705 17.053 10.946 26.819 5.277 19.3 4.987 40.911-.411 61.31l.012.096c-.955 3.507.695 7.366 3.734 8.531 2.517.957 5.247-.287 6.568-2.871Z"/><ellipse fill="#1E0C3F" rx="118.656" ry="108.888" transform="matrix(.41981 -.90761 .84427 .53592 648.209 665.275)"/><path fill="#0E0712" d="M743.573 706.074c9.19-24.39 10.458-53.582 3.524-80.513-3.306-13.571-8.947-26.404-15.973-38.024-7.199-11.565-15.958-21.862-26.017-30.197-20.07-16.464-45.111-25.265-69.789-23.108-12.283 1.117-24.387 4.17-35.77 9.874-11.272 5.78-21.859 13.668-30.847 23.598-18.247 19.503-30.111 46.731-34.006 75.426-1.88 14.436-1.466 29.144.679 43.304 2.082 14.291 6.523 27.946 12.547 40.437 6.025 12.49 13.57 23.946 22.652 33.254 9.143 9.178 19.316 16.813 30.211 22.005 21.778 10.719 46.114 11.438 67.266 3.419 2.632-1.053 4.073-4.388 3.168-7.424-.721-2.652-2.987-4.371-5.159-4.127l-.173.055c-20.024 1.793-39.857-2.676-56.251-14.212-8.204-5.6-15.7-12.531-21.984-20.62-6.221-8.22-11.441-17.311-15.239-27.073-2.06-4.774-3.304-10.028-4.783-15.097l-1.483-7.836c-.523-2.603-.676-5.213-1.027-7.87-1.006-10.534-.816-21.114.867-31.28 3.649-20.312 12.342-39.34 25.402-52.882 6.498-6.707 13.784-12.444 21.719-16.615 7.96-4.067 16.569-6.569 25.26-7.546 17.396-2.29 35.314 3.116 50.983 13.553 7.784 5.4 14.762 12.495 20.848 20.536 6.087 8.042 11.417 17.208 14.967 27.491 7.94 20.19 10.082 43.763 6.524 66.814l.024.104c-.641 3.967 1.594 7.911 5.035 8.705 2.85.65 5.681-1.132 6.825-4.151Z"/><ellipse fill="#1E0C3F" rx="41.559" ry="43.58" transform="matrix(-.75916 .6509 -.52987 -.84808 412.075 853.439)"/><path fill="#0E0712" d="M385.425 821.769c-6.439 6.518-10.856 16.145-12.193 26.546-.738 5.206-.585 10.6.201 15.845.853 5.258 2.405 10.38 4.666 15.083 4.532 9.327 11.791 16.997 20.425 20.896 4.304 1.926 8.811 3.164 13.437 3.371 4.599.161 9.254-.52 13.649-2.19 8.831-3.168 16.561-10.144 21.798-19.11 2.608-4.526 4.478-9.574 5.688-14.761 1.249-5.22 1.615-10.667 1.286-16.018-.329-5.35-1.314-10.636-3.11-15.485-1.836-4.816-4.23-9.304-7.203-13.102-5.894-7.706-14.02-12.512-22.263-13.769-1.033-.138-1.976.719-2.085 1.915-.119 1.031.412 2.037 1.179 2.361l.066.014c7.012 3.15 13.103 8.379 17.067 15.352 2.007 3.43 3.593 7.178 4.611 11.09.979 3.945 1.5 7.995 1.45 12.006.043 2-.254 4.009-.447 5.999l-.57 2.926c-.178.978-.483 1.888-.728 2.852-1.099 3.749-2.609 7.288-4.567 10.408-4.009 6.179-9.547 10.979-15.81 13.107-3.113 1.047-6.359 1.62-9.61 1.541-3.246-.118-6.497-.887-9.568-2.187-6.191-2.488-11.507-7.675-15.376-14.141-1.892-3.284-3.281-6.99-4.239-10.849-.958-3.859-1.506-7.956-1.301-12.096.076-8.312 2.574-16.68 6.926-23.802l.006-.039c.759-1.221.542-2.973-.512-3.887-.874-.753-2.074-.682-2.873.124Z"/><ellipse fill="#1E0C3F" rx="46.653" ry="90.872" transform="rotate(-179.885 445.283 258.229) skewX(.035)"/><path fill="#0E0712" d="M883.525 430.141c-10.124 1.575-20.184 10.902-27.753 25.702-3.853 7.314-6.966 16.154-9.379 25.624-2.358 9.584-3.961 19.912-4.631 30.543-1.281 21.153 1.058 43.404 6.997 61.511 2.97 8.998 6.552 17.175 10.871 23.867 4.321 6.58 9.205 11.892 14.435 15.263 10.398 7.073 22.039 6.54 32.488-.602 5.24-3.654 10.086-9.159 14.382-15.793 4.354-6.632 7.996-14.844 10.913-23.856 2.917-9.011 5.165-18.821 6.368-29.048 1.147-10.229 1.558-20.699.997-30.861-1.007-20.432-5.908-39.292-13.068-52.637-.91-1.641-2.333-1.566-3.16.196-.737 1.486-.835 3.825-.294 5.401l.055.113c4.833 14.677 7.525 31.417 7.12 48.021-.145 8.248-.886 16.424-2.271 24.082-1.443 7.656-3.389 14.853-5.861 21.2-1.166 3.259-2.666 6.063-4.054 8.982l-2.315 3.898c-.762 1.318-1.605 2.355-2.423 3.561-3.321 4.485-6.91 8.071-10.676 10.37-7.584 4.373-15.804 4.438-23.107-.771-3.623-2.603-7.087-6.15-10.163-10.746-3.047-4.652-5.705-10.352-7.87-16.653-4.444-12.493-6.417-28.099-6.228-43.761.167-7.857 1.072-15.694 2.483-23.184 1.412-7.49 3.36-14.798 6.059-21.139 5.095-13.192 12.55-23.145 21.034-28.554l.029-.055c1.467-.91 2.317-4.01 1.857-6.921-.385-2.407-1.581-3.944-2.835-3.753Z"/><ellipse cx="381.036" cy="363.283" fill="#1E0C3F" rx="76.865" ry="64.663"/><path fill="#0E0712" d="M391.926 425.398c16.675-1.137 33.225-7.79 45.656-18.333 6.33-5.211 11.435-11.506 15.385-18.249 3.859-6.823 6.473-14.175 7.549-21.741 2.054-15.054-1.86-30.883-11.693-43.759-4.918-6.398-10.841-12.211-17.975-16.966-7.137-4.675-15.197-8.448-23.824-10.838-17.15-5.016-36.328-4.619-53.524.48-8.624 2.609-16.593 6.533-23.655 11.26-7.156 4.727-13.134 10.576-17.916 16.993-4.781 6.417-8.459 13.401-10.415 20.68-1.861 7.28-2.511 14.732-1.559 21.962 1.712 14.537 9.839 27.95 21.671 37.435 1.503 1.166 3.848 1.11 5.206-.145 1.21-1.059 1.365-2.723.47-3.843l-.091-.081c-8.002-10.436-12.482-22.344-11.859-34.16.216-5.869 1.415-11.688 3.678-17.139 2.356-5.45 5.544-10.575 9.599-15.095 1.913-2.321 4.376-4.319 6.655-6.398l3.804-2.777c1.253-.939 2.639-1.679 3.983-2.538 5.459-3.196 11.363-5.754 17.561-7.396 12.485-3.124 26.028-3.183 38.074.512 5.976 1.847 11.693 4.365 16.773 7.631a56.255 56.255 0 0 1 13.01 11.837c7.357 8.883 10.649 19.985 10.378 31.13-.253 5.591-1.724 11.169-4.029 16.501-2.305 5.332-5.495 10.535-9.926 15.052-8.358 9.395-20.614 16.489-34.579 20.351l-.048.04c-2.414.649-3.807 2.856-3.04 4.927.64 1.713 2.614 2.804 4.681 2.667Z"/><ellipse fill="#3E166E" rx="33.638" ry="22.105" transform="matrix(-.60358 .80781 -.73357 -.65024 199.166 218.471)"/><ellipse fill="#1E0C3F" rx="22.005" ry="33.703" transform="matrix(.6585 .75258 -.63995 .76842 192.86 225.861)"/><path fill="#0E0712" d="M174.195 253.085c3.522 3.137 8.861 4.039 14.721 2.494 2.932-.723 5.994-2.144 8.987-3.994 3.004-1.901 5.949-4.283 8.675-7.081 5.409-5.587 9.951-12.77 12.392-20.045 1.207-3.622 2.029-7.227 2.27-10.668.214-3.41-.047-6.658-.876-9.473-1.56-5.705-5.307-9.678-10.25-11.34-2.496-.813-5.307-.959-8.215-.587-2.925.352-6.003 1.406-9.045 2.946a41.505 41.505 0 0 0-8.861 6.039c-2.78 2.515-5.388 5.359-7.62 8.46-4.526 6.191-7.468 13.314-8.401 19.662-.105.791.355 1.274 1.03 1.064.581-.163 1.166-.797 1.37-1.438l.01-.052c1.973-5.904 5.1-11.639 9.158-16.236 1.999-2.304 4.166-4.377 6.411-6.073 2.262-1.675 4.572-3.041 6.844-3.977 1.135-.518 2.266-.787 3.389-1.129l1.643-.293c.55-.106 1.058-.103 1.597-.158 2.096-.104 4.062.144 5.778.822 3.396 1.438 5.968 4.332 7.007 8.407.51 2.027.748 4.268.616 6.67-.154 2.408-.677 4.978-1.495 7.544-1.577 5.143-4.659 10.299-8.427 14.704a39.87 39.87 0 0 1-6.264 5.741c-2.213 1.639-4.55 3.036-6.892 3.89-4.709 1.962-9.386 2.162-13.307.701l-.022.005c-.671-.26-1.67.324-2.216 1.319-.451.824-.443 1.686-.007 2.076Z"/><ellipse fill="#3E166E" rx="19.031" ry="12.703" transform="matrix(.915 .38795 -.22287 .98888 769.772 176.608)"/><ellipse fill="#1E0C3F" rx="12.649" ry="19.067" transform="matrix(.33634 -.94174 .89794 .4401 774.694 179.095)"/><path fill="#0E0712" d="M791.743 185.469c.622-2.732-.223-6.16-2.327-9.455-1.029-1.657-2.414-3.265-3.98-4.752a30.99 30.99 0 0 0-5.339-3.991c-3.872-2.272-8.28-3.72-12.234-3.867-1.966-.068-3.833.095-5.487.584-1.633.499-3.078 1.258-4.188 2.285-2.277 2.007-3.234 5.031-2.835 8.357.213 1.675.811 3.419 1.672 5.127.855 1.722 2.073 3.408 3.508 4.982a28.466 28.466 0 0 0 4.899 4.298c1.824 1.233 3.761 2.301 5.728 3.091 3.944 1.622 7.946 2.103 11.112 1.5.392-.082.507-.452.25-.825-.214-.325-.646-.565-.992-.572l-.026.004a22.79 22.79 0 0 1-9.701-2.596 25.956 25.956 0 0 1-4.335-2.794c-1.313-1.072-2.493-2.231-3.466-3.447-.508-.597-.901-1.238-1.325-1.861l-.525-.95c-.179-.316-.298-.627-.451-.946-.545-1.261-.895-2.508-.987-3.682-.136-2.34.598-4.446 2.243-5.834a8.648 8.648 0 0 1 2.949-1.609c1.153-.351 2.47-.506 3.854-.48 2.759.013 5.881.944 8.817 2.432 1.466.765 2.862 1.717 4.146 2.766 1.284 1.049 2.486 2.219 3.436 3.491 2.025 2.515 3.225 5.335 3.475 8l.008.013c.038.458.545.96 1.136 1.11.489.123.887-.041.965-.379Z"/><path fill="#fff" fill-opacity=".1" d="M506.439 52.998c-132.183-6.8-252.036 69.514-295.439 108.52 258.842-135.454 495.851-56.439 582 0-101.012-91-233.129-110.264-286.561-108.52Z"/><defs><linearGradient id="b" x1="501.5" x2="501.5" y1="52.572" y2="994.428" gradientUnits="userSpaceOnUse"><stop stop-color="#361953"/><stop offset="1" stop-color="#361953" stop-opacity="0"/></linearGradient><filter id="a" width="1003" height="1027" x="0" y="0" color-interpolation-filters="sRGB" filterUnits="userSpaceOnUse"><feFlood flood-opacity="0" result="BackgroundImageFix"/><feColorMatrix in="SourceAlpha" result="hardAlpha" values="0 0 0 0 0 0 0 0 0 0 0 0 0 0 0 0 0 0 127 0"/><feOffset dy="-10"/><feGaussianBlur stdDeviation="12.5"/><feComposite in2="hardAlpha" operator="out"/><feColorMatrix values="0 0 0 0 1 0 0 0 0 1 0 0 0 0 1 0 0 0 0.05 0"/><feBlend in2="BackgroundImageFix" result="effect1_dropShadow_170_1570"/><feBlend in="SourceGraphic" in2="effect1_dropShadow_170_1570" result="shape"/></filter></defs></svg>