<svg xmlns="http://www.w3.org/2000/svg" width="683" height="263" fill="none"><path fill="#fff" d="M96.464 262.64c-17.957 0-35.55-2.548-52.78-7.644-16.987-5.339-31.304-12.619-42.952-21.84l20.02-36.764c9.221 7.523 20.384 13.589 33.488 18.2 13.347 4.611 27.179 6.916 41.496 6.916 16.744 0 29.848-3.519 39.312-10.556 9.707-7.037 14.56-16.501 14.56-28.392 0-8.008-2.063-15.045-6.188-21.112-3.883-6.067-10.92-10.677-21.112-13.832-9.949-3.155-23.66-4.732-41.132-4.732H19.66L32.764 4.2h149.604v39.676H50.236l24.752-22.568-9.828 103.74-24.752-22.204h51.324c25.237 0 45.5 3.397 60.788 10.192 15.531 6.552 26.815 15.773 33.852 27.664 7.28 11.648 10.92 24.995 10.92 40.04 0 14.803-3.64 28.392-10.92 40.768-7.28 12.376-18.443 22.325-33.488 29.848-14.803 7.523-33.609 11.284-56.42 11.284Zm234.41 0c-20.141 0-38.341-5.096-54.6-15.288-16.016-10.192-28.634-24.995-37.856-44.408-9.221-19.656-13.832-43.437-13.832-71.344 0-27.907 4.611-51.567 13.832-70.98 9.222-19.656 21.84-34.58 37.856-44.772C292.533 5.656 310.733.56 330.874.56c20.384 0 38.584 5.096 54.6 15.288s28.635 25.116 37.856 44.772c9.464 19.413 14.196 43.073 14.196 70.98 0 27.907-4.732 51.688-14.196 71.344-9.221 19.413-21.84 34.216-37.856 44.408-16.016 10.192-34.216 15.288-54.6 15.288Zm0-41.132c11.891 0 22.204-3.155 30.94-9.464 8.736-6.552 15.531-16.501 20.384-29.848 5.096-13.347 7.644-30.212 7.644-50.596 0-20.627-2.548-37.492-7.644-50.596-4.853-13.347-11.648-23.175-20.384-29.484-8.736-6.552-19.049-9.828-30.94-9.828-11.405 0-21.597 3.276-30.576 9.828-8.736 6.31-15.652 16.137-20.748 29.484-4.853 13.104-7.28 29.969-7.28 50.596 0 20.384 2.427 37.249 7.28 50.596 5.096 13.347 12.012 23.296 20.748 29.848 8.979 6.309 19.171 9.464 30.576 9.464Zm244.918 41.132c-20.141 0-38.341-5.096-54.6-15.288-16.016-10.192-28.634-24.995-37.856-44.408-9.221-19.656-13.832-43.437-13.832-71.344 0-27.907 4.611-51.567 13.832-70.98 9.222-19.656 21.84-34.58 37.856-44.772C537.451 5.656 555.651.56 575.792.56c20.384 0 38.584 5.096 54.6 15.288s28.635 25.116 37.856 44.772c9.464 19.413 14.196 43.073 14.196 70.98 0 27.907-4.732 51.688-14.196 71.344-9.221 19.413-21.84 34.216-37.856 44.408-16.016 10.192-34.216 15.288-54.6 15.288Zm0-41.132c11.891 0 22.204-3.155 30.94-9.464 8.736-6.552 15.531-16.501 20.384-29.848 5.096-13.347 7.644-30.212 7.644-50.596 0-20.627-2.548-37.492-7.644-50.596-4.853-13.347-11.648-23.175-20.384-29.484-8.736-6.552-19.049-9.828-30.94-9.828-11.405 0-21.597 3.276-30.576 9.828-8.736 6.31-15.652 16.137-20.748 29.484-4.853 13.104-7.28 29.969-7.28 50.596 0 20.384 2.427 37.249 7.28 50.596 5.096 13.347 12.012 23.296 20.748 29.848 8.979 6.309 19.171 9.464 30.576 9.464Z" opacity=".1"/></svg>