<svg xmlns="http://www.w3.org/2000/svg" width="514" height="520"><defs><linearGradient id="a" x1="48.104%" x2="52.41%" y1="36.729%" y2="63.19%"><stop offset="0%" stop-color="#BB70C8"/><stop offset="100%" stop-color="#471D7B"/></linearGradient><linearGradient id="b" x1="42.451%" x2="55.031%" y1="41.771%" y2="60.391%"><stop offset="0%" stop-color="#6BD8FF"/><stop offset="100%" stop-color="#45B9E6"/></linearGradient><linearGradient id="c" x1="23.078%" x2="79.795%" y1="11.476%" y2="87.448%"><stop offset="0%" stop-color="#44B7E5"/><stop offset="100%" stop-color="#2B87C9"/></linearGradient><linearGradient id="d" x1="69.324%" x2="28.149%" y1="3.362%" y2="104.354%"><stop offset="0%" stop-color="#45B9E6"/><stop offset="100%" stop-color="#267EC3"/></linearGradient><linearGradient id="e" x1="45.769%" x2="72.321%" y1="-1.103%" y2="88.058%"><stop offset="0%" stop-color="#4DC7EE"/><stop offset="100%" stop-color="#1D6FBA"/></linearGradient><linearGradient id="f" x1=".903%" x2="41.594%" y1="31.982%" y2="66.575%"><stop offset="0%" stop-color="#6BD8FF"/><stop offset="100%" stop-color="#3FACDE"/></linearGradient><linearGradient id="g" x1="48.974%" x2="51.304%" y1=".188%" y2="100.449%"><stop offset="0%" stop-color="#AAE8FD"/><stop offset="100%" stop-color="#82DBFA" stop-opacity="0"/></linearGradient><linearGradient id="h" x1="48.428%" x2="54.745%" y1="45.215%" y2="56.398%"><stop offset="0%" stop-color="#B06EC2"/><stop offset="95.833%" stop-color="#663796"/></linearGradient></defs><g fill="none" fill-rule="evenodd"><path fill="url(#a)" fill-rule="nonzero" stroke="#2C2247" stroke-width="6" d="M265.478 454.453C151.323 463.928 49.297 415.057 3.217 338.347l.256-.02-2.515-4.146a6.792 6.792 0 0 1-.935-2.949c-.307-3.698 2.443-6.943 6.114-7.247 1.515-.126 2.876.218 4.05 1.003 16.406 11.508 36.853 17.455 58.372 15.67 37.397-3.105 67.53-28.743 78.255-62.488l.017-.052.014-.053c12.076-43.405 49.963-76.816 97.292-80.744 46.346-3.847 88.29 21.614 107.889 60.898 15.586 33.103 50.326 54.735 88.917 51.532 21.533-1.787 40.544-11.019 54.992-24.899 1.126-1.066 2.433-1.72 3.993-1.85 3.671-.304 6.919 2.442 7.225 6.14.069.831-.052 1.77-.257 2.842-31.282 85.591-125.023 152.81-241.418 162.47Z" transform="translate(3 5)"/><path fill="url(#b)" fill-rule="nonzero" stroke="#20263D" stroke-width="5" d="m317.941 83.018.028.07.032.067c4.921 10.342 7.662 21.837 7.553 34.23l-.001.008v.008l-.498 198.062c-.111 42.912-34.314 77.635-76.662 78.71l-.012-.135-2.294-.007c-43.572-.13-78.672-35.34-78.559-79.019l-2.5-.006 2.5.006.498-198.062c.114-43.686 35.391-78.867 78.954-78.735h.057c-3.73 10.262-5.558 21.67-4.205 34.216l4.945.18c4.835-26.498 24.047-45.087 42.431-57.148 9.161-6.01 18.025-10.338 24.6-13.161 2.163-.93 4.076-1.694 5.666-2.302-.312.849-.649 1.792-1.003 2.823A152.977 152.977 0 0 0 314 23.406c-3.22 16.779-4.437 38.896 3.941 59.612Z" transform="translate(3 5)"/><path fill="url(#c)" fill-rule="nonzero" d="M63.027 191.514c5.324-.947 10.347 4.256 14.446 6.325 2.05 1.034 9.238-2.456 10.77-.934 2.25-3.635 5.751-2.405 6.461-.56-.31-.512.232.384 0 0 .31.512 4.915 9.52 5.303 10.16-.316-.858.387.64 0 0 .465.768-.426-.732.117.164.394.987-2.707 7.503-2.016 8.31-.697-1.154.62 1.023 0 0 2.707 4.134 4.46 11 8.901 15.311 4.44 4.311 7.635 8.194 13.486 11.477 5.774 3.155 11.988 5.693 18.035 7.284 6.046 1.59 11.745 9.066 16.868 9.466 1.203-.028 7.512 2.627 8.566 2.69.977-.067-1.416.665-.588.69.977-.067-3.296 8.383.588-.69.751-.105 5.865-7.578 6.467-7.592.601-.014.497-1.77.872-1.823l1.126-.156c2.102-.222 4.062-.008 5.808.86 1.894.778 3.42 1.954 5.029 3.605 2.992 3.263 5.485 8.052 5.816 13.975l1.106 15.6c.48 5.831-1.75 11.554-6.184 15.985a29.076 29.076 0 0 1-8.032 5.21c-3.138 1.197-6.509 2.012-10.047 1.878 0 0-.679-.114-2.031.004-.602.014-1.43-.01-2.484-.072-.906-.152-2.109-.124-3.241-.314-1.28-.1-2.561-.2-4.068-.338-1.507-.138-3.092-.404-4.676-.67-1.734-.176-3.545-.48-5.355-.784-1.811-.304-3.849-.646-5.737-1.078-7.929-1.676-14.575-5.492-23.524-9.525-8.949-4.033-19.663-8.603-27.523-14.869-8.009-6.176-15.514-12.662-21.136-19.932-5.621-7.27-9.742-14.749-12.718-21.345-.781-1.627-1.336-3.215-2.04-4.714-.704-1.498-3.456-.222-3.933-1.682-.478-1.46-.254-4.575-.725-5.69-.323-1.204 1.006-3.363.612-4.35-2.528.22-.561-1.935-.65-2.755-.09-.82-.33-1.55-.413-2.025-.245-1.076-.406-1.678-.406-1.678-.729-2.883-.558-5.96.143-8.833.701-2.873 1.932-5.542 3.396-7.827 3.678-4.674 8.287-7.812 13.61-8.758Z" transform="translate(3 5)"/><path fill="#371A45" fill-rule="nonzero" d="M160.122 310.161c-.534 4.217-2.434 17.364-2.719 22.088a38.923 38.923 0 0 1-12.705-5.258c-.48.55-.908 1.142-1.279 1.77a147.826 147.826 0 0 1 2.817-19.863.04.04 0 0 0-.001-.019c-21.564-6.836-42.347-16.333-60.414-29.734-18.748-13.398-37.498-36.242-39.101-57.956 39.768 77.217 118.839 51.083 113.402 88.972Z" opacity=".32"/><path fill="#20263D" fill-rule="nonzero" d="m144.56 362.064.271-.022c.424-.07.831-.22 1.197-.446a3.235 3.235 0 0 0 1.463-2.018c.098-.415.112-.845.042-1.265-1.676-10.163-1.791-21.35-.346-34.204.142-1.009.305-1.996.463-2.949.626-3.778 1.215-7.347.066-10.494-1.738-4.764-6.516-6.314-10.084-7.045-42.826-15.78-69.234-36.304-83.096-64.585l-.103-.19c-6.963-12.068-5.235-25.443-.437-33.359 3.148-5.192 7.498-8.1 11.912-7.973 5.818.164 11.786 5.491 16.803 14.983a3.5 3.5 0 0 0 1.472 1.505 3.607 3.607 0 0 0 4.003-.427 3.554 3.554 0 0 0 1.131-1.747c.514-1.714.635-3.444.742-4.973.208-2.969.404-4.158 1.659-4.882l.06-.035c.964-.586 1.829-.736 2.722-.476 1.51.443 3.063 2.056 4.152 4.316 1.184 2.451 2.335 9.264 1.19 16.732l-.193 1.256.719 1.048c7.226 10.541 15.982 18.294 28.67 28.123l.183.143.206.115c1.832 1.04 3.654 2.123 5.583 3.254 10.086 5.95 20.513 12.101 31.951 12.982a3.3 3.3 0 0 0 2.328-.805 3.24 3.24 0 0 0 1.104-2.184 3.217 3.217 0 0 0-.745-2.325 3.28 3.28 0 0 0-2.173-1.149c-9.908-.757-19.667-6.516-29.106-12.084-1.801-1.06-3.659-2.157-5.474-3.189-11.644-9.042-19.811-16.217-26.399-25.508.974-7.947-.182-15.576-1.932-19.207-1.934-4.004-4.844-6.749-8.202-7.729-2.671-.782-5.427-.383-7.969 1.15-2.637 1.533-3.775 3.733-4.328 5.932-6.563-8.916-13.181-11.159-17.97-11.293-6.86-.194-13.318 3.86-17.724 11.121-3.196 5.268-5.025 11.873-5.153 18.598a41.12 41.12 0 0 0 5.462 21.218c7.89 16.058 19.335 29.515 35.025 41.138 13.701 10.16 30.665 18.887 51.865 26.677l.245.091.254.05c4.743.937 5.276 2.4 5.477 2.951.572 1.57.136 4.197-.368 7.244-.167 1.008-.339 2.05-.493 3.154l-.012.085c-1.516 13.463-1.388 25.24.388 36.006a3.227 3.227 0 0 0 1.218 2.023 3.29 3.29 0 0 0 2.281.668Z"/><path fill="url(#d)" fill-rule="nonzero" d="M397.96 143.013c9.577 2.34 4.346 19.703 7.732 24.304 1.655 2.382 16.824 6.451 17.561 9.608.585 3.085 4.728 7.346 4.17 10.9 0 0 .365 4.971.128 6.265-.158.73-1.057 4.785-1.707 4.767.362 3.45.599 2.156.362 3.45-.238 1.294-.778 4.536-1.169 6.16 0 0-2.001 4.333-2.47 6.12-.469 1.788-2.584 7.657-3.282 9.538-.698 1.881-2.525 4.74-3.3 6.786-4.303 4.692-3.201 2.275-8.82 11.885-7.308 9.426-17.06 15.062-24.953 24.006-11.185 7.538-28.947 12.543-37.963 19.154-9.017 6.61-6.147 15.762-14.231 19.597-1.984 1.077-3.965 1.754-5.795 2.501-1.829.748-3.659 1.496-5.411 2.08-1.752.582-3.353 1.236-4.725 1.797-1.524.49-2.819.886-4.114 1.282s-2.361.7-3.276 1.073c-.989.138-1.827.347-2.513.628-1.295.396-2.055.441-2.055.441-3.579.93-6.998.732-10.185.04-3.11-.858-5.988-2.208-8.178-4.239-4.53-4.133-6.69-10.166-6.411-17.062l.968-18.217c.43-6.825 2.832-13.126 5.752-17.378 1.461-2.326 3.222-4.11 5.054-5.258 1.758-1.383 3.739-2.06 5.869-2.265l1.141-.067c.38-.023.911.026 1.52-.09.609-.115 1.218-.23 1.978-.276.761-.045 1.598-.254 2.587-.392.838-.21 1.827-.348 2.893-.65.989-.139 2.207-.37 3.351-.838 1.066-.303 2.423 1.67 3.644 1.038 5.103-1.42 10.983-5.819 17.164-9.142 6.103-3.16 11.58-9.49 17.392-14.392 5.812-4.902 7.829-10.285 12.432-16.155 4.603-5.87 5.547-7.477 8.246-12.836 3.654-4.71 4.057-9.516 4.057-9.516.541-1.15 4.284-7.066 4.595-8.124-.234.894.312-1.058 0 0 .386-.823 1.971-3.245 2.28-3.903.778-2.446 2.362-5.004 3.82-6.93 1.536-2.09 3.025-10.922 6.131-18.4 3.654-4.712 4.411-7.377 9.731-7.29Z" transform="translate(3 5)"/><path fill="#371A45" fill-rule="nonzero" d="M86.583 2.426c3.413 34.35-27.605 73.747-71.007 89.978-1.357.506-2.717.987-4.095 1.452 0 0-11.17-4.015-11.453-5.916-.473-3.175 5.023-3.024 10.785-4.447C44.86 75.091 84.525 32.288 86.103 0c.235.792.396 1.604.48 2.426Z" opacity=".2" style="mix-blend-mode:multiply" transform="translate(343.255 187.27)"/><path fill="#20263D" fill-rule="nonzero" d="m325.056 249.474 3.893-2.934a349.043 349.043 0 0 0 3.839-2.945 254.047 254.047 0 0 0 3.762-2.985l.928-.757.922-.76c.608-.516 1.214-1.03 1.816-1.556a98.897 98.897 0 0 0 6.843-6.593c.275-.284.535-.58.803-.87.268-.292.534-.582.791-.88l.78-.889.759-.905c.124-.15.248-.297.38-.454l.375-.476.753-.949 1.506-1.899c1.025-1.25 1.958-2.565 2.925-3.862l1.435-1.95c.47-.659.915-1.33 1.371-1.997 1.841-2.653 3.559-5.386 5.255-8.13a179.717 179.717 0 0 0 9.164-17.038 196.614 196.614 0 0 0 7.375-17.882l.795-2.29c.264-.764.538-1.528.784-2.289l.754-2.303c.124-.383.255-.762.374-1.15l.36-1.16.717-2.316c.236-.773.459-1.55.689-2.326l.343-1.164.173-.586.206-.668c.295-.897.66-1.769 1.092-2.61a15.161 15.161 0 0 1 3.58-4.587 12.954 12.954 0 0 1 2.538-1.688 11.15 11.15 0 0 1 2.983-1.013 10.25 10.25 0 0 1 3.246-.086 9.825 9.825 0 0 1 3.124.993 10.44 10.44 0 0 1 2.577 1.89 12.346 12.346 0 0 1 1.855 2.414c.491.836.901 1.717 1.224 2.63.314.877.56 1.776.736 2.69.177.888.302 1.785.374 2.687l.03.334.018.332.035.666.014.661.007.332-.003.33c-.027 3.514-.579 6.915-1.362 10.213l-1.922-2.936.356.072.329.07.645.145a62.454 62.454 0 0 1 3.783 1.017 58.319 58.319 0 0 1 4.924 1.728c3.233 1.297 6.399 2.89 9.318 5.015a25.729 25.729 0 0 1 4.085 3.665 18.776 18.776 0 0 1 3.128 4.746c.4.888.721 1.81.957 2.753.054.236.112.474.162.713l.126.72c.036.24.063.481.093.722.019.126.023.225.033.336l.027.323c.166 1.724.222 3.453.222 5.18-.023 6.912-1.286 13.761-3.437 20.26a81.729 81.729 0 0 1-1.769 4.818c-.31.797-.662 1.576-.994 2.364l-.529 1.166-.266.584-.278.577-.56 1.155-.582 1.141-.289.57-.302.563-.606 1.128-.629 1.108-.314.557-.324.551-.651 1.1-.672 1.088a106.583 106.583 0 0 1-12.435 16.174 116.163 116.163 0 0 1-7.271 7.163 122.262 122.262 0 0 1-7.847 6.526 122.102 122.102 0 0 1-8.359 5.862c-2.868 1.837-5.746 3.651-8.733 5.31a63.172 63.172 0 0 1-9.317 4.232c-.402.142-.805.282-1.211.416-.406.135-.818.254-1.227.376-.817.25-1.651.453-2.487.648a30.198 30.198 0 0 1-5.119.764.858.858 0 0 1-.512-.14.837.837 0 0 1-.339-.942.848.848 0 0 1 .307-.43l.022-.017c.704-.509 1.426-.946 2.146-1.385.72-.439 1.443-.85 2.166-1.264a89.55 89.55 0 0 1 2.174-1.192c.364-.199.728-.388 1.094-.576.365-.188.725-.386 1.085-.573l8.744-4.459c2.909-1.489 5.792-3.05 8.545-4.82a121.67 121.67 0 0 0 8.03-5.63 113.99 113.99 0 0 0 7.534-6.263 111.147 111.147 0 0 0 6.966-6.866 101.64 101.64 0 0 0 11.866-15.429l.639-1.033.616-1.045.31-.522.297-.53.595-1.055.572-1.067.288-.535.273-.539.55-1.079.524-1.092.263-.544.249-.55.501-1.1c.312-.742.644-1.477.935-2.226.612-1.487 1.15-3 1.667-4.52 2.018-6.093 3.173-12.437 3.2-18.772-.002-1.582-.049-3.164-.203-4.735l-.025-.296c-.014-.095-.014-.204-.026-.286l-.066-.509-.088-.502-.114-.498a11.429 11.429 0 0 0-.673-1.927c-1.131-2.515-3.199-4.708-5.658-6.497-2.46-1.789-5.295-3.239-8.245-4.418a55.486 55.486 0 0 0-4.524-1.58 52.557 52.557 0 0 0-3.47-.935l-.575-.13-.284-.06-.258-.052-2.504-.504.581-2.432c.726-3.038 1.21-6.116 1.23-9.12l.004-.282-.007-.279-.011-.559-.029-.553-.015-.277-.025-.275a18.26 18.26 0 0 0-.298-2.147c-.037-.174-.067-.35-.111-.52l-.127-.512-.148-.497c-.048-.167-.109-.324-.163-.487a10.446 10.446 0 0 0-.832-1.796 7.495 7.495 0 0 0-1.115-1.46 5.556 5.556 0 0 0-1.362-1.005 4.92 4.92 0 0 0-1.547-.494 5.333 5.333 0 0 0-1.663.048c-1.128.206-2.25.784-3.222 1.607a10.317 10.317 0 0 0-2.41 3.11c-.315.612-.581 1.25-.796 1.903l-.155.5-.173.588-.349 1.182c-.233.79-.459 1.578-.699 2.364l-.73 2.358-.365 1.178c-.122.393-.255.784-.383 1.176l-.769 2.347c-.25.785-.53 1.56-.799 2.34l-.814 2.335a203.85 203.85 0 0 1-7.554 18.317 184.718 184.718 0 0 1-9.399 17.485c-1.739 2.82-3.508 5.621-5.39 8.348l-.695 1.03c-.241.343-.455.693-.698 1.03l-1.441 2.01c-.96 1.351-1.899 2.715-2.91 4.03l-1.493 1.99-.747.993-.375.49c-.122.163-.264.33-.394.493l-.795.998-.822.972c-.27.33-.554.643-.838.958-.283.316-.561.64-.853.946a68.903 68.903 0 0 1-3.597 3.595l-.939.855c-.318.28-.64.555-.959.833-.318.278-.649.55-.971.818-.321.27-.652.531-.985.798a66.668 66.668 0 0 1-4.074 3.013 55.167 55.167 0 0 1-4.311 2.652 49.645 49.645 0 0 1-4.546 2.227 43.39 43.39 0 0 1-2.363.931c-.4.14-.803.274-1.21.4-.204.062-.409.12-.616.177-.206.057-.408.113-.632.167a.834.834 0 0 1-.943-.446.814.814 0 0 1 .247-1.008l.015-.014Z"/><path fill="#371A45" fill-rule="nonzero" d="M39.413 22.372C25.763 49.002-5.625 40.177.875 16.125 2.572 9.842 10.235-.931 17.34.065c-.502 1.047-2.115 6.832-1.875 10.412.634 9.459 11.612 10.15 23.948 11.895Z" opacity=".24" style="mix-blend-mode:multiply" transform="translate(383.603 194.747)"/><path fill="#20263D" fill-rule="nonzero" d="M401.795 193.104c-.289 1.607-1.08 3.173-2.007 4.515l-.348.49-.176.24-.173.232-.675.9a16.343 16.343 0 0 0-1.11 1.665c-.172.263-.273.544-.416.804-.062.135-.11.276-.167.41a3.646 3.646 0 0 0-.153.412c-.041.143-.087.286-.132.43-.022.07-.05.142-.065.21l-.048.22c-.062.296-.143.573-.178.893a8.366 8.366 0 0 0-.109.848 3.128 3.128 0 0 0-.006.362c.001.123.009.245.023.366.052.52.165 1.03.337 1.524.189.546.426 1.075.71 1.581.307.543.65 1.066 1.025 1.566a18.303 18.303 0 0 0 2.748 2.887 22.802 22.802 0 0 0 3.395 2.38c.604.346 1.221.678 1.853.977.632.3 1.273.581 1.922.84.649.256 1.316.48 1.976.686.66.206 1.337.381 2.012.518.169.038.337.073.506.101l.507.093c.339.047.677.11 1.014.14.67.08 1.343.123 2.018.13.66.005 1.319-.03 1.975-.105a13.9 13.9 0 0 0 1.888-.357 12.086 12.086 0 0 0 1.757-.629c.554-.257 1.084-.56 1.584-.906 1.994-1.378 3.379-3.54 4.197-6.043l.08-.236a9.066 9.066 0 0 0 .162-.621c.069-.31.13-.629.18-.949.098-.643.583-1.309.603-1.959.05-1.26 1.018-2.767.701-3.99-.147-.618.003-1.273.006-2.024.336-.543.173-.48.801-.639.628-.159 1.471-.132 2.034.183.564.315.845 1.021 1.024 1.631.444 1.683.05 3.277-.015 5.014a20.127 20.127 0 0 1-.479 3.786c-.049.212-.099.43-.157.645-.03.11-.063.23-.106.363l-.1.298-.204.596c-.065.198-.153.396-.23.595-.077.198-.154.395-.242.592l-.273.587-.137.285c-.048.097-.103.193-.151.286l-.311.57c-.107.191-.229.376-.343.57a6.057 6.057 0 0 1-.36.554l-.387.545c-.129.18-.276.351-.416.527-.272.355-.591.678-.898 1.011a15.972 15.972 0 0 1-2.08 1.767 15.83 15.83 0 0 1-2.375 1.358c-.823.371-1.675.677-2.548.914a19.17 19.17 0 0 1-2.615.497c-.865.1-1.736.145-2.608.137a23.59 23.59 0 0 1-2.563-.16c-.423-.044-.84-.115-1.26-.177l-.621-.112a11.487 11.487 0 0 1-.619-.125 29.08 29.08 0 0 1-2.428-.625 27.91 27.91 0 0 1-2.352-.817c-.77-.302-1.53-.629-2.271-.99a36.52 36.52 0 0 1-2.188-1.155 37.767 37.767 0 0 1-2.101-1.312c-.339-.24-.682-.469-1.018-.722-.167-.124-.336-.243-.501-.37l-.493-.385a24.463 24.463 0 0 1-3.646-3.539 16.909 16.909 0 0 1-1.515-2.17l-.331-.594-.297-.622a11.604 11.604 0 0 1-.504-1.31c-.302-.932-.469-1.9-.497-2.877a6.812 6.812 0 0 1 .012-.756c.012-.253.037-.505.076-.756.069-.459.169-.913.298-1.36.059-.213.099-.43.181-.638l.229-.638.115-.316c.04-.106.093-.21.139-.314.098-.208.192-.417.293-.622.1-.206.222-.403.336-.6a9.07 9.07 0 0 1 .359-.59c.128-.189.268-.372.403-.555.069-.09.133-.185.206-.27l.217-.256c.15-.167.288-.343.441-.499l.467-.447c.15-.157.299-.282.458-.424.16-.14.311-.282.461-.402l.455-.38.447-.355.863-.696c.132-.113.268-.226.405-.337.069-.057.139-.112.206-.17l.191-.172.393-.346c.12-.12.244-.24.369-.36l.19-.183c.06-.063.117-.128.175-.192l.359-.386c.234-.266.45-.548.693-.826l.044-.05a.867.867 0 0 1 1.008-.211.821.821 0 0 1 .475.896h.001Z"/><path fill="url(#e)" fill-rule="nonzero" stroke="#20263D" stroke-width="6" d="M371.731 326.427c5.351 64.465-42.443 121.04-106.733 126.375-64.289 5.335-120.755-42.585-126.106-107.05-5.35-64.467 42.443-121.04 106.733-126.376 64.29-5.336 120.756 42.585 126.106 107.051Z" transform="translate(3 5)"/><path fill="#371A45" fill-rule="nonzero" d="M232.97 454.055s22.524 46.997 18.771 37.295c-.003-.009 2.188-1.233-.003-.029.003.03 57.453-36.239 80.268-61.587 23.807-25.522 48.207-44.995 39.863-110.757-37.631 129.121-151.965 101.09-138.899 135.078Z" opacity=".2"/><path fill="url(#f)" fill-rule="nonzero" d="M322.352 233.65c1.137 49.537-14.986 26.57-57.826 30.126-42.839 3.555-94.284 36.562-94.187-13.308 3.05-40.404 84.067-40.887 84.067-40.887s67.159-10.243 67.946 24.068Z" transform="translate(3 5)"/><path fill="#1A1F36" fill-rule="nonzero" d="M265.628 243.242c.308 2.326-3.86 6.975-13.987 8.316-10.535 1.036-15.167-3.378-15.401-5.143-.308-2.326 2.719 1.077 15.109.155 12.39-.923 13.971-5.654 14.279-3.328Z"/><path fill="url(#g)" fill-opacity=".54" fill-rule="nonzero" d="M31.678.006c-.083 1.016-.36 90.636-.36 90.636C12.166 108.369.006 133.584 0 161.825c-.13 40.859 25.069 75.75 60.636 90.112-13.46-16.701-21.603-38.046-21.516-61.251.003-28.241 12.164-53.457 31.318-71.184 0 0 .158-36.491.049-55.981C70.76-1.892 31.677.006 31.677.006Z" opacity=".8" style="mix-blend-mode:lighten" transform="translate(154.632 174.59)"/><path fill="#EE5B76" fill-rule="nonzero" d="M290.024 356.915c-.919-20.72-18.625-36.573-39.546-35.407-20.922 1.166-37.138 18.908-36.218 39.628.919 20.721 18.625 36.573 39.547 35.408 20.921-1.166 37.137-18.908 36.217-39.629Z"/><path stroke="#0F1322" stroke-opacity=".6" stroke-width="4" d="M250.566 323.507c19.841-1.105 36.593 13.924 37.462 33.52.87 19.595-14.47 36.412-34.31 37.518-19.84 1.105-36.593-13.924-37.462-33.52-.87-19.596 14.47-36.413 34.31-37.518Z"/><path fill="#FFF" fill-rule="nonzero" d="m259.538 375.003-.967.086.314 7.204-4.603.287-.314-7.205c-.967.086-2.064.064-3.031.15l.313 7.204-4.602.286-.314-7.205c-4.966.32-8.843.542-8.843.542l.007-4.625s2.548-.105 3.515-.19c.967-.086 1.777-.63 1.65-2.28-.128-1.649-.817-18.424-.908-19.602-.091-1.177-.853-1.585-2.303-1.457-1.572.14-3.394.18-3.394.18l-.235-4.603s4.362-.265 9.085-.563l-.304-7.087 4.603-.287.304 7.087c1.088-.095 2.064-.063 3.032-.148l-.305-7.087 4.603-.287.314 7.205c4.639.184 10.466 1.568 11.323 6.354 1.033 5.482-3.406 7.888-3.406 7.888s6.172 1.116 6.515 7.133c.214 5.91-2.722 10.436-12.049 11.02Z"/><path fill="#EE5B76" fill-rule="nonzero" d="M255.803 361.05c-1.385.122-2.401.101-2.401.101l-3.661.212.3 8.8c.504-.046 1.889-.168 5.172-.346 5.045-.334 7.437-2.199 7.309-5.498-.128-3.298-5.334-3.39-6.719-3.269ZM260.198 351.915c-.157-3.638-4.724-3.707-7.06-3.619-1.714.151-2.825.131-3.315.174l.424 8.68 6.141-.305c1.574-.374 3.941-1.643 3.81-4.93Z"/><path stroke="#3F3A54" stroke-width="1.5" d="M257.139 308.744c.318 3.84-5.748 13.59-5.748 13.59s-7.59-8.616-7.909-12.456c-.318-3.84 2.43-7.094 6.26-7.412 3.664-.304 7.092 2.606 7.397 6.278Z"/><path stroke="#3F3A54" stroke-linecap="round" stroke-width="5" d="M328.011 246.021c1.553 14.664-27.955 54.453-73.004 59.2-45.049 4.748-82.555-28.922-84.107-43.586"/><path fill="#2780C4" fill-rule="nonzero" stroke="#20263D" stroke-width="6" d="m238.02 434.593.003.003c12.322 11.88 20.584 20.415 25.96 26.702 5.456 6.381 7.654 10.13 8.307 12.473.297 1.067.236 1.72.104 2.174-.146.5-.459 1.042-1.094 1.783-.442.517-.893.973-1.439 1.524-.324.33-.683.691-1.093 1.12-1.004 1.052-2.12 2.318-3.114 3.906-.264.407-1.188 1.183-3.563 1.88-2.264.665-5.348 1.113-9.143 1.297-7.57.367-17.497-.335-28.302-2.049-21.679-3.438-46.22-10.837-61.783-21.185l-.007-.005-.008-.005c-15.465-10.15-20.216-19.87-20.313-28.224-.099-8.54 4.623-16.66 10.414-23.66 11.802-10.862 20.797-16.26 32.411-14.202 6.007 1.065 12.985 4.166 21.619 10.077 8.624 5.906 18.75 14.51 31.041 26.391Z"/><path fill="#371A45" fill-rule="nonzero" d="M267.125 455.757c-1.546-4.474 1.122 4.1 0 0-4.553.818 12.291 44.986 7.749 44.171-.232.692-.4 1.403-.504 2.125a147.865 147.865 0 0 1-5.006-19.427c-.001-.006-1.678.122-.009-.017.009.017-45.377 1.123-67.201-4.34-22.452-5.2-48.525-19.125-58.325-38.57 66.321 56.106 86.489-13.07 123.296 16.058Z" opacity=".35"/><path fill="#359AD4" fill-rule="nonzero" stroke="#20263D" stroke-width="6" d="m281.839 464.133-.368-.606-.601-.377c-1.322-.83-2.876-1.428-4.277-1.928-.453-.162-.892-.314-1.322-.463-.999-.347-1.949-.676-2.92-1.07-2.739-1.115-4.648-2.386-5.614-4.407-.97-2.028-1.348-5.587.923-12.118 2.261-6.503 6.999-15.508 15.548-28.04 8.983-13.168 23.125-20.289 37.181-21.684 14.11-1.4 27.727 2.99 35.839 12.293 9.139 10.482 14.138 24.754 12.68 37.345-1.428 12.327-9.053 23.334-25.985 27.885-17.033 4.578-30.95 5.341-41.325 3.66-10.444-1.694-16.898-5.779-19.759-10.49Z"/><path fill="#359AD4" fill-rule="nonzero" d="M352.189 436.468c7.573 16.32-46.761 47.13-78.788 75.277-20.223 17.773-53.781-10.68-51.073-35.424 3.728-16.85 45.564-30.925 45.564-30.925 11.502-17.047 72.278-34.364 84.297-8.928Z"/><path fill="#371A45" fill-rule="nonzero" d="M225.925 474.624c-3.773 10.234 11.232 34.468 11.232 34.468s14.77 12.706 35.012 2.888c19.136-9.956 26.919-17.038 42.647-37.01-44.152 26.837-71.904 33.645-88.891-.346Z" opacity=".2"/><path fill="#20263D" fill-rule="nonzero" d="M269.653 448.428a59.308 59.308 0 0 0 4.636 7.966 51.006 51.006 0 0 0 5.926 7.218 30.352 30.352 0 0 0 7.442 5.612 18.918 18.918 0 0 0 9.143 2.245 19.752 19.752 0 0 1-9.746-.82c-3.173-1.047-6.128-2.72-8.835-4.683a54.445 54.445 0 0 1-7.518-6.646 64.453 64.453 0 0 1-6.431-7.88 3.098 3.098 0 0 1 3.115-4.797 3.094 3.094 0 0 1 2.225 1.705l.043.08Z"/><path fill="#20263D" fill-rule="nonzero" d="M341.095 474.72s-14.247 2.951-15.575 3.165c-2.002.33-6.8 1.575-8.676 2.585-3.89 2.053-5.762 5.931-9.404 9.65-3.69 3.72-7.232 7.751-11.376 11.662-8.203 7.702-17.99 13.673-28.399 16.135-5.253 1.267-10.564 1.515-15.694.734a34.499 34.499 0 0 1-14.293-5.822c-4.282-2.988-7.921-6.929-10.724-11.61a39.455 39.455 0 0 1-5.342-16.097c-.071-.744-.173-1.486-.208-2.234l.005-2.286a23.746 23.746 0 0 1 .42-4.849 26.073 26.073 0 0 1 3.799-9.317c3.62-5.498 8.375-9.18 13.073-12.12 4.741-2.92 9.627-5.07 14.535-6.863a101.651 101.651 0 0 1 7.406-2.373 96.78 96.78 0 0 1 3.743-.96c1.258-.292 2.479-.568 3.921-.793l-3.497 3.484 2.084-9.328 4.134-8.57s4.733-9.326 11.599-17.535c3.553-3.473 12.593-11.208 18.131-13.553 5.153-2.182 9.781-5.232 16.057-5.713l5.906 4.031c-6.236 1.118-13.696 2.97-21.707 6.144-10.966 6.602-15.658 12.724-15.658 12.724l-3.516 4.111s-1.447 2.672-2.319 4.02c-1.563 2.412-2.201 4.422-3.154 6.99-.61 1.267-7.515 17.516-6.087 18.688l-1.837 2.693c-.976.154-2.185.411-3.314.678-1.129.268-2.311.574-3.459.89a94.682 94.682 0 0 0-6.87 2.202c-4.531 1.652-8.996 3.632-13.091 6.162-4.096 2.531-7.85 5.627-10.254 9.331a16.195 16.195 0 0 0-2.401 5.831 15.13 15.13 0 0 0-.26 3.23l-.012 1.743c.026.571.116 1.147.169 1.724.959 9.236 6.101 17.51 13.116 22.385a28.32 28.32 0 0 0 11.737 4.781c1.036.268 2.13.234 3.199.336 1.072.092 2.158.087 3.247-.017l1.632-.08 1.67-.23c1.115-.125 2.226-.424 3.339-.638 8.903-2.096 17.457-7.26 24.796-14.15 3.638-3.42 7.256-7.506 11.117-11.41 3.861-3.906 6.03-5.935 11.239-8.719 2.663-1.429 7.42-2.488 10.558-2.729 3.765-.288 7.896-.563 9.449-.083 1.361.413 5.814 1.253 7.046 1.97Z"/><path fill="url(#h)" fill-rule="nonzero" stroke="#2C2247" stroke-width="5" d="m322.022 169.896-.017-.004-.017-.004c-49.299-11.663-100.661-11.469-149.834.912-3.209.762-5.822.196-7.571-1.08-1.719-1.257-2.931-3.436-2.92-6.617l.001-.022-.001-.02a920.914 920.914 0 0 1-.061-10.412l-.001-.419a866.029 866.029 0 0 0-.073-10.989c.024-3.159 1.274-6.539 3.409-9.35 2.14-2.817 5.033-4.888 8.149-5.632l.011-.002.011-.003c48.414-12.024 98.956-12.382 147.485-.9l.008.001.008.001c3.087.71 6.011 2.767 8.199 5.59 2.176 2.805 3.476 6.178 3.542 9.315-.223 7.448-.126 14.694-.03 21.88-.024 3.115-1.215 5.35-2.913 6.648-1.704 1.303-4.232 1.901-7.385 1.107Z" transform="translate(3 5)"/><path fill="#1A1F36" fill-rule="nonzero" d="M202.484 146.96c1.138.471 2.281 1.005 3.363 1.432a38.46 38.46 0 0 0 3.183 1.107c1.029.305 2.04.47 3.018.632.492 0 .975.13 1.46.093.243-.007.484.015.726.02l.724-.058c.465-.003 1.022-.128 1.541-.193.519-.064 1.017-.21 1.537-.306l.734-.213c.247-.059.49-.138.724-.235l.718-.257c.221-.11.449-.216.685-.314a12.787 12.787 0 0 0 2.595-1.666c.421-.348.817-.724 1.187-1.126.183-.206.38-.417.553-.638.189-.206.353-.475.509-.629l.315-.323a1.036 1.036 0 0 1 1.146-.228 1.065 1.065 0 0 1 .657.982c0 .253.012.422-.006.622-.019.2-.025.384-.045.571a8.792 8.792 0 0 1-.536 2.196l-.205.533-.249.512a11.835 11.835 0 0 1-2.829 3.616c-1.159 1.05-2.523 1.771-3.909 2.395l-1.063.375a7.408 7.408 0 0 1-1.073.324l-1.08.245c-.184.038-.357.087-.549.115l-.587.065-1.172.112c-.395.005-.79.004-1.185-.014a8.118 8.118 0 0 1-1.175-.095c-.391-.05-.776-.119-1.166-.187a14.854 14.854 0 0 1-9.099-6.11 10.763 10.763 0 0 1-1.058-1.948 1.142 1.142 0 0 1-.074-.653 1.105 1.105 0 0 1 .87-.889c.217-.045.443-.023.65.062l.165.073ZM293.661 141.654c-.984.741-1.957 1.544-2.898 2.228a38.329 38.329 0 0 1-2.805 1.868c-.92.553-1.857.965-2.763 1.368-.477.123-.912.37-1.391.455-.236.053-.464.135-.698.201l-.715.125c-.451.113-1.021.131-1.54.2-.519.066-1.037.05-1.565.087l-.764-.022a4.834 4.834 0 0 1-.76-.047l-.759-.069a10.605 10.605 0 0 0-.742-.133 12.82 12.82 0 0 1-2.93-.963 12.174 12.174 0 0 1-1.43-.794c-.229-.154-.472-.309-.695-.479-.235-.152-.461-.37-.651-.482l-.385-.234a1.04 1.04 0 0 0-1.167.066 1.073 1.073 0 0 0-.39 1.116c.063.245.094.411.162.6.068.19.119.366.186.542a8.65 8.65 0 0 0 1.068 1.991l.332.465.369.434a11.843 11.843 0 0 0 3.644 2.793c1.384.726 2.886 1.083 4.384 1.341l1.123.097c.371.043.745.058 1.119.045l1.108-.033c.187-.009.367-.005.56-.026l.584-.084 1.163-.185a20.54 20.54 0 0 0 1.144-.31c.38-.1.753-.23 1.114-.386.366-.146.721-.309 1.082-.472a14.869 14.869 0 0 0 6.393-6.21c.347-.637.644-1.3.888-1.983.252-.697.432-1.418.537-2.15a1.123 1.123 0 0 0-.526-1.136 1.1 1.1 0 0 0-.63-.159 1.127 1.127 0 0 0-.615.223l-.141.112Z"/></g></svg>