<svg xmlns="http://www.w3.org/2000/svg" width="359" height="475"><defs><linearGradient id="a" x1="49.689%" x2="50.395%" y1="36.844%" y2="63.154%"><stop offset="0%" stop-color="#BB70C8"/><stop offset="100%" stop-color="#471D7B"/></linearGradient><linearGradient id="b" x1="49.374%" x2="46.342%" y1="95.952%" y2="-.508%"><stop offset="0%" stop-color="#45B9E6"/><stop offset="100%" stop-color="#267EC3"/></linearGradient><linearGradient id="c" x1="41.692%" x2="55.152%" y1="39.604%" y2="60.68%"><stop offset="0%" stop-color="#6BD8FF"/><stop offset="100%" stop-color="#45B9E6"/></linearGradient><linearGradient id="d" x1="28.842%" x2="78.075%" y1="9.691%" y2="92.302%"><stop offset="0%" stop-color="#44B7E5"/><stop offset="100%" stop-color="#2B87C9"/></linearGradient><linearGradient id="e" x1="49.194%" x2="68.803%" y1="16.298%" y2="86.71%"><stop offset="0%" stop-color="#4DC7EE"/><stop offset="100%" stop-color="#1D6FBA"/></linearGradient><linearGradient id="f" x1="4.039%" x2="39.756%" y1="32.149%" y2="65.216%"><stop offset="0%" stop-color="#6BD8FF"/><stop offset="100%" stop-color="#3FACDE"/></linearGradient><linearGradient id="g" x1="49.817%" x2="50.235%" y1=".031%" y2="100.073%"><stop offset="0%" stop-color="#AAE8FD"/><stop offset="100%" stop-color="#82DBFA" stop-opacity="0"/></linearGradient><linearGradient id="h" x1="49.75%" x2="53.606%" y1="44.445%" y2="56.581%"><stop offset="0%" stop-color="#B06EC2"/><stop offset="95.833%" stop-color="#663796"/></linearGradient></defs><g fill="none" fill-rule="evenodd"><path fill="url(#a)" fill-rule="nonzero" stroke="#2C2247" stroke-width="4" d="M178.474 315.567c-79.805 1.086-148.371-37.828-176.653-93.41l.178-.003-1.482-2.873A4.826 4.826 0 0 1 0 217.15c-.035-2.63 2.069-4.79 4.681-4.827 1.077-.014 2.025.296 2.82.911 10.821 8.767 24.712 13.873 39.72 13.67 26.078-.356 48.202-16.684 57.261-39.566l.013-.034.012-.034c10.486-29.59 38.431-50.99 71.521-51.44 32.402-.44 60.332 19.278 72.062 47.53 9.217 23.703 32.265 40.371 59.176 40.004 15.017-.204 28.642-5.69 39.327-14.622.846-.696 1.804-1.096 2.915-1.11 2.613-.037 4.775 2.065 4.811 4.696.008.595-.125 1.252-.32 1.991-25.854 57.965-94.214 100.143-175.525 101.25Z" transform="translate(2 4)"/><path fill="url(#b)" fill-rule="nonzero" d="M250.513 258.815c6.998.668 8.578-7.955 12.146-9.39 1.782-.762 12.971.134 14.372-1.133 1.28-1.263 5.249-2.413 5.91-4.086 0 0 1.682-2.138 1.9-2.754.108-.35.69-2.308.256-2.415 1.238-1.464 1.02-.849 1.238-1.464.218-.616.801-2.148 1.013-2.937 0 0-.064-2.276.145-3.15.208-.876.513-3.853.598-4.81.085-.958-.292-2.549-.211-3.593-1.48-2.845-1.453-1.578-2.376-6.835-2.09-5.476-5.824-11.919-8.441-17.286-5.196-5.329-11.651-12.283-15.685-16.815-4.034-4.533-4.37-4.289-8.593-7.426-.997-.83-2.108-1.482-3.099-2.139-.991-.657-1.981-1.314-2.968-1.884a47.405 47.405 0 0 1-2.597-1.637c-.864-.488-1.604-.894-2.343-1.3-.74-.406-1.356-.729-1.851-1.058-.613-.237-1.105-.479-1.476-.725-.74-.406-1.229-.56-1.229-.56-2.092-1.05-4.405-1.57-6.709-1.83-2.3-.174-4.591-.088-6.624.422-4.187 1.025-7.361 3.314-9.176 6.418l-4.639 8.243c-1.695 3.1-1.936 6.32-1.242 8.722a6.363 6.363 0 0 0 1.812 3.228c.759.926 1.871 1.578 3.216 2.048l.734.233c.244.077.609.15.977.31s.736.32 1.225.474c.489.155.981.397 1.594.634.492.242 1.104.48 1.72.803.613.237 1.349.556 1.968.967.616.324 2.084-.309 2.706.188 2.955 1.537 5.561 4.532 8.676 7.104 3.112 2.486 4.891 6.264 7.306 9.47 2.414 3.206 2.185 5.95 3.521 9.37 1.336 3.42 1.494 4.298 1.722 7.152 1.045 2.737-.08 4.938-.08 4.938.022.606.778 3.892.677 4.416.104-.438-.101.524 0 0 .016.433.36 1.788.373 2.135-.195 1.222.109 2.637.513 3.75.407 1.2-1.169 5.376-1.287 9.242 1.046 2.737.773 4.053 4.308 4.96Z" transform="translate(2 4)"/><path fill="url(#c)" fill-rule="nonzero" stroke="#20263D" stroke-width="4" d="m233.525 57.184.019.057.022.055c2.905 7.383 4.248 15.457 3.579 24.016l-.001.012-9.877 137.497c-2.127 29.567-27.291 51.881-56.501 50.731l-.002-.087-1.83-.132c-30.105-2.178-52.674-28.19-50.503-58.368l9.877-137.497c2.163-30.075 28.045-52.64 58.003-50.651-3.008 6.893-4.771 14.653-4.439 23.331l3.936.418c4.606-18.066 18.768-30 32.087-37.476 6.633-3.723 12.981-6.295 17.672-7.936A105.66 105.66 0 0 1 239.056 0a106.688 106.688 0 0 0-5.403 15.456c-3.049 11.52-4.97 26.873-.128 41.728Z" transform="translate(2 4)"/><path fill="url(#d)" fill-rule="nonzero" d="M60.297 122.718c3.742-.4 4.542 5.005 7.289 6.638 1.373.817 4.835 2.763 6.573.347 1.737-2.415 7.301-1.315 7.706 0-.191-.37.142.278 0 0 .19.371-.239 6.77 0 7.232-.179-.61.238.463 0 0 1.432-1.492-.26-.529.073.12.226.703-.515 8.476-.074 9.07-.428-.834.382.741 0 0 1.68 3.001.842 4.454 3.718 7.661 2.875 3.208 4.907 6.057 8.811 8.618 3.857 2.47 9.128 8.011 13.25 9.406 4.122 1.395 6.641 3.38 10.178 3.904.837.038 5.09 2.185 5.819 2.28.681 0-1.015.394-.442.45.682.001-2.692 5.662.442-.45.526-.037 4.437-4.979 4.855-4.96.418.02.43-1.206.693-1.224l.79-.054c1.47-.053 2.82.19 3.991.876 1.278.632 2.28 1.522 3.318 2.745 1.921 2.41 3.421 5.856 3.366 9.984l.017 10.884c.053 4.073-1.771 7.938-5.063 10.802a20.21 20.21 0 0 1-5.827 3.23c-2.237.681-4.617 1.084-7.067.821 0 0-.466-.112-1.41-.095a22.065 22.065 0 0 1-1.721-.169c-.622-.149-1.459-.188-2.235-.374-.885-.13-1.769-.262-2.809-.43-1.04-.169-2.127-.43-3.214-.69-1.196-.206-2.438-.504-3.681-.803-1.243-.298.233-7.29-1.057-7.68-5.425-1.546-9.981 2.23-16-1-6.02-3.23-15.988-7.01-21.144-11.739-5.264-4.673-10.163-9.538-13.716-14.856-3.553-5.319-6.054-10.71-7.803-15.433-.465-1.167-1.92-1.398-2.337-2.473-.416-1.074-1.242-1.218-1.503-2.255-.261-1.037-3.59-5.244-3.59-5.244s.32.704.094 0l-2.5-2 .5-4.5c-.368-2.037 2.5-4.422 5.266-6 .625-1.96 1.753-2.984 2.88-4.5 5.563.13 9.821-7.738 13.564-8.139Z" transform="translate(2 4)"/><path fill="#371A45" fill-rule="nonzero" d="M111.618 205.39c-16.502 1.106-37.545-4.004-61.597-40.687-3.482-5.31-14.407-10.96-7.935-20.347 3.973-5.766 9.05-9.304 11.5-9.5-1 .965-3.565 4.5-3.565 7 1.065 8.5 6.31 18.702 10.62 17.91 2.645-.485 3.684-1.24 5.929-5.348 2.387-4.366 5.156-6.138 5.38-5.797 1.017 1.55-1.992 17.758-.158 23.995 4.673 15.921 23.253 26.79 37.822 28.876.452.065.882.233 1.252.49.371.256.669.593.868.98.199.387.292.812.272 1.235-.02.424-.153.833-.388 1.192Z" opacity=".35"/><path fill="#20263D" fill-rule="nonzero" d="M89.259 204.902c-12.658-3.316-28.07-13.65-43.401-43.464-.62-1.208-1.643-2.48-2.724-3.827-3.371-4.198-7.992-9.948-1.993-17.847 5.063-6.666 9.732-7.652 12.486-7.473.383-2.192 1.516-5.314 4.814-6.687 6.239-2.594 10.791 3.036 14.808 8.002l.374.468c1.3-2.115 3.827-5.172 8.046-3.864 8.13 2.5 5.006 16.771 4.009 20.597 2.119 3.625 13.715 21.962 34.315 27.063l.024.007c.486.124.904.435 1.16.865a1.876 1.876 0 0 1-.659 2.578 1.897 1.897 0 0 1-1.432.203c-24.463-6.083-36.607-28.64-37.111-29.604a1.879 1.879 0 0 1-.144-1.396c1.407-4.896 2.936-15.43-1.27-16.727-1.8-.552-2.891.706-4.271 3.227-.574 1.047-1.07 1.952-2.242 2.07a2.041 2.041 0 0 1-1.749-.713c-.664-.784-1.33-1.604-1.994-2.425-4.222-5.217-7.02-8.283-10.396-6.88-2.802 1.164-2.69 5.381-2.689 5.423a1.879 1.879 0 0 1-1.792 1.952 1.912 1.912 0 0 1-.952-.2c-.144-.062-4.483-1.887-10.314 5.79-4.23 5.567-1.377 9.116 1.924 13.224 1.153 1.434 2.341 2.916 3.141 4.465 19.931 38.764 39.529 43.015 52.531 42.84a1.92 1.92 0 0 1 1.347.533 1.882 1.882 0 0 1-.565 3.08 1.921 1.921 0 0 1-.721.152c-3.733.048-7.966-.229-12.56-1.432ZM281.2 253.128c-.127.043-.251.086-.377.123a23.822 23.822 0 0 1-8.437.98c-.711.477-1.852 1.136-3.107 1.447-4.577 1.132-7.779.991-10.076-.446-3.592-2.248-3.997-7.089-4.51-13.22-.316-3.763-.673-8.029-1.801-12.527-4.084-16.295-14.246-29.833-14.348-29.968a1.523 1.523 0 0 1-.242-1.25c.104-.44.39-.839.798-1.11a2.099 2.099 0 0 1 1.383-.339 1.75 1.75 0 0 1 1.181.627c.432.571 10.634 14.15 14.872 31.06 1.188 4.736 1.556 9.131 1.881 13.01.443 5.281.792 9.452 3.043 10.86 1.362.852 3.68.857 7.084.014.893-.22 1.893-.919 2.204-1.17l.713-.575.899.13c.03.005 3.49.482 7.5-.752 1.241-.4 2.411-.99 3.457-1.744 6.041-4.335 7.289-12.892 3.709-25.436-5.797-20.333-20.167-34.245-31.205-42.332-12.02-8.813-22.812-12.834-22.919-12.874a1.614 1.614 0 0 1-.96-.904 1.578 1.578 0 0 1 .071-1.304 1.984 1.984 0 0 1 1.059-.942c.467-.182.98-.192 1.428-.028.456.168 11.291 4.195 23.692 13.268 11.466 8.392 26.406 22.84 32.454 44.043 4.054 14.208 2.369 23.737-5.152 29.133a17.086 17.086 0 0 1-4.294 2.226Z"/><path fill="url(#e)" fill-rule="nonzero" stroke="#20263D" stroke-width="5" d="M263.087 237.391c.152 11.142-2.338 19.496-6.669 25.835-4.337 6.346-10.671 10.892-18.585 14.147-15.966 6.566-37.798 7.67-60.898 7.985-23.056.314-43.852-.804-58.928-7.488-7.466-3.31-13.443-7.953-17.612-14.413-4.173-6.467-6.656-14.948-6.809-26.134-.304-22.35 9.349-44.377 24.765-60.91 15.415-16.533 36.425-27.399 58.652-27.702 22.184-.302 43.549 10.543 59.501 27.252 15.953 16.71 26.279 39.07 26.583 61.428Z" transform="translate(2 4)"/><path fill="#371A45" fill-rule="nonzero" d="M171.93 319.563s21.254 29.732 17.52 23.49c-.003-.007 1.468-1.107-.005-.02.005.02 38.133-31.68 52.148-51.808 14.719-20.362 30.494-36.628 17.64-80.942-14.122 93.328-100.325 87.401-87.303 109.28Z" opacity=".2"/><path fill="url(#f)" fill-rule="nonzero" d="M229.087 165.358c-1.574 34.45-11.65 14.28-41.264 14.682-29.613.403-66.541 20.84-64.104-13.782 4.018-27.906 59.725-24.335 59.725-24.335s46.733-.426 45.643 23.435Z" transform="translate(2 4)"/><path fill="#1A1F36" fill-rule="nonzero" d="M193.617 164.354c.138 2.217-4.103 6.335-13.755 6.94-10.017.287-14.103-4.184-14.209-5.866-.138-2.218 2.497 1.194 14.26 1.134 11.762-.06 13.565-4.425 13.704-2.208Z"/><path fill="url(#g)" fill-opacity=".54" fill-rule="nonzero" d="M29.961 0c-.106.701-4.61 62.914-4.61 62.914C11.197 74.301 1.54 91.224.178 110.832c-2.056 28.364 13.76 53.802 37.765 65.486-8.542-12.244-13.169-27.457-11.992-43.565 1.362-19.608 11.02-36.531 25.171-47.918 0 0 1.865-25.329 2.728-38.867C57.188.563 29.961 0 29.961 0Z" opacity=".8" style="mix-blend-mode:lighten" transform="translate(108.165 114.737)"/><path stroke="#3F3A54" stroke-width="1.5" d="M182.851 211.29c.036 2.681-4.645 9.158-4.645 9.158s-4.855-6.347-4.892-9.029c-.036-2.68 2.028-4.808 4.703-4.845 2.559-.035 4.799 2.151 4.834 4.715Z"/><path stroke="#3F3A54" stroke-linecap="round" stroke-width="4" d="M233.077 172.148c.372 10.256-22.03 36.463-53.538 37.592-31.507 1.128-55.929-24.055-56.301-34.31"/><path fill="url(#h)" fill-rule="nonzero" stroke="#2C2247" stroke-width="4" d="m232.505 120.374-.014-.004-.013-.004c-33.707-10.483-69.42-12.823-104.2-6.585-2.204.364-3.909-.145-4.993-1.058-1.061-.894-1.773-2.38-1.617-4.517l.001-.017.001-.017c.135-2.4.296-4.8.458-7.229l.02-.29c.169-2.517.338-5.06.478-7.634.165-2.127 1.168-4.361 2.753-6.174 1.59-1.817 3.648-3.078 5.776-3.433l.009-.001.01-.002c34.153-6.011 69.222-3.83 102.324 6.464l.012.004c2.041.62 3.927 2.145 5.284 4.171 1.349 2.012 2.068 4.36 1.968 6.475-.513 5.163-.795 10.201-1.074 15.191-.162 2.094-1.062 3.508-2.226 4.277-1.169.772-2.869 1.066-4.957.383Z" transform="translate(2 4)"/><path fill="#1A1F36" fill-rule="nonzero" d="M150.998 98.45c.712.478 1.419.998 2.099 1.44.68.44 1.359.84 2.02 1.19.66.35 1.327.6 1.972.845.336.068.648.222.984.264.166.028.328.076.493.113l.501.06c.318.061.715.052 1.078.08.364.026.723-.005 1.091.001l.53-.044c.177-.007.353-.027.527-.062l.525-.077c.166-.045.336-.085.51-.12a8.92 8.92 0 0 0 2-.78 8.5 8.5 0 0 0 .963-.606c.154-.117.317-.233.466-.36.157-.115.306-.276.433-.36l.259-.177a.734.734 0 0 1 1.085.335.735.735 0 0 1 .042.427c-.034.173-.049.29-.089.423-.04.134-.07.26-.109.384a5.89 5.89 0 0 1-.667 1.425l-.213.335-.24.315a8.209 8.209 0 0 1-2.426 2.08c-.935.557-1.965.863-2.996 1.1l-.777.11a5.295 5.295 0 0 1-.776.073l-.771.02c-.13 0-.255.01-.39.002l-.409-.036-.816-.084c-.27-.05-.539-.106-.806-.172a5.552 5.552 0 0 1-.789-.227c-.26-.087-.513-.187-.77-.287a10.338 10.338 0 0 1-5.371-5.416 7.472 7.472 0 0 1-.455-1.474.796.796 0 0 1 .039-.456.774.774 0 0 1 1.151-.356l.102.072ZM213.109 101.31c-.747.42-1.493.884-2.205 1.27s-1.421.733-2.107 1.03c-.686.296-1.37.494-2.032.69-.341.04-.663.17-1.002.184-.168.016-.333.051-.5.075l-.504.02c-.322.037-.717-.003-1.081-.005-.365 0-.721-.06-1.088-.083l-.525-.086a3.275 3.275 0 0 1-.52-.102l-.517-.118a8.12 8.12 0 0 0-.5-.16 8.878 8.878 0 0 1-1.932-.934 8.55 8.55 0 0 1-.914-.679c-.144-.128-.297-.257-.436-.395-.147-.127-.283-.299-.404-.393l-.244-.196a.73.73 0 0 0-1.107.248.739.739 0 0 0-.076.423c.021.175.027.293.056.43.03.136.049.262.079.39a5.89 5.89 0 0 0 .553 1.473l.186.351.215.333a8.233 8.233 0 0 0 2.256 2.262c.888.63 1.891 1.014 2.901 1.33l.766.17c.252.064.509.11.768.135l.767.08c.13.01.254.03.389.033l.411-.005.819-.02c.273-.03.546-.063.818-.108.271-.035.54-.09.804-.164.265-.067.526-.147.79-.226a10.34 10.34 0 0 0 5.778-4.98c.238-.458.428-.939.568-1.435a.79.79 0 0 0-.258-.833.776.776 0 0 0-.865-.069l-.107.064Z"/><path fill="#FFB200" fill-rule="nonzero" d="M271.705 332.007a104.566 104.566 0 0 1 3.719 12.435c-17.911 12.42-52.721 29.094-93.949 44.2-41.227 15.107-78.583 24.872-100.291 26.97a104.28 104.28 0 0 1-5.436-12.463 99.117 99.117 0 0 1-1.81-5.468 103.854 103.854 0 0 1-3.09-13.42 103.398 103.398 0 0 1 5.8-54.088c10.472-26.853 32.006-49.26 61.247-59.972 29-10.623 59.684-7.588 84.961 5.842a104.235 104.235 0 0 1 27.908 21.566 103.034 103.034 0 0 1 11.662 15.373c.281.445.553.892.823 1.344a103.625 103.625 0 0 1 6.072 11.771c.667 1.52 1.3 3.062 1.897 4.627.166.422.329.852.487 1.283ZM276.712 384.821a104.405 104.405 0 0 1-9.355 29.018c-11.415 23.137-31.418 42.101-57.595 51.692-26.233 9.612-53.844 8.043-77.589-2.283a105.007 105.007 0 0 1-25.797-16.02c25.974-4.543 56.207-12.722 87.723-24.268 31.515-11.545 59.87-24.83 82.613-38.139Z"/><path fill="#D66B09" fill-rule="nonzero" d="M194.099 422.962c31.512-11.545 59.863-24.833 82.613-38.14a103.111 103.111 0 0 1-2.859 12.414c-17.554 10.87-45.277 23.85-77.313 35.587-30.687 11.24-59.095 19.062-79.389 22.378a104.435 104.435 0 0 1-10.775-7.972c25.974-4.543 56.207-12.72 87.723-24.267ZM271.216 330.721a104.385 104.385 0 0 1 4.206 13.722c-17.911 12.42-52.722 29.094-93.949 44.2-41.227 15.106-78.583 24.872-100.291 26.97a104.28 104.28 0 0 1-5.437-12.463c20.496-.76 58.476-10.074 100.509-25.473 43.682-16.007 79.776-34.204 94.962-46.956ZM69.136 368.588l.866-6.959c14.111 1.765 52.047-7.287 92.237-22.012 47.946-17.567 79.394-35.47 85.677-44.075l5.681 4.13c-8.314 11.386-44.054 30.085-88.934 46.53-41.776 15.31-80.173 24.307-95.527 22.386ZM76.907 333.677l-.525-6.995c16.112-1.2 44.437-8.66 73.937-19.466 30.904-11.323 57.876-24.333 70.389-33.944l4.288 5.558c-13.039 10.02-40.724 23.42-72.253 34.97-30.064 11.007-59.122 18.624-75.836 19.877Z"/><path fill="#D66B09" fill-rule="nonzero" d="m70.571 387.76.548-6.994c16.258 1.264 55.462-8.25 97.555-23.672 44.154-16.18 81.605-35.252 91.073-46.384l5.359 4.538c-10.337 12.151-48.115 31.614-94.008 48.43-43.631 15.984-83.085 25.437-100.527 24.082ZM132.171 465.003v-1.747l-.703-1.612.335-.146h.372c14.138.013 41.59-6.686 69.924-17.069 28.495-10.44 53.067-22.675 64.128-31.93l2.258 2.687c-11.351 9.498-36.324 21.963-65.174 32.535-29.135 10.674-56.394 17.297-71.14 17.282Z"/><path fill="#371A45" fill-rule="nonzero" d="M173.918 474.355c-24.93 0-49.551-8.69-69.139-25.239l-4.034-3.409 5.206-.91c26.76-4.683 56.947-13.035 87.296-24.154 30.35-11.119 58.779-24.244 82.215-37.954l4.56-2.667-.867 5.203c-6.282 37.777-32.544 69.438-68.538 82.626a106.668 106.668 0 0 1-36.699 6.504Zm-61.766-25.666c27.532 20.874 64.117 26.486 96.757 14.526 32.639-11.96 56.895-39.859 64.346-73.552-22.74 12.87-49.684 25.133-78.303 35.618-28.62 10.486-57.114 18.538-82.798 23.408h-.002Z"/><path fill="#FFC536" fill-rule="nonzero" d="M332.322 325.501c5.265 14.307-17.189 36.845-55.612 59.321-22.749 13.308-51.101 26.596-82.613 38.141-31.511 11.545-61.748 19.724-87.722 24.267-43.87 7.676-75.599 4.991-80.863-9.318-4.782-12.994 13.291-32.766 45.416-53.124.726 4.357 1.73 8.664 3.004 12.895-8.927 6.261-13.475 11.413-12.267 14.698 1.232 3.345 8.278 4.315 19.513 3.232 21.709-2.1 59.065-11.858 100.291-26.969 41.226-15.11 76.041-31.78 93.949-44.2 9.265-6.424 14.008-11.716 12.777-15.063-1.207-3.28-8.016-4.276-18.88-3.286a103.625 103.625 0 0 0-6.072-11.77c37.7-5.227 64.301-1.818 69.079 11.176Z"/><path fill="#FF9100" fill-rule="nonzero" d="m71.056 390.7.798 1.176c-8 5.26-14.234 10.037-18.97 14.296 3.639-4.572 9.684-9.708 18.172-15.472Z"/><path fill="#FF9100" fill-rule="nonzero" d="m72.654 393.043-.801-1.168c.135-.098.29-.193.445-.289l.356 1.457Z"/><path fill="#FFEC90" fill-rule="nonzero" d="M301.79 326.098c-1.324-3.582-4.9-5.953-10.842-7.134-5.747-1.135-13.707-1.15-23.961-.054l.152 1.408.452 4.244c19.566-2.09 27.727.433 28.862 3.498 1.882 5.122-11.769 18.855-46.213 36.875-19.254 10.07-42.354 20.133-66.79 29.09-14.377 5.266-28.655 9.946-42.289 13.855-9.54 2.758-18.765 5.136-27.493 7.093-37.944 8.508-57.256 6.856-59.145 1.722-1.107-2.997 3.308-10.005 18.902-20.75.269-.19.548-.372.828-.566l-1.6-2.347-.8-1.167-.798-1.175c-8.488 5.764-14.533 10.9-18.172 15.471-3.815 4.753-5.017 8.887-3.698 12.484 1.293 3.5 4.796 5.674 9.786 6.862 13.018 3.1 36.116-.558 55.939-5.006 8.975-2.009 18.463-4.466 28.277-7.302 13.63-3.93 27.876-8.608 42.219-13.862 24.668-9.037 47.998-19.204 67.48-29.383 24.879-13.01 53.566-31.19 48.904-43.856Z"/><path fill="#FFEC90" fill-rule="nonzero" d="M319.134 324.738c-4.883-13.267-32.236-12.685-54.311-9.85l.721 5.63c.536-.067 1.071-.134 1.596-.202 9.546-1.162 17.418-1.544 23.809-1.358 14.53.441 21.408 3.836 22.849 7.736 2.584 7.04-9.123 23.46-50.669 46.557-21.472 11.942-47.375 23.592-74.923 33.678-12.601 4.612-25.151 8.76-37.355 12.352-14.508 4.28-28.532 7.77-41.616 10.357-46.649 9.22-66.222 4.265-68.815-2.776-1.438-3.909 1.621-10.956 12.463-20.69 4.736-4.26 10.97-9.037 18.97-14.297.137-.099.292-.194.446-.29.291-.194.592-.387.895-.59l-1.542-2.369-1.556-2.393c-18.668 12.104-39.904 29.311-35.011 42.581 1.889 5.134 7.067 8.227 14.101 9.902 16.557 3.932 43.333.011 61.147-3.51 15.639-3.088 32.591-7.456 50.07-12.877a609.944 609.944 0 0 0 29.751-10.06c27.828-10.197 54.016-21.97 75.737-34.055 22.613-12.575 59.59-36.233 53.243-53.476Z"/><path fill="#371A45" fill-rule="nonzero" d="M64.207 453.922c-22.925 0-37.333-5.148-41.017-15.159-5.127-13.935 11.356-33.844 46.417-56.062l3.157-2 .619 3.68a101.52 101.52 0 0 0 2.933 12.59l.514 1.706-1.462 1.025c-12.35 8.662-11.376 11.796-11.365 11.825.01.03 1.338 3.13 16.949 1.625 22.156-2.142 60.356-12.422 99.677-26.828 39.321-14.406 75.108-31.233 93.392-43.91 12.873-8.933 11.883-12.15 11.866-12.182-.018-.03-1.303-3.047-16.332-1.678l-1.779.163-.715-1.635a101.676 101.676 0 0 0-5.927-11.487l-1.92-3.2 3.704-.515c41.137-5.7 66.613-1.164 71.741 12.772 5.608 15.242-15.052 37.95-56.691 62.304-23.685 13.856-52.391 27.11-83.011 38.33-30.621 11.218-61.103 19.65-88.148 24.381-16.316 2.85-30.623 4.255-42.602 4.255Zm4.96-65.065c-29.91 19.473-45.312 37.38-41.33 48.203 4.565 12.402 34.496 15.366 78.113 7.736 26.76-4.682 56.946-13.034 87.296-24.153 30.35-11.119 58.779-24.244 82.215-37.954 38.205-22.348 59.104-43.937 54.541-56.339-3.984-10.824-27.34-14.529-62.768-10.063 1.3 2.347 2.514 4.76 3.631 7.2 11.811-.883 18.071.732 19.658 5.042 1.69 4.59-2.66 10.29-13.686 17.942-18.889 13.093-54.216 29.728-94.511 44.491-40.295 14.763-78.013 24.896-100.905 27.108-13.368 1.287-20.385-.247-22.074-4.839-1.585-4.31 2.144-9.588 11.722-16.54a105.716 105.716 0 0 1-1.902-7.834Z"/><path fill="#FFF" fill-rule="nonzero" d="M275.422 344.8a149.534 149.534 0 0 1-6.921 4.498 104.807 104.807 0 0 0-2.684-8.366c-.161-.43-.324-.858-.486-1.284a99.951 99.951 0 0 0-1.897-4.629 104.612 104.612 0 0 0-6.065-11.774c-.27-.449-.547-.895-.824-1.34a102.721 102.721 0 0 0-11.666-15.375 104.133 104.133 0 0 0-27.907-21.559c-25.28-13.43-55.965-16.473-84.965-5.845-19.359 7.094-35.342 19.316-46.973 34.564a103.778 103.778 0 0 1 52.86-43.13c28.998-10.623 59.685-7.586 84.958 5.844a104.181 104.181 0 0 1 27.912 21.566 102.873 102.873 0 0 1 12.483 16.714 103.259 103.259 0 0 1 6.072 11.768c.668 1.522 1.3 3.065 1.896 4.63.17.427.332.851.487 1.29a104.463 104.463 0 0 1 3.72 12.427Z" opacity=".41"/><path fill="#371A45" fill-rule="nonzero" d="m79.747 418.232-.768-1.482a107.378 107.378 0 0 1-7.417-18.355 106.568 106.568 0 0 1-3.075-13.198c-8.37-50.354 20.46-99.689 68.55-117.309 48.091-17.62 102.063 1.377 128.334 45.171a106.6 106.6 0 0 1 6.216 12.052 107.546 107.546 0 0 1 6.248 18.781l.378 1.631-1.377.955c-18.889 13.093-54.216 29.728-94.511 44.491-40.295 14.763-78.014 24.89-100.905 27.102l-1.673.161Zm94.049-151.942c-11.96 0-23.827 2.11-35.053 6.23-45.86 16.798-73.353 63.848-65.372 111.862.71 4.254 1.69 8.46 2.934 12.59a102.062 102.062 0 0 0 6.314 16.007c22.379-2.48 59.654-12.605 97.999-26.654 38.344-14.049 73.329-30.4 91.999-42.959a102.54 102.54 0 0 0-3.239-10.506 101.19 101.19 0 0 0-2.326-5.773 101.718 101.718 0 0 0-5.929-11.495c-18.769-31.287-52.369-49.302-87.327-49.302Z"/><path fill="#371A45" fill-rule="nonzero" d="M147.169 400.288c-27.099 8.44-50.518 13.834-65.988 15.326-11.234 1.083-18.28.113-19.512-3.23-1.208-3.287 3.342-8.439 12.267-14.7a103.072 103.072 0 0 1-1.924-7.392c-28.983 19.202-44.955 37.585-40.429 49.888 1.311 3.564 4.266 6.404 8.638 8.545-.414-.117-.816-.247-1.214-.37 14.202 4.493 38.07 3.995 67.37-1.13 25.974-4.544 56.208-12.723 87.723-24.268a565.657 565.657 0 0 0 7.263-2.717c-88.455 18.98-54.194-19.952-54.194-19.952ZM149.645 385.945c31.265-.415 96.563-27.743 123.57-40.01a142.02 142.02 0 0 0 2.209-1.493c-.665-2.848 1.497-.576.581-3.4-17.029 8.275-96.814 43.674-132.43 44.146a57.037 57.037 0 0 1-4.662-.136 55.64 55.64 0 0 0 10.732.893Z" opacity=".3"/><path fill="#371A45" fill-rule="nonzero" d="M276.002 341.043c-17.03 8.275-96.814 43.674-132.431 44.146-18.691.247-37.338-8.696-41.258-26.927a24.136 24.136 0 0 1-.166-.85c-.03-.175-.058-.35-.087-.53a102.602 102.602 0 0 1-1.272-19.146 104.224 104.224 0 0 1 15.172-51.304 103.926 103.926 0 0 0-33.072 43.953 103.697 103.697 0 0 0-5.973 54.64c.022.174.052.348.08.522a104.333 104.333 0 0 0 3.008 12.898 97.715 97.715 0 0 0 1.805 5.468c.071.195.137.383.209.578a106.95 106.95 0 0 0 4.536 10.49c-.885.12-1.752.231-2.6.333 22.034-2.618 57.992-12.187 97.515-26.666 41.227-15.105 76.041-31.784 93.948-44.2-.652-2.853 1.504-.58.586-3.405ZM116.392 448.387a104.812 104.812 0 0 0 15.022 8.05c23.743 10.325 51.357 11.894 77.589 2.283 26.177-9.59 46.18-28.555 57.595-51.693a103.949 103.949 0 0 0 7.969-22.163c-22.513 13.04-50.346 26.03-81.227 37.343-29.008 10.628-56.92 18.393-81.435 23.106a105.559 105.559 0 0 0 4.487 3.074Z" opacity=".3"/><g fill="#371A45" fill-rule="nonzero" opacity=".8"><path d="M195.311 271.154s23.748-8.768 43.397 12.373c18.057 19.427-3.048 38.594-3.048 38.594s6.497 26.474-10.383 29.87c-14.331 2.881-27.283-11.784-25.627-29.927 1.361-14.917 4.456-13.528 3.316-21.71-1.291-9.258-19.943-11.352-19.943-11.352h-7.019s-18.653 2.086-19.944 11.35c-1.139 8.182 1.954 6.793 3.315 21.711 1.655 18.143-11.299 32.808-25.626 29.926-16.887-3.395-10.383-29.869-10.383-29.869s-21.105-19.167-3.049-38.595c19.648-21.14 43.397-12.372 43.397-12.372l31.597.001Z" opacity=".3"/></g><path fill="#2B88C9" fill-rule="nonzero" d="M202.115 252.813s33.887-19.834 61.924 8.774c25.767 26.292-4.349 52.231-4.349 52.231s9.28 35.828-14.817 40.423c-20.449 3.901-38.929-15.946-36.568-40.498 1.943-20.19 6.357-18.309 4.731-29.39-1.841-12.539-28.46-15.365-28.46-15.365h-10.019s-26.612 2.822-28.46 15.364c-1.627 11.073 2.789 9.193 4.732 29.391 2.362 24.55-16.119 44.4-36.568 40.498-24.097-4.595-14.816-40.423-14.816-40.423s-30.117-25.939-4.351-52.23c28.037-28.609 61.994-5.732 61.994-5.732"/><path fill="#371A45" fill-rule="nonzero" d="M257.885 346.263c-2.483 3.744-6.546 6.752-13.008 7.981-20.458 3.901-38.931-15.95-36.57-40.5 1.943-20.19 6.356-18.313 4.732-29.38-1.842-12.539-28.464-15.363-28.464-15.363h-10.018s-26.612 2.822-28.458 15.363c-1.63 11.067 2.789 9.185 4.732 29.38 2.363 24.55-16.117 44.401-36.57 40.5-6.46-1.229-10.523-4.237-13.008-7.98.178.036.356.071.534.1 24.358 4.223 46.369-16.724 43.559-43.316-2.329-21.863-7.58-19.828-5.637-31.823 2.192-13.575 33.893-16.633 33.893-16.633h11.932s31.703 3.058 33.894 16.633c1.936 11.995-3.327 9.96-5.635 31.823-2.811 26.592 19.199 47.54 43.557 43.315.178-.03.356-.065.535-.1Z" opacity=".35"/><path fill="#20263D" fill-rule="nonzero" d="M201.668 252.053c4.522-3.12 9.555-5.235 14.838-6.679a53.001 53.001 0 0 1 8.091-1.535 53.745 53.745 0 0 1 8.3-.167c2.779.154 5.539.633 8.261 1.257 2.723.625 5.359 1.612 7.944 2.672 5.109 2.298 9.788 5.458 13.92 9.147 4.096 3.657 7.8 8.042 10.46 13.116a34.979 34.979 0 0 1 2.942 8.12 31.3 31.3 0 0 1 .562 8.658c-.421 5.784-2.398 11.27-5.166 16.118a54.018 54.018 0 0 1-4.692 6.9 56.812 56.812 0 0 1-2.711 3.153c-.471.51-.951 1.012-1.449 1.503-.497.491-.974.96-1.578 1.492l.832-2.659c.48 1.966.801 3.778 1.089 5.678.288 1.9.482 3.776.607 5.678a53.544 53.544 0 0 1-.394 11.554 36.994 36.994 0 0 1-1.377 5.783 27.98 27.98 0 0 1-2.583 5.54 22.347 22.347 0 0 1-4.092 4.75 21.752 21.752 0 0 1-5.357 3.267 26.282 26.282 0 0 1-5.893 1.593c-.983.181-1.986.227-2.981.318-.997.011-1.995.07-3.003-.012a28.221 28.221 0 0 1-5.928-.9 29.424 29.424 0 0 1-5.619-2.046c-7.215-3.443-12.896-9.475-16.466-16.424-3.576-6.977-5.127-14.908-4.657-22.665.108-1.972.353-3.78.563-5.659l.399-2.799.499-2.802c.386-1.864.798-3.739 1.349-5.576.522-1.837 1.175-3.648 1.663-5.262.484-1.504.726-3.076.715-4.656a11.25 11.25 0 0 0-.043-1.218c-.027-.41-.045-.82-.108-1.247l-.155-1.269c-.08-.334-.123-.65-.218-.969-.745-2.516-3.16-4.744-6.043-6.364-2.892-1.647-6.193-2.839-9.566-3.786a72.857 72.857 0 0 0-10.313-2.054l.275.015h-10.028l.276-.015a72.843 72.843 0 0 0-10.312 2.054c-3.375.942-6.676 2.14-9.568 3.786-2.888 1.62-5.296 3.841-6.041 6.364-.095.32-.138.63-.22.97l-.155 1.268c-.063.427-.081.835-.106 1.247-.037.405-.052.811-.045 1.218-.009 1.58.233 3.152.717 4.656.499 1.614 1.144 3.425 1.663 5.262.549 1.837.963 3.712 1.349 5.576l.499 2.802.398 2.8c.211 1.877.454 3.686.563 5.658.473 7.757-1.077 15.688-4.657 22.665-3.572 6.95-9.254 12.981-16.466 16.424a29.313 29.313 0 0 1-5.617 2.046c-1.938.51-3.925.811-5.927.9-.998.082-1.996.023-3.004.012-.998-.09-1.996-.137-2.981-.318a26.305 26.305 0 0 1-5.894-1.593 21.746 21.746 0 0 1-5.356-3.268 22.352 22.352 0 0 1-4.093-4.749 27.917 27.917 0 0 1-2.581-5.54 36.905 36.905 0 0 1-1.377-5.783c-.55-3.825-.682-7.7-.396-11.554.125-1.907.328-3.8.608-5.678.286-1.9.609-3.712 1.088-5.678l.832 2.66a33.479 33.479 0 0 1-1.579-1.493 63.513 63.513 0 0 1-1.45-1.503 56.73 56.73 0 0 1-2.711-3.154 54.286 54.286 0 0 1-4.692-6.899c-2.763-4.843-4.754-10.334-5.156-16.12a31.233 31.233 0 0 1 .59-8.649 34.742 34.742 0 0 1 2.968-8.096c2.689-5.045 6.408-9.392 10.521-13.009 4.118-3.674 8.75-6.87 13.847-9.169 5.066-2.338 10.565-3.84 16.133-4.245a51.79 51.79 0 0 1 8.336.105c2.747.283 5.468.78 8.138 1.483a50.647 50.647 0 0 1 7.715 2.81c2.481 1.17 4.848 2.475 7.057 4.175a.884.884 0 0 1-.832 1.535l-.053-.02a90.19 90.19 0 0 0-14.908-3.814c-2.495-.418-5.014-.645-7.518-.81-1.254-.015-2.504-.089-3.752-.034-.624.017-1.249.017-1.871.05l-1.863.134a46.19 46.19 0 0 0-14.402 3.567 42.502 42.502 0 0 0-6.58 3.56 46.712 46.712 0 0 0-5.971 4.598c-3.825 3.355-7.057 7.211-9.362 11.523a29.467 29.467 0 0 0-2.495 6.778 25.958 25.958 0 0 0-.484 7.157c.333 4.813 2.011 9.554 4.48 13.884a49.124 49.124 0 0 0 4.229 6.218 52.39 52.39 0 0 0 2.461 2.862c.426.461.86.913 1.301 1.353.441.44.915.893 1.301 1.234l1.217 1.07-.387 1.588c-.39 1.598-.719 3.4-.977 5.127a64.845 64.845 0 0 0-.562 5.26 48.359 48.359 0 0 0 .344 10.398 31.911 31.911 0 0 0 1.165 4.91 22.86 22.86 0 0 0 2.047 4.41 17.139 17.139 0 0 0 3.051 3.545 16.493 16.493 0 0 0 3.978 2.422 21.02 21.02 0 0 0 4.667 1.25c.817.156 1.643.184 2.467.266.831 0 1.651.06 2.475-.012a23.094 23.094 0 0 0 4.888-.743 24.189 24.189 0 0 0 4.667-1.702c6.029-2.87 10.951-8.025 14.064-14.087 3.114-6.062 4.499-13.058 4.077-19.94-.088-1.693-.333-3.525-.527-5.292l-.378-2.648-.459-2.617c-.359-1.727-.735-3.439-1.237-5.115-.503-1.677-1.078-3.34-1.664-5.226a20.229 20.229 0 0 1-.936-6.179c-.017-.527.02-1.028.053-1.53.033-.504.06-1.013.128-1.494l.18-1.46c.111-.557.216-1.157.382-1.714.684-2.267 2.015-4.204 3.521-5.725 1.507-1.52 3.214-2.709 4.944-3.702 3.476-1.973 7.112-3.262 10.769-4.289a77.478 77.478 0 0 1 11.167-2.214l.118-.015h10.326l.119.015a77.451 77.451 0 0 1 11.167 2.214c3.659 1.027 7.294 2.316 10.77 4.29 1.73 1.001 3.428 2.17 4.943 3.701 1.515 1.531 2.827 3.458 3.519 5.725.167.557.273 1.157.385 1.713l.178 1.461c.069.481.096.99.128 1.493.044.51.062 1.02.055 1.531a20.26 20.26 0 0 1-.937 6.18c-.579 1.891-1.176 3.531-1.663 5.225-.487 1.693-.878 3.388-1.236 5.115l-.461 2.617-.376 2.648c-.197 1.767-.439 3.6-.528 5.291-.421 6.883.961 13.86 4.078 19.941 3.117 6.08 8.033 11.217 14.064 14.087a24.189 24.189 0 0 0 4.667 1.702c1.599.422 3.237.671 4.889.743.831.072 1.649.014 2.474.012.832-.082 1.65-.11 2.467-.267a21.02 21.02 0 0 0 4.667-1.249 16.602 16.602 0 0 0 3.979-2.422 17.164 17.164 0 0 0 3.05-3.545 22.856 22.856 0 0 0 2.046-4.41 31.65 31.65 0 0 0 1.164-4.91c.489-3.444.605-6.93.346-10.399a65.456 65.456 0 0 0-.562-5.259 56.944 56.944 0 0 0-.978-5.127l-.388-1.588 1.218-1.07c.387-.334.873-.805 1.3-1.234.428-.429.877-.892 1.303-1.353.858-.918 1.663-1.884 2.46-2.862a48.858 48.858 0 0 0 4.229-6.218c2.465-4.33 4.158-9.07 4.473-13.884a25.888 25.888 0 0 0-.514-7.149 29.423 29.423 0 0 0-2.515-6.755c-2.329-4.282-5.597-8.08-9.416-11.419a50.641 50.641 0 0 0-12.474-8.194 46.105 46.105 0 0 0-14.349-3.84c-4.971-.522-10.049-.28-15.082.54a71.646 71.646 0 0 0-14.841 4.11l-.06.025a.872.872 0 0 1-1.096-.402.88.88 0 0 1 .276-1.138l.01.006Z"/><path fill="#20263D" fill-rule="nonzero" d="m260.685 316.263-1.802.574a24.117 24.117 0 0 1-6.046.954 32.103 32.103 0 0 1-7.805-.765 45.415 45.415 0 0 1-7.242-2.37c-1.164-.462-2.283-1.055-3.416-1.573-1.108-.578-2.196-1.19-3.285-1.782 1.181.393 2.35.802 3.528 1.17 1.199.307 2.368.686 3.572.93 2.366.538 4.772.877 7.194 1.013a28.674 28.674 0 0 0 6.997-.546 19.74 19.74 0 0 0 3.238-.97 20.73 20.73 0 0 0 1.514-.668l1.623-.859a2.624 2.624 0 0 1 2.993.229 2.657 2.657 0 0 1 .838 2.894 2.655 2.655 0 0 1-1.377 1.553c-.133.071-.272.13-.415.176l-.109.04ZM100.652 311.373l1.623.858c.499.241.998.473 1.513.668 1.051.415 2.135.738 3.24.967 2.303.468 4.653.651 6.999.546a43.422 43.422 0 0 0 7.194-1.013c1.202-.244 2.373-.623 3.573-.93 1.175-.37 2.345-.78 3.527-1.17-1.089.592-2.177 1.204-3.286 1.782-1.133.518-2.246 1.111-3.415 1.573a45.427 45.427 0 0 1-7.243 2.37c-2.561.573-5.183.83-7.806.765a24.013 24.013 0 0 1-6.046-.954l-1.801-.574-.095-.03a2.64 2.64 0 0 1-1.532-1.307 2.657 2.657 0 0 1-.167-2.01 2.64 2.64 0 0 1 1.294-1.546 2.626 2.626 0 0 1 2.002-.179c.147.05.289.111.426.184ZM273.29 294.661a1.961 1.961 0 0 1-1.914-1.514 1.974 1.974 0 0 1-.01-.872c.905-4.242.246-7.25-2.016-9.2-9.377-8.078-43.078 2.243-55.27 6.902a1.96 1.96 0 0 1-1.481-.07 1.971 1.971 0 0 1-.976-2.578 1.971 1.971 0 0 1 1.06-1.04c4.711-1.8 46.393-17.263 59.227-6.208 3.406 2.934 4.517 7.316 3.3 13.025a1.963 1.963 0 0 1-1.92 1.555ZM86.64 294.66a1.968 1.968 0 0 1-1.92-1.559c-1.216-5.705-.105-10.087 3.301-13.026 12.834-11.055 54.516 4.41 59.226 6.207a1.97 1.97 0 0 1 1.061 1.041 1.98 1.98 0 0 1-.976 2.578 1.962 1.962 0 0 1-1.482.07c-12.195-4.657-45.905-14.976-55.27-6.902-2.261 1.95-2.92 4.958-2.015 9.2a1.979 1.979 0 0 1-1.076 2.195 1.944 1.944 0 0 1-.848.191v.005Z"/><path fill="#EE5B76" fill-rule="nonzero" d="M194.98 237.69c.246-9.88-7.649-18-17.634-18.136-9.984-.135-18.277 7.765-18.523 17.646-.246 9.88 7.649 18 17.634 18.135 9.984.136 18.277-7.765 18.523-17.646Z"/><path stroke="#0F1322" stroke-opacity=".6" stroke-width="2" d="M177.321 220.554c9.444.128 16.891 7.804 16.66 17.122-.232 9.318-8.056 16.787-17.499 16.66-9.444-.129-16.891-7.805-16.66-17.123.232-9.318 8.056-16.787 17.499-16.659Z"/><path fill="#FFF" fill-rule="nonzero" d="m179.892 245.283-.463.01-.088 3.434-2.198-.015.088-3.436c-.462.01-.983-.038-1.446-.029l-.088 3.436-2.197-.016.088-3.435c-2.371-.012-4.222-.034-4.222-.034l.156-2.199s1.215.034 1.677.026c.463-.009.866-.242.859-1.03-.006-.788.219-8.785.215-9.348-.005-.563-.353-.782-1.047-.769-.752.014-1.62-.026-1.62-.026l.041-2.196s2.082.017 4.337.032l.089-3.38 2.198.016-.089 3.38c.52-.01.983.037 1.446.028l.088-3.379 2.198.015-.088 3.436c2.199.24 4.924 1.09 5.174 3.394.31 2.64-1.88 3.637-1.88 3.637s2.898.734 2.863 3.606c-.093 2.816-1.638 4.872-6.091 4.842Z"/><path fill="#EE5B76" fill-rule="nonzero" d="M178.576 238.527c-.663.012-1.145-.03-1.145-.03l-1.747-.02-.148 4.192c.241-.004.904-.017 2.471.006 2.41.008 3.608-.8 3.656-2.372.048-1.573-2.424-1.789-3.087-1.776ZM180.965 234.33c.045-1.735-2.124-1.919-3.237-1.954-.821.016-1.348-.03-1.582-.026l-.085 4.141 2.93.057c.761-.126 1.928-.65 1.974-2.218Z"/></g></svg>