<svg xmlns="http://www.w3.org/2000/svg" width="146" height="25" fill="none"><path fill="#fff" d="M15.295 8.113c.616-.83.941-1.508.977-2.038.035-.53-.125-.91-.48-1.14-.355-.23-.852-.31-1.49-.241-.64.069-1.338.288-2.095.656-.497.254-.971.565-1.42.933-.45.369-.823.754-1.119 1.157-.296.403-.503.8-.621 1.192-.119.392-.089.72.089.984.177.265.508.444.994.535.485.093 1.177.058 2.077-.103 1.372-.253 2.467-.236 3.284.052.816.288 1.402.749 1.757 1.382.355.634.49 1.4.408 2.297-.083.898-.337 1.826-.763 2.78-.426.956-1.006 1.906-1.74 2.85a13.5 13.5 0 0 1-2.574 2.522 12.762 12.762 0 0 1-3.248 1.762 9.674 9.674 0 0 1-3.728.587c-1.184-.07-2.165-.347-2.946-.83-.781-.484-1.356-1.09-1.722-1.814-.368-.726-.515-1.525-.444-2.4.07-.876.355-1.75.852-2.625.45-.783 1-1.324 1.65-1.624.652-.3 1.231-.432 1.74-.397.51.034.87.202 1.083.5.213.3.118.634-.284 1.003a3.337 3.337 0 0 0-.834 1.208c-.201.484-.272.95-.213 1.4.059.448.284.84.674 1.174.391.334 1.012.524 1.864.57.71.046 1.408-.133 2.095-.536a7.466 7.466 0 0 0 1.846-1.537 9.031 9.031 0 0 0 1.331-1.986c.343-.703.52-1.341.533-1.917.012-.575-.172-1.02-.55-1.33-.38-.311-1.007-.386-1.882-.225-1.207.231-2.249.236-3.124.017-.876-.218-1.557-.598-2.042-1.14-.484-.54-.763-1.197-.834-1.968-.07-.772.083-1.6.462-2.487.378-.887.994-1.78 1.846-2.677.852-.898 1.976-1.75 3.372-2.556C11.733 1.16 13.22.681 14.532.67c1.314-.012 2.39.265 3.23.829.84.564 1.415 1.312 1.723 2.244.307.933.284 1.883-.071 2.85-.332.944-.781 1.612-1.35 2.003-.567.393-1.095.605-1.58.64-.485.034-.864-.063-1.135-.294-.273-.23-.29-.506-.054-.83ZM29.639 12.396c.213-.322.366-.518.461-.587.19-.184.485-.322.888-.415a5.26 5.26 0 0 1 1.171-.138c.379 0 .693.052.941.155.249.104.302.237.16.397a22.27 22.27 0 0 0-.941 1.468 74.73 74.73 0 0 0-.94 1.641 29.7 29.7 0 0 0-.835 1.607c-.249.518-.444.984-.586 1.399-.355.967-.314 1.606.124 1.917.438.31 1.19.155 2.255-.466.307-.184.497-.23.568-.139.07.093.035.26-.107.502-.142.241-.367.53-.674.863-.308.334-.675.651-1.1.95-.427.3-.906.559-1.439.777a4.299 4.299 0 0 1-1.65.328c-.663 0-1.143-.144-1.438-.432-.297-.287-.468-.662-.515-1.122-.64.483-1.284.875-1.935 1.175-.651.3-1.273.483-1.864.552a4.229 4.229 0 0 1-1.633-.104 2.445 2.445 0 0 1-1.242-.794c-.355-.438-.569-.985-.64-1.641-.07-.656-.006-1.353.196-2.09.2-.736.532-1.496.994-2.28a11.224 11.224 0 0 1 1.722-2.21 10.637 10.637 0 0 1 2.148-1.693c.745-.438 1.467-.737 2.165-.899.698-.16 1.35-.178 1.953-.051s1.094.409 1.473.846l.32.484Zm-3.409 5.458c.545-.783.97-1.503 1.279-2.16.307-.655.33-1.145.07-1.467-.142-.162-.343-.26-.603-.294-.26-.034-.568.006-.923.121a4.512 4.512 0 0 0-1.118.57c-.391.265-.776.617-1.154 1.053-.64.738-1.054 1.446-1.243 2.125-.19.68-.154 1.192.107 1.538.142.16.349.253.621.276.272.023.574-.023.905-.138.331-.115.68-.305 1.048-.57a4.414 4.414 0 0 0 1.011-1.054Z"/><path fill="#fff" d="M34.43 6.904c.26.23.758.414 1.492.553.733.138 1.526.218 2.378.24.19-.367.355-.701.497-1 .142-.3.249-.541.32-.726.094-.253.331-.432.71-.535.378-.104.763-.15 1.154-.138.39.011.728.075 1.012.19.284.115.39.276.32.483-.167.461-.38.968-.64 1.52.426-.07.781-.173 1.065-.311.402-.184.64-.15.71.103.071.254-.19.645-.78 1.175-.19.184-.44.334-.746.449-.308.115-.663.219-1.066.31-.402.83-.84 1.693-1.313 2.591-.474.898-.923 1.757-1.35 2.574-.425.818-.804 1.543-1.135 2.176a22.53 22.53 0 0 0-.675 1.364c-.26.6-.332 1.066-.213 1.4.118.333.35.558.692.673.343.115.77.121 1.279.017a4.736 4.736 0 0 0 1.544-.639c.307-.185.497-.23.568-.139.071.093.035.26-.106.502-.142.24-.38.53-.71.863a6.36 6.36 0 0 1-1.243.95c-.497.3-1.065.559-1.704.777a6.308 6.308 0 0 1-2.06.328c-.686 0-1.206-.138-1.562-.415-.355-.276-.573-.65-.656-1.122-.083-.472-.054-1.013.088-1.624.143-.61.379-1.26.71-1.951.214-.437.48-.967.8-1.59.319-.62.674-1.283 1.064-1.985.39-.703.787-1.422 1.19-2.16.402-.736.792-1.45 1.171-2.14-.663 0-1.278-.03-1.846-.087a8.396 8.396 0 0 1-1.455-.259c-.474-.138-.764-.38-.87-.726a1.608 1.608 0 0 1 0-1c.106-.323.29-.571.55-.743.26-.173.533-.155.817.052Z"/><path fill="#fff" d="M47.246 10.773c.213 0 .402.109.568.328.165.218.272.465.32.742.047.277.023.535-.071.777-.095.242-.297.386-.604.432-.663.138-1.284.483-1.864 1.036a7.303 7.303 0 0 0-1.402 1.813c-.355.656-.568 1.278-.64 1.866-.07.587.083.984.462 1.191.331.185.698.225 1.1.121a3.004 3.004 0 0 0 1.155-.604c.366-.3.721-.673 1.065-1.122.343-.45.627-.904.852-1.365.224-.46.378-.915.461-1.364.083-.45.077-.835-.017-1.157-.071-.23-.036-.461.106-.691.142-.23.343-.42.604-.57.26-.15.532-.242.816-.277a.924.924 0 0 1 .746.225c.213.185.544.323.994.415.45.092.952.098 1.509.017.556-.08 1.141-.294 1.757-.64.615-.345 1.195-.886 1.74-1.623l.035-.034c.64-.875 1.42-1.497 2.343-1.865.473-.162.846-.11 1.119.155.271.265.461.599.568 1.001.106.403.118.8.035 1.192-.083.392-.243.633-.48.725a2.403 2.403 0 0 0-.922.64c-.26.288-.474.628-.64 1.019a4.828 4.828 0 0 0-.337 1.26c-.059.45-.041.905.054 1.365.118.69.171 1.468.16 2.331a7.497 7.497 0 0 1-.444 2.47 4.297 4.297 0 0 0 1.473-.397 6.548 6.548 0 0 0 1.296-.812c.26-.23.444-.305.55-.224.107.08.107.253 0 .518-.106.264-.32.598-.639 1.001-.32.403-.758.795-1.313 1.175-.557.38-1.238.726-2.042 1.036-.805.31-1.74.512-2.805.604h-.212c-.805.07-1.486-.006-2.042-.224-.556-.218-1.006-.501-1.349-.846a3.188 3.188 0 0 1-.745-1.14c-.155-.414-.226-.771-.214-1.07.012-.3.095-.507.249-.622.154-.115.373-.057.657.172.497.461 1.035.714 1.615.76a2.256 2.256 0 0 0 1.544-.414c.45-.323.805-.818 1.066-1.486.26-.667.319-1.508.177-2.521a6.473 6.473 0 0 1-.071-1.658c-.474.345-1.077.587-1.81.725-.735.138-1.622.081-2.663-.172-.048.829-.249 1.71-.604 2.642a9.5 9.5 0 0 1-1.473 2.573 8.448 8.448 0 0 1-2.219 1.952c-.852.518-1.81.777-2.876.777-1.065 0-1.887-.195-2.467-.587-.58-.392-.989-.881-1.225-1.469a4.402 4.402 0 0 1-.302-1.9 6.769 6.769 0 0 1 .338-1.847c.189-.668.514-1.37.976-2.107a11.875 11.875 0 0 1 1.633-2.056 9.113 9.113 0 0 1 2.06-1.571c.745-.414 1.508-.621 2.289-.621Z"/><path fill="#fff" d="M60.134 22.137c.166-.575.456-1.358.87-2.349.413-.99.899-2.067 1.455-3.23a191.318 191.318 0 0 1 1.74-3.54c.603-1.197 1.165-2.308 1.686-3.333.52-1.025.964-1.888 1.331-2.592.367-.702.586-1.133.657-1.294.118-.23.367-.398.746-.501.378-.104.763-.15 1.154-.139.39.012.721.07.994.173.272.103.36.248.266.432-.048.138-.237.535-.568 1.191-.332.657-.74 1.469-1.225 2.436-.485.967-1.012 2.033-1.58 3.195a741.536 741.536 0 0 0-1.668 3.437c.923-1.128 1.792-2.05 2.609-2.763.817-.714 1.562-1.255 2.237-1.624.674-.368 1.272-.581 1.793-.64.52-.056.946.007 1.278.19.402.255.656.536.763.847.106.31.1.68-.018 1.105-.119.427-.343.916-.674 1.469a34.622 34.622 0 0 1-1.243 1.9c-.426.621-.734 1.145-.923 1.571-.19.427-.296.772-.32 1.037-.023.265.012.46.107.587a.7.7 0 0 0 .39.259c.213.092.539.092.977 0 .438-.092.893-.288 1.367-.587.45-.277.639-.26.568.051-.071.311-.338.703-.8 1.175-.46.472-1.082.933-1.863 1.381-.781.45-1.669.674-2.663.674-.615 0-1.082-.126-1.402-.38a1.562 1.562 0 0 1-.586-.984c-.07-.402-.035-.857.107-1.364a6.01 6.01 0 0 1 .71-1.555c.307-.506.615-.99.923-1.45.307-.46.55-.864.728-1.209.177-.346.278-.621.301-.829.024-.207-.083-.322-.32-.346-.189 0-.55.208-1.082.622-.532.415-1.107.933-1.722 1.554a44.224 44.224 0 0 0-1.846 1.987 24.422 24.422 0 0 0-1.491 1.848c-.142.346-.26.651-.355.915-.095.265-.166.49-.213.674-.071.23-.29.392-.657.483a4.126 4.126 0 0 1-1.136.121 3.436 3.436 0 0 1-1.03-.172c-.295-.105-.42-.248-.372-.433Z"/><path fill="#fff" d="M77.778 12.534c.19-.184.485-.316.888-.396.402-.08.792-.122 1.171-.122s.692.047.94.138c.249.093.303.231.16.415a20.576 20.576 0 0 0-1.614 2.711 36.739 36.739 0 0 0-1.19 2.643c-.356.967-.314 1.606.124 1.917.438.31 1.19.155 2.254-.466.473-.277.675-.259.604.052-.071.31-.337.703-.799 1.174-.462.473-1.065.933-1.81 1.382a4.566 4.566 0 0 1-2.397.674c-.687 0-1.178-.155-1.473-.466-.296-.311-.462-.714-.497-1.21-.035-.494.035-1.04.213-1.64.177-.599.396-1.197.656-1.796.166-.415.374-.88.622-1.399.248-.518.503-1.019.763-1.503.26-.483.515-.915.764-1.295.248-.381.455-.651.62-.813Zm2.379-1.796c-.592 0-.947-.236-1.065-.708-.12-.472-.072-.984.142-1.537.212-.553.556-1.066 1.029-1.538.474-.471 1.029-.708 1.668-.708.426 0 .734.11.923.328.19.219.296.495.32.829.023.334-.042.697-.195 1.088a4.086 4.086 0 0 1-.64 1.088c-.272.334-.597.61-.976.83-.379.22-.78.328-1.206.328ZM112.037.86c.378-.208.781-.196 1.207.034.427.23.799.552 1.119.967.319.414.533.863.639 1.347.106.484.017.898-.266 1.243A22.572 22.572 0 0 0 113.28 6.3a59.617 59.617 0 0 0-1.598 2.35 92.525 92.525 0 0 0-1.615 2.59c-.532.887-1.029 1.74-1.491 2.556a36.754 36.754 0 0 0-1.207 2.314 18.19 18.19 0 0 0-.763 1.814c-.213.622-.296 1.105-.249 1.45.048.346.201.57.462.674.26.103.597.098 1.012-.017.414-.115.892-.334 1.438-.657.307-.184.497-.23.568-.138.071.092.034.259-.107.501-.142.241-.367.53-.674.864-.308.334-.682.65-1.119.95-.438.3-.923.558-1.455.777a4.302 4.302 0 0 1-1.652.327c-1.089 0-1.822-.442-2.201-1.33-.379-.886-.332-2.192.142-3.92.047-.184.13-.426.249-.725.118-.3.248-.645.39-1.037-.734.047-1.455.024-2.166-.069a30.493 30.493 0 0 1-2.094-.346 71.857 71.857 0 0 1-1.793 3.161 36.922 36.922 0 0 1-1.775 2.694c-.58.795-1.136 1.456-1.668 1.986-.533.53-1.024.875-1.474 1.037a1.04 1.04 0 0 1-.87-.035 2.06 2.06 0 0 1-.709-.604 3.585 3.585 0 0 1-.497-.915 3.114 3.114 0 0 1-.213-.967c-.012-.3.041-.553.16-.76.118-.208.308-.311.567-.311.237 0 .527-.156.87-.466.343-.31.705-.737 1.083-1.278.379-.54.781-1.18 1.208-1.918.426-.736.851-1.53 1.277-2.383-.686-.07-1.337-.08-1.953-.034a3.968 3.968 0 0 0-1.74.552c-.354.208-.597.254-.727.139-.13-.116-.19-.316-.177-.605.011-.287.094-.64.248-1.053a6.94 6.94 0 0 1 .603-1.226c.25-.403.52-.754.817-1.054.296-.299.598-.495.906-.587a5.073 5.073 0 0 1 1.846-.207c.614.046 1.254.15 1.917.31a66.376 66.376 0 0 0 1.917-4.887c.544-1.578.923-2.885 1.136-3.921.071-.368.278-.685.621-.95a3.971 3.971 0 0 1 1.207-.622 6.09 6.09 0 0 1 1.456-.276 5.056 5.056 0 0 1 1.349.069c.391.08.692.219.906.415.213.195.26.455.142.777-.096.253-.284.72-.568 1.399-.284.68-.651 1.502-1.1 2.47-.451.966-.954 2.043-1.51 3.229s-1.153 2.4-1.792 3.644c.615.23 1.23.444 1.846.64a15.4 15.4 0 0 0 1.846.465 122.12 122.12 0 0 1 1.899-3.816 95.026 95.026 0 0 1 2.077-3.8 35.647 35.647 0 0 1 1.971-3.074c.625-.863 1.152-1.399 1.578-1.606Z"/><path fill="#fff" d="M120.699 12.949c.236.62.213 1.312-.071 2.072s-.775 1.468-1.473 2.124c-.699.657-1.574 1.204-2.627 1.641-1.053.438-2.207.645-3.462.622.166.46.503.818 1.012 1.07.509.255 1.106.38 1.793.38.686 0 1.438-.12 2.254-.363a8.604 8.604 0 0 0 2.396-1.157c.402-.253.639-.322.71-.207.071.116 0 .334-.213.656-.213.323-.545.703-.994 1.14-.45.438-1.001.841-1.651 1.209a9.475 9.475 0 0 1-2.166.881c-.793.218-1.639.27-2.538.155-.923-.115-1.71-.373-2.361-.777-.651-.402-1.131-.92-1.438-1.554-.308-.633-.444-1.36-.408-2.176.035-.817.266-1.698.692-2.643a7.82 7.82 0 0 1 1.544-2.262 9.27 9.27 0 0 1 2.006-1.554 7.352 7.352 0 0 1 2.184-.83 7.268 7.268 0 0 1 2.076-.138c.64.058 1.201.23 1.687.519.485.288.835.685 1.048 1.192Zm-2.698 1.036c-.19-.184-.497-.23-.923-.138-.426.092-.882.288-1.367.587-.486.3-.953.69-1.402 1.174a5.704 5.704 0 0 0-1.065 1.624 6.193 6.193 0 0 0 2.13-.432c.662-.264 1.225-.57 1.686-.915.462-.346.787-.697.977-1.053.188-.357.177-.64-.036-.847Z"/><path fill="#fff" d="M130.391 19.373c.307-.184.491-.23.55-.138.059.092.024.259-.106.501-.13.241-.355.53-.674.864-.32.334-.699.65-1.137.95-.438.3-.923.558-1.455.777a4.3 4.3 0 0 1-1.651.327c-.687 0-1.172-.154-1.456-.465-.285-.311-.444-.714-.479-1.21-.036-.494.035-1.041.213-1.64.177-.599.384-1.197.621-1.796.118-.277.266-.587.444-.933.177-.346.367-.708.568-1.088a58.111 58.111 0 0 1 1.225-2.193 8.111 8.111 0 0 1-1.083-.19 7.008 7.008 0 0 1-.834-.26 49.408 49.408 0 0 1-1.704 3.403 24.407 24.407 0 0 1-1.793 2.815c-.604.806-1.189 1.457-1.757 1.952-.568.495-1.077.766-1.527.811-.213.024-.355-.028-.426-.155-.071-.126-.082-.288-.035-.484.047-.195.142-.397.284-.604.142-.207.308-.38.497-.518a8.152 8.152 0 0 0 1.74-1.624c.52-.645.988-1.324 1.402-2.038.414-.713.781-1.444 1.1-2.193.32-.748.598-1.445.835-2.09-.426-.414-.675-.95-.746-1.606a4.961 4.961 0 0 1 .16-1.917 4.266 4.266 0 0 1 .834-1.607c.379-.449.817-.673 1.314-.673.402 0 .721.116.959.346.236.23.378.54.426.932.046.393.017.842-.089 1.347a6.341 6.341 0 0 1-.586 1.59c.497.253 1.053.368 1.668.345a19.57 19.57 0 0 0 1.74-.138c.308-.023.592.005.853.086.26.08.449.219.568.414.118.196.164.439.142.726-.024.288-.166.627-.427 1.02-.237.391-.485.806-.746 1.243-.26.438-.503.875-.727 1.313-.226.438-.439.858-.639 1.26-.202.404-.362.767-.48 1.089-.355.967-.313 1.606.125 1.917.437.31 1.201.154 2.289-.468Z"/><path fill="#fff" d="M137.704 10.773c.213 0 .396.109.55.328.153.218.254.465.302.742.047.277.023.535-.072.777-.094.242-.295.386-.603.432-.639.138-1.248.483-1.828 1.036a7.693 7.693 0 0 0-1.421 1.813c-.367.657-.586 1.278-.656 1.866-.072.587.082.984.461 1.191.52.277 1.082.237 1.686-.12.603-.357 1.148-.852 1.633-1.486a7.454 7.454 0 0 0 1.119-2.056c.26-.736.319-1.347.177-1.83-.071-.23-.035-.461.106-.691.142-.23.337-.42.586-.57.249-.15.527-.242.835-.277.307-.034.567.04.78.224.213.186.497.352.853.502.355.15.745.27 1.171.363.426.092.864.132 1.314.12a3.567 3.567 0 0 0 1.207-.224c.402-.16.591-.12.567.121-.024.242-.231.524-.621.846-.391.323-.946.61-1.669.864-.722.254-1.58.311-2.574.172-.047.83-.254 1.717-.621 2.66a10.085 10.085 0 0 1-1.491 2.609 8.201 8.201 0 0 1-2.236 1.968c-.865.518-1.829.777-2.894.777-1.065 0-1.882-.195-2.45-.587-.567-.392-.97-.881-1.207-1.469a4.602 4.602 0 0 1-.319-1.9 7.322 7.322 0 0 1 .284-1.848c.189-.667.515-1.37.977-2.107a11.428 11.428 0 0 1 1.65-2.055 9.321 9.321 0 0 1 2.095-1.571c.758-.413 1.528-.62 2.309-.62Z"/></svg>