<svg xmlns="http://www.w3.org/2000/svg" width="20" height="20" fill="none"><path fill="#F7931A" d="M10 20c5.523 0 10-4.477 10-10S15.523 0 10 0 0 4.477 0 10s4.477 10 10 10Z"/><path fill="#fff" d="M14.493 8.762c.196-1.31-.802-2.014-2.165-2.484l.442-1.775-1.08-.269-.431 1.729c-.284-.072-.575-.138-.866-.204l.434-1.74-1.08-.269-.442 1.774c-.235-.053-.466-.106-.69-.162l.001-.006-1.49-.372-.287 1.154s.802.184.785.195c.437.11.516.399.503.629l-.504 2.022c.03.007.069.018.113.035l-.115-.028-.706 2.833c-.054.132-.19.332-.496.256.012.016-.785-.196-.785-.196l-.536 1.237 1.406.35c.262.066.518.135.77.199l-.447 1.795 1.08.269.442-1.775c.295.08.581.153.861.223l-.441 1.767 1.08.27.447-1.792c1.842.349 3.227.208 3.81-1.458.47-1.341-.023-2.116-.992-2.62.706-.163 1.237-.627 1.38-1.587Zm-2.469 3.462c-.333 1.342-2.592.616-3.325.434l.594-2.378c.733.183 3.08.545 2.731 1.944Zm.335-3.48c-.305 1.22-2.185.6-2.794.447l.537-2.156c.61.152 2.574.435 2.257 1.708Z"/></svg>