<svg width="34" height="46" viewBox="0 0 34 46" fill="none" xmlns="http://www.w3.org/2000/svg">
<path d="M31.0064 20.125H28.2051V11.5C28.2051 5.175 23.1628 0 17 0C10.8372 0 5.79489 5.175 5.79489 11.5V20.125H2.9936C1.59296 20.125 0.192322 21.5625 0.192322 23V43.125C0.192322 44.5625 1.59296 46 2.9936 46H31.0064C32.4071 46 33.8077 44.5625 33.8077 43.125V23C33.8077 21.5625 32.4071 20.125 31.0064 20.125ZM19.8013 40.25H14.1987L15.3192 33.925C13.9186 33.35 12.7981 31.625 12.7981 30.1875C12.7981 27.8875 14.759 25.875 17 25.875C19.241 25.875 21.2019 27.8875 21.2019 30.1875C21.2019 31.9125 20.3616 33.35 18.6808 33.925L19.8013 40.25ZM22.6026 20.125H11.3974V11.5C11.3974 8.3375 13.9186 5.75 17 5.75C20.0814 5.75 22.6026 8.3375 22.6026 11.5V20.125Z" fill="#D9D9D9"/>
</svg>
