<!-- Generated by IcoMoon.io -->
<svg version="1.1" xmlns="http://www.w3.org/2000/svg" width="32" height="32" viewBox="0 0 32 32">
<title>affiliate</title>
<path d="M2.582 0.318c0.507-0.21 1.051-0.318 1.6-0.318s1.093 0.108 1.6 0.318c0.507 0.21 0.968 0.518 1.357 0.907s0.696 0.849 0.906 1.357c0.21 0.507 0.318 1.051 0.318 1.6s-0.108 1.093-0.318 1.6c-0.21 0.507-0.518 0.968-0.907 1.357-0.137 0.137-0.283 0.264-0.437 0.38l1.591 5.302c0.443-0.062 0.891-0.094 1.343-0.094 2.066 0 4.063 0.663 5.707 1.872l8.674-8.674c-0.249-0.542-0.381-1.136-0.381-1.744 0-1.109 0.441-2.173 1.225-2.957s1.848-1.225 2.957-1.225 2.173 0.441 2.957 1.225c0.784 0.784 1.225 1.848 1.225 2.957s-0.441 2.173-1.225 2.957c-0.784 0.784-1.848 1.225-2.957 1.225-0.608 0-1.202-0.132-1.744-0.381l-8.674 8.674c1.209 1.644 1.872 3.642 1.872 5.707 0 0.452-0.032 0.901-0.094 1.344l5.302 1.59c0.116-0.153 0.243-0.299 0.38-0.437 0.784-0.784 1.848-1.225 2.957-1.225s2.173 0.441 2.957 1.225c0.784 0.784 1.225 1.848 1.225 2.957s-0.441 2.173-1.225 2.957c-0.784 0.784-1.848 1.225-2.957 1.225s-2.173-0.441-2.957-1.225c-0.721-0.721-1.152-1.679-1.216-2.691l-5.302-1.59c-0.468 0.987-1.105 1.896-1.892 2.683-1.807 1.807-4.258 2.822-6.814 2.822s-5.007-1.015-6.814-2.822c-1.807-1.807-2.822-4.258-2.822-6.814s1.015-5.007 2.822-6.814c0.787-0.787 1.697-1.424 2.684-1.893l-1.591-5.302c-0.458-0.029-0.909-0.134-1.334-0.31-0.507-0.21-0.968-0.518-1.357-0.907s-0.696-0.849-0.906-1.357c-0.21-0.507-0.318-1.051-0.318-1.6s0.108-1.093 0.318-1.6c0.21-0.507 0.518-0.968 0.906-1.357s0.849-0.696 1.357-0.906zM4.588 5.388c-0.013 0.004-0.027 0.007-0.040 0.012s-0.027 0.008-0.040 0.013c-0.106 0.028-0.215 0.042-0.325 0.042-0.167 0-0.333-0.033-0.487-0.097s-0.295-0.158-0.413-0.276c-0.118-0.118-0.212-0.258-0.276-0.413s-0.097-0.32-0.097-0.487c0-0.167 0.033-0.333 0.097-0.487s0.158-0.295 0.276-0.413c0.118-0.118 0.258-0.212 0.413-0.276s0.32-0.097 0.487-0.097c0.167 0 0.333 0.033 0.487 0.097s0.295 0.158 0.413 0.276c0.118 0.118 0.212 0.258 0.276 0.413s0.097 0.32 0.097 0.487c0 0.167-0.033 0.333-0.097 0.487s-0.158 0.295-0.276 0.413c-0.118 0.118-0.258 0.212-0.413 0.276-0.027 0.011-0.054 0.021-0.081 0.030zM26.588 27.493c-0.028 0.105-0.042 0.214-0.042 0.325 0 0.338 0.134 0.661 0.373 0.9s0.562 0.373 0.9 0.373c0.338 0 0.661-0.134 0.9-0.373s0.373-0.562 0.373-0.9c0-0.338-0.134-0.661-0.373-0.9s-0.562-0.373-0.9-0.373c-0.338 0-0.661 0.134-0.9 0.373-0.14 0.14-0.244 0.309-0.306 0.494-0.004 0.014-0.007 0.027-0.012 0.040s-0.008 0.027-0.013 0.041zM26.989 5.148c0.23 0.197 0.524 0.307 0.829 0.307 0.338 0 0.661-0.134 0.9-0.373s0.373-0.562 0.373-0.9c0-0.338-0.134-0.661-0.373-0.9s-0.562-0.373-0.9-0.373c-0.338 0-0.661 0.134-0.9 0.373s-0.373 0.562-0.373 0.9c0 0.305 0.11 0.599 0.307 0.829 0.024 0.021 0.048 0.043 0.071 0.066s0.045 0.046 0.066 0.071zM9.636 15.636c-1.784 0-3.495 0.709-4.757 1.97s-1.97 2.973-1.97 4.757 0.709 3.495 1.97 4.757c1.262 1.262 2.973 1.97 4.757 1.97s3.495-0.709 4.757-1.97c1.262-1.262 1.97-2.973 1.97-4.757s-0.709-3.495-1.97-4.757c-1.262-1.262-2.973-1.97-4.757-1.97z"></path>
</svg>
