<!-- Generated by IcoMoon.io -->
<svg version="1.1" xmlns="http://www.w3.org/2000/svg" width="32" height="32" viewBox="0 0 32 32">
<title>allgames</title>
<path d="M15.487 0c0.005-0 0.009-0 0.014 0h3.027c0.736 0 1.333 0.597 1.333 1.333s-0.597 1.333-1.333 1.333h-1.405c0.956 3.919 3.1 7.41 6.742 10.049 4.478 0.143 8.135 3.707 8.135 8.173 0 4.559-3.81 8.178-8.414 8.178-2.861 0-5.415-1.397-6.939-3.549-0.806 3.729-4.218 6.482-8.234 6.482-4.604 0-8.414-3.619-8.414-8.178 0-4.128 3.124-7.485 7.132-8.083 0.012-0.158 0.026-0.328 0.044-0.511 0.104-1.067 0.323-2.548 0.779-4.223 0.697-2.558 1.965-5.621 4.276-8.338h-0.783c-0.736 0-1.333-0.597-1.333-1.333s0.597-1.333 1.333-1.333h4.039zM20.396 13.321c-2.891-2.657-4.737-5.89-5.704-9.41-2.255 2.444-3.489 5.323-4.163 7.795-0.409 1.502-0.605 2.832-0.698 3.782-0.009 0.093-0.017 0.183-0.024 0.268 2.286 0.371 4.275 1.642 5.547 3.437 0.58-2.684 2.51-4.862 5.043-5.873zM23.586 15.378c-3.217 0-5.747 2.51-5.747 5.511s2.53 5.511 5.747 5.511c3.217 0 5.747-2.51 5.747-5.511s-2.53-5.511-5.747-5.511zM8.414 18.311c-3.217 0-5.747 2.51-5.747 5.511s2.53 5.511 5.747 5.511c3.217 0 5.747-2.51 5.747-5.511s-2.53-5.511-5.747-5.511z"></path>
</svg>
