<!-- Generated by IcoMoon.io -->
<svg version="1.1" xmlns="http://www.w3.org/2000/svg" width="32" height="32" viewBox="0 0 32 32">
<title>arrow-up</title>
<path d="M16.001 6.545c-0.777 0.001-1.483 0.303-2.009 0.796l0.002-0.001-13.206 13.28c-0.524 0.528-0.788 1.202-0.788 2.020s0.262 1.492 0.788 2.020c0.528 0.53 1.198 0.794 2.009 0.794 0.814 0 1.484-0.264 2.009-0.794l11.195-11.258 11.192 11.258c0.526 0.53 1.196 0.794 2.007 0.794 0.816 0 1.484-0.264 2.012-0.794 0.524-0.528 0.788-1.202 0.788-2.020s-0.262-1.492-0.788-2.020l-13.204-13.28c-0.255-0.265-0.567-0.473-0.917-0.605l-0.017-0.006c-0.315-0.116-0.678-0.183-1.057-0.183-0.006 0-0.012 0-0.018 0h0.001z"></path>
</svg>
