<!-- Generated by IcoMoon.io -->
<svg version="1.1" xmlns="http://www.w3.org/2000/svg" width="32" height="32" viewBox="0 0 32 32">
<title>articles-search</title>
<path d="M11.202 0c-1.767 0-3.2 1.433-3.2 3.2v0h14.4c1.767 0 3.2 1.433 3.2 3.2v19.2c1.767 0 3.2-1.433 3.2-3.2v0-19.2c0-1.767-1.433-3.2-3.2-3.2v0h-14.4z"></path>
<path d="M17.282 24.96c-1.034 0.604-2.277 0.96-3.602 0.96-0.027 0-0.055 0-0.082 0h0.004c-1.735-0.005-3.326-0.617-4.573-1.636l0.013 0.010c-1.275-1.042-2.196-2.474-2.583-4.113l-0.010-0.051c-0.126-0.52-0.198-1.117-0.198-1.731 0-1.152 0.254-2.245 0.71-3.226l-0.020 0.047c0.709-1.536 1.876-2.76 3.324-3.52l0.041-0.020c0.96-0.505 2.098-0.801 3.305-0.801 0.525 0 1.037 0.056 1.531 0.163l-0.048-0.009c1.682 0.366 3.112 1.267 4.139 2.513l0.010 0.013c1.030 1.248 1.672 2.85 1.724 4.6v0.011c0.002 0.070 0.004 0.153 0.004 0.235 0 1.681-0.543 3.235-1.464 4.496l0.015-0.022 4.48 4.8v-19.84c0-1.679-1.361-3.040-3.040-3.040h-14.56c-0.048-0.003-0.104-0.004-0.16-0.004-1.679 0-3.040 1.361-3.040 3.040 0 0.001 0 0.003 0 0.004v0 20.96c-0.003 0.048-0.004 0.104-0.004 0.16 0 1.679 1.361 3.040 3.040 3.040 0.001 0 0.003 0 0.004 0h14.56c0.007 0 0.015 0 0.023 0 0.874 0 1.661-0.368 2.216-0.959l0.001-0.002-5.76-6.080z"></path>
<path d="M13.602 23.2c2.651 0 4.8-2.149 4.8-4.8s-2.149-4.8-4.8-4.8v0c-2.651 0-4.8 2.149-4.8 4.8s2.149 4.8 4.8 4.8v0z"></path>
</svg>
