<!-- Generated by IcoMoon.io -->
<svg version="1.1" xmlns="http://www.w3.org/2000/svg" width="32" height="32" viewBox="0 0 32 32">
<title>attention</title>
<path d="M17.747 3l13.979 24c0.777 1.333-0.194 3-1.747 3h-27.959c-1.553 0-2.524-1.667-1.747-3l13.979-24c0.777-1.333 2.718-1.333 3.495 0zM16 23.025c-0.836 0-1.513 0.672-1.513 1.5v0 0.225l0.014 0.204c0.1 0.732 0.733 1.296 1.499 1.296 0.836 0 1.513-0.672 1.513-1.5v0-0.225l-0.014-0.204c-0.1-0.732-0.733-1.296-1.499-1.296zM16 9.525c-0.836 0-1.513 0.672-1.513 1.5v0 9l0.014 0.204c0.1 0.732 0.733 1.296 1.499 1.296 0.836 0 1.513-0.672 1.513-1.5v0-9l-0.014-0.204c-0.1-0.732-0.733-1.296-1.499-1.296z"></path>
</svg>
