<!-- Generated by IcoMoon.io -->
<svg version="1.1" xmlns="http://www.w3.org/2000/svg" width="32" height="32" viewBox="0 0 32 32">
<title>avg-coins</title>
<path d="M16 16c7.952 0 16-2.061 16-6s-8.048-6-16-6c-7.952 0-16 2.061-16 6s8.048 6 16 6z"></path>
<path d="M0 16.667c0 3.501 8.048 5.333 16 5.333s16-1.832 16-5.333v-2.667c0 3.501-8.048 5.333-16 5.333s-16-1.832-16-5.333v2.667z"></path>
<path d="M0 22.667c0 3.501 8.048 5.333 16 5.333s16-1.832 16-5.333v-2.667c0 3.501-8.048 5.333-16 5.333s-16-1.832-16-5.333v2.667z"></path>
</svg>
