<!-- Generated by IcoMoon.io -->
<svg version="1.1" xmlns="http://www.w3.org/2000/svg" width="32" height="32" viewBox="0 0 32 32">
<title>bank-cards</title>
<path d="M20.419 0.003c-0.246 0.010-0.484 0.054-0.731 0.116l-16.73 4.076c-1.979 0.485-3.217 2.481-2.731 4.461l2.346 9.577c0.142 0.57 0.419 1.099 0.807 1.54s0.877 0.784 1.424 0.998v-2.308c0-3.393 2.76-6.153 6.153-6.153h15.499l-2.308-9.499c-0.204-0.826-0.687-1.556-1.366-2.067s-1.515-0.773-2.365-0.74h0.001zM21.918 5.311l1 4.192-4.154 0.999-1.039-4.153 4.192-1.037zM10.957 14.771c-2.038 0-3.692 1.654-3.692 3.692v9.845c0 2.038 1.654 3.692 3.692 3.692h17.229c2.038 0 3.692-1.654 3.692-3.692v-9.845c0-2.038-1.654-3.692-3.692-3.692h-17.229zM10.957 16.732h17.229c0.949 0 1.73 0.781 1.73 1.73v1.231h-20.69v-1.231c0-0.949 0.782-1.73 1.73-1.73zM9.227 23.385h20.69v4.923c0 0.949-0.782 1.73-1.73 1.73h-17.229c-0.458-0.003-0.897-0.186-1.221-0.51s-0.507-0.763-0.51-1.221v-4.923z"></path>
</svg>
