<!-- Generated by IcoMoon.io -->
<svg version="1.1" xmlns="http://www.w3.org/2000/svg" width="32" height="32" viewBox="0 0 32 32">
<title>burger</title>
<path d="M0 4.471c0-1.364 1.075-2.471 2.4-2.471h27.2c1.325 0 2.4 1.106 2.4 2.471s-1.075 2.471-2.4 2.471h-27.2c-1.325 0-2.4-1.106-2.4-2.471zM0 16c0-1.364 1.075-2.471 2.4-2.471h27.2c1.325 0 2.4 1.106 2.4 2.471s-1.075 2.471-2.4 2.471h-27.2c-1.325 0-2.4-1.106-2.4-2.471zM2.4 25.059c-1.325 0-2.4 1.106-2.4 2.471s1.075 2.471 2.4 2.471h27.2c1.325 0 2.4-1.106 2.4-2.471s-1.075-2.471-2.4-2.471h-27.2z"></path>
</svg>
