<!-- Generated by IcoMoon.io -->
<svg version="1.1" xmlns="http://www.w3.org/2000/svg" width="32" height="32" viewBox="0 0 32 32">
<title>button-back</title>
<path d="M31.296 4.96c0.208 1.074 0.352 2.514 0.448 4.343 0.112 1.829 0.16 3.406 0.16 4.777l0.096 1.92c0 5.006-0.256 8.686-0.704 11.040-0.4 2.057-1.328 3.383-2.768 3.954-0.752 0.297-2.128 0.503-4.24 0.64-2.080 0.16-3.984 0.229-5.744 0.229l-2.544 0.137c-6.704 0-10.88-0.366-12.528-1.006-1.44-0.571-2.368-1.897-2.768-3.954-0.208-1.074-0.352-2.514-0.448-4.343-0.112-1.829-0.16-3.406-0.16-4.777l-0.096-1.92c0-5.006 0.256-8.686 0.704-11.040 0.4-2.057 1.328-3.383 2.768-3.954 0.752-0.297 2.128-0.503 4.24-0.64 2.080-0.16 3.984-0.229 5.744-0.229l2.544-0.137c6.704 0 10.88 0.366 12.528 1.006 1.44 0.571 2.368 1.897 2.768 3.954z"></path>
</svg>
