<!-- Generated by IcoMoon.io -->
<svg version="1.1" xmlns="http://www.w3.org/2000/svg" width="32" height="32" viewBox="0 0 32 32">
<title>cancel</title>
<path d="M9.12 22.88c0.293 0.293 0.667 0.44 1.12 0.44s0.827-0.147 1.12-0.44l4.64-4.64 4.68 4.68c0.293 0.293 0.66 0.433 1.101 0.419 0.439-0.013 0.806-0.166 1.099-0.459s0.44-0.667 0.44-1.12c0-0.453-0.147-0.827-0.44-1.12l-4.64-4.64 4.68-4.68c0.293-0.293 0.433-0.66 0.419-1.101-0.013-0.439-0.166-0.806-0.459-1.099s-0.667-0.44-1.12-0.44c-0.453 0-0.827 0.147-1.12 0.44l-4.64 4.64-4.68-4.68c-0.293-0.293-0.66-0.434-1.099-0.421-0.441 0.014-0.807 0.167-1.101 0.461s-0.44 0.667-0.44 1.12c0 0.453 0.147 0.827 0.44 1.12l4.64 4.64-4.68 4.68c-0.293 0.293-0.433 0.66-0.419 1.099 0.013 0.441 0.166 0.807 0.459 1.101zM16 32c-2.213 0-4.293-0.42-6.24-1.261-1.947-0.839-3.64-1.979-5.080-3.419s-2.58-3.133-3.419-5.080c-0.841-1.947-1.261-4.027-1.261-6.24s0.42-4.293 1.261-6.24c0.839-1.947 1.979-3.64 3.419-5.080s3.133-2.58 5.080-3.421c1.947-0.839 4.027-1.259 6.24-1.259s4.293 0.42 6.24 1.259c1.947 0.841 3.64 1.981 5.080 3.421s2.58 3.133 3.419 5.080c0.841 1.947 1.261 4.027 1.261 6.24s-0.42 4.293-1.261 6.24c-0.839 1.947-1.979 3.64-3.419 5.080s-3.133 2.58-5.080 3.419c-1.947 0.841-4.027 1.261-6.24 1.261zM16 28.8c3.547 0 6.567-1.246 9.061-3.739 2.493-2.494 3.739-5.514 3.739-9.061s-1.246-6.567-3.739-9.061c-2.494-2.493-5.514-3.739-9.061-3.739s-6.566 1.246-9.059 3.739c-2.494 2.494-3.741 5.514-3.741 9.061s1.247 6.567 3.741 9.061c2.493 2.493 5.513 3.739 9.059 3.739z"></path>
</svg>
