<!-- Generated by IcoMoon.io -->
<svg version="1.1" xmlns="http://www.w3.org/2000/svg" width="32" height="32" viewBox="0 0 32 32">
<title>cards</title>
<path d="M26.597 0h-15.463c-1.986 0-3.597 1.61-3.597 3.597v24.806c0 1.986 1.61 3.597 3.597 3.597h15.463c1.986 0 3.597-1.61 3.597-3.597v-24.806c0-1.986-1.61-3.597-3.597-3.597zM11.134 2.233h15.463c0.753 0 1.364 0.611 1.364 1.364v24.806c0 0.753-0.611 1.364-1.364 1.364h-15.463c-0.753 0-1.364-0.611-1.364-1.364v-24.806c0-0.753 0.611-1.364 1.364-1.364z"></path>
<path d="M8.413 3.404l-5.727 1.245c-0.614 0.134-0.997 0.748-0.847 1.358l5.636 22.82c0.316 1.277 2.195 1.052 2.2-0.263l0.091-24.065c0.003-0.714-0.656-1.247-1.353-1.095zM7.528 5.881l-0.052 13.645-3.194-12.94 3.247-0.705z"></path>
<path d="M18.126 10.971l-3.404 4.465c-0.254 0.333-0.254 0.795 0 1.128l3.404 4.465c0.372 0.488 1.107 0.488 1.48 0l3.404-4.465c0.254-0.333 0.254-0.795 0-1.128l-3.404-4.465c-0.372-0.488-1.107-0.488-1.48 0zM18.865 13.068l2.234 2.932-2.234 2.93-2.234-2.93 2.234-2.932z"></path>
<path d="M12.808 4.651c0.491 0 0.899 0.329 0.984 0.763l0.016 0.167v2.977c0 0.514-0.448 0.93-1 0.93-0.491 0-0.899-0.329-0.984-0.763l-0.016-0.167v-2.977c0-0.514 0.448-0.93 1-0.93z"></path>
<path d="M25.063 22.512c0.491 0 0.899 0.329 0.984 0.763l0.016 0.167v2.977c0 0.514-0.448 0.93-1 0.93-0.491 0-0.899-0.329-0.984-0.763l-0.016-0.167v-2.977c0-0.514 0.448-0.93 1-0.93z"></path>
</svg>
