<!-- Generated by IcoMoon.io -->
<svg version="1.1" xmlns="http://www.w3.org/2000/svg" width="32" height="32" viewBox="0 0 32 32">
<title>casual</title>
<path d="M17.467 0.929c-0.316-0.346-0.703-0.703-0.866-0.784-0.387-0.204-0.896-0.194-1.273 0.041-0.173 0.102-0.56 0.468-0.866 0.815-0.713 0.815-2.689 2.607-4.624 4.196-5.011 4.114-6.681 5.968-7.811 8.646-0.56 1.314-0.733 2.271-0.723 3.819 0 1.008 0.061 1.517 0.224 2.139 0.682 2.556 2.281 4.41 4.613 5.336 1.090 0.428 1.823 0.56 3.188 0.56 0.826 0.005 1.512-0.075 2.181-0.281 0.279-0.086 0.556-0.194 0.839-0.327 0.425-0.2 0.865-0.455 1.349-0.777 0.326-0.214 0.621-0.377 0.652-0.346 0.026 0.026-0.080 0.41-0.252 0.948l-0.002 0.005c-0.116 0.364-0.261 0.799-0.415 1.241-0.119 0.342-0.243 0.688-0.362 1.009-0.116 0.312-0.227 0.601-0.324 0.839-0.176 0.434-0.405 0.942-0.647 1.448-0.388 0.81-0.81 1.613-1.105 2.096l-0.275 0.448 0.255-0.061c0.142-0.035 0.309-0.066 0.495-0.096h0.002c0.553-0.087 1.283-0.15 2.094-0.189 1.378-0.067 2.992-0.067 4.37 0 0.813 0.040 1.545 0.103 2.098 0.19 0.186 0.029 0.352 0.061 0.494 0.096l0.255 0.061-0.275-0.448c-0.315-0.513-0.716-1.284-1.097-2.096-0.209-0.446-0.413-0.903-0.594-1.337-0.113-0.276-0.242-0.612-0.375-0.97-0.119-0.32-0.24-0.659-0.356-0.991-0.097-0.278-0.191-0.551-0.275-0.805-0.002-0.007-0.005-0.014-0.007-0.021-0.25-0.752-0.424-1.335-0.392-1.367 0.020-0.020 0.438 0.204 0.937 0.509 0.369 0.234 0.724 0.433 1.072 0.6 0.281 0.134 0.559 0.247 0.835 0.339 0.812 0.271 1.621 0.366 2.522 0.314 1.192-0.071 1.874-0.214 2.831-0.591 2.322-0.927 3.931-2.78 4.613-5.336 0.163-0.621 0.214-1.13 0.224-2.139 0.010-1.558-0.173-2.526-0.723-3.819-1.12-2.638-2.597-4.298-7.394-8.3-2.617-2.179-4.237-3.646-5.112-4.613zM6.985 23.001c-2.869-1.434-3.385-4.463-3.385-5.34v-0.015c-0.008-1.275 0.118-1.915 0.539-2.904l0.003-0.008c0.893-2.116 2.161-3.665 7.153-7.765 1.807-1.484 3.76-3.231 4.704-4.248zM15.999 2.722c1.025 1.083 2.691 2.569 5.11 4.583 4.771 3.981 5.862 5.342 6.75 7.434 0.414 0.974 0.549 1.627 0.541 2.903-0.009 0.915-0.054 1.213-0.148 1.57-0.507 1.893-1.635 3.147-3.24 3.79-0.696 0.274-1.136 0.374-2.119 0.433-1.042 0.060-1.875-0.142-3.064-0.898l-0.016-0.010-0.017-0.010c-0.275-0.169-0.541-0.322-0.754-0.438-0.101-0.055-0.221-0.117-0.338-0.171-0.048-0.022-0.159-0.072-0.294-0.117-0.055-0.018-0.216-0.071-0.426-0.1-0.101-0.014-0.317-0.038-0.588-0.006-0.233 0.027-0.834 0.132-1.359 0.658-0.011 0.011-0.022 0.022-0.032 0.033-0.010-0.011-0.021-0.022-0.032-0.033-0.515-0.515-1.105-0.632-1.38-0.662-0.294-0.032-0.529-0.001-0.646 0.018-0.238 0.040-0.421 0.109-0.493 0.136-0.17 0.066-0.318 0.143-0.406 0.19-0.197 0.106-0.413 0.239-0.609 0.368l-0.011 0.007c-0.685 0.455-1.156 0.684-1.565 0.813-0.397 0.126-0.844 0.192-1.52 0.188h-0.014c-1.115 0-1.559-0.092-2.344-0.4zM16.007 26.453c0.291 0.851 0.65 1.843 0.934 2.536l0.006 0.014c0.043 0.104 0.088 0.209 0.134 0.316-0.364-0.008-0.727-0.011-1.080-0.011-0.349 0-0.706 0.003-1.065 0.011 0.067-0.154 0.13-0.304 0.187-0.447 0.266-0.651 0.607-1.597 0.885-2.419z"></path>
</svg>
